<!DOCTYPE MIDIFile PUBLIC
        "-//Recordare//DTD MusicXML 0.9 MIDI//EN"
        "http://www.musicxml.org/dtds/midixml.dtd">
<MIDIFile>
    <Format>0</Format>
    <TrackCount>1</TrackCount>
    <TicksPerBeat>480</TicksPerBeat>
    <TimestampType>Absolute</TimestampType>
    <Track Number="0">
        <Event>
            <Absolute>0</Absolute>
            <MIDIChannelPrefix Value="15"/>
        </Event>
        <Event>
            <Absolute>0</Absolute>
            <TrackName>Cajon</TrackName>
        </Event>
        <Event>
            <Absolute>0</Absolute>
            <InstrumentName>BD + SN</InstrumentName>
        </Event>
        <Event>
            <Absolute>0</Absolute>
            <TimeSignature Numerator="4" LogDenominator="2" MIDIClocksPerMetronomeClick="24"
                           ThirtySecondsPer24Clocks="8"/>
        </Event>
        <Event>
            <Absolute>0</Absolute>
            <KeySignature Fifths="0" Mode="0"/>
        </Event>
        <Event>
            <Absolute>0</Absolute>
            <SMPTEOffset TimeCodeType="1" Hour="33" Minute="0" Second="0" Frame="0"
                         FractionalFrame="0"/>
        </Event>
        <Event>
            <Absolute>0</Absolute>
            <SetTempo Value="576923"/>
        </Event>
        <Event>
            <Absolute>0</Absolute>
            <NoteOn Channel="1" Note="48" Velocity="115"/>
        </Event>
        <Event>
            <Absolute>193</Absolute>
            <NoteOff Channel="1" Note="48" Velocity="0"/>
        </Event>
        <Event>
            <Absolute>480</Absolute>
            <NoteOn Channel="1" Note="50" Velocity="106"/>
        </Event>
        <Event>
            <Absolute>661</Absolute>
            <NoteOff Channel="1" Note="50" Velocity="0"/>
        </Event>
        <Event>
            <Absolute>760</Absolute>
            <NoteOn Channel="1" Note="48" Velocity="111"/>
        </Event>
        <Event>
            <Absolute>929</Absolute>
            <NoteOff Channel="1" Note="48" Velocity="0"/>
        </Event>
        <Event>
            <Absolute>1440</Absolute>
            <NoteOn Channel="1" Note="50" Velocity="116"/>
        </Event>
        <Event>
            <Absolute>1647</Absolute>
            <NoteOff Channel="1" Note="50" Velocity="0"/>
        </Event>
        <Event>
            <Absolute>1920</Absolute>
            <NoteOn Channel="1" Note="48" Velocity="119"/>
        </Event>
        <Event>
            <Absolute>2046</Absolute>
            <NoteOff Channel="1" Note="48" Velocity="0"/>
        </Event>
        <Event>
            <Absolute>2400</Absolute>
            <NoteOn Channel="1" Note="50" Velocity="116"/>
        </Event>
        <Event>
            <Absolute>2501</Absolute>
            <NoteOff Channel="1" Note="50" Velocity="0"/>
        </Event>
        <Event>
            <Absolute>2680</Absolute>
            <NoteOn Channel="1" Note="48" Velocity="120"/>
        </Event>
        <Event>
            <Absolute>2791</Absolute>
            <NoteOff Channel="1" Note="48" Velocity="0"/>
        </Event>
        <Event>
            <Absolute>3360</Absolute>
            <NoteOn Channel="1" Note="50" Velocity="119"/>
        </Event>
        <Event>
            <Absolute>3452</Absolute>
            <NoteOff Channel="1" Note="50" Velocity="0"/>
        </Event>
        <Event>
            <Absolute>3840</Absolute>
            <NoteOn Channel="1" Note="48" Velocity="121"/>
        </Event>
        <Event>
            <Absolute>3918</Absolute>
            <NoteOff Channel="1" Note="48" Velocity="0"/>
        </Event>
        <Event>
            <Absolute>4320</Absolute>
            <NoteOn Channel="1" Note="50" Velocity="114"/>
        </Event>
        <Event>
            <Absolute>4397</Absolute>
            <NoteOff Channel="1" Note="50" Velocity="0"/>
        </Event>
        <Event>
            <Absolute>4600</Absolute>
            <NoteOn Channel="1" Note="48" Velocity="117"/>
        </Event>
        <Event>
            <Absolute>4688</Absolute>
            <NoteOff Channel="1" Note="48" Velocity="0"/>
        </Event>
        <Event>
            <Absolute>5280</Absolute>
            <NoteOn Channel="1" Note="50" Velocity="121"/>
        </Event>
        <Event>
            <Absolute>5384</Absolute>
            <NoteOff Channel="1" Note="50" Velocity="0"/>
        </Event>
        <Event>
            <Absolute>5760</Absolute>
            <NoteOn Channel="1" Note="48" Velocity="117"/>
        </Event>
        <Event>
            <Absolute>5880</Absolute>
            <NoteOff Channel="1" Note="48" Velocity="0"/>
        </Event>
        <Event>
            <Absolute>6240</Absolute>
            <NoteOn Channel="1" Note="50" Velocity="119"/>
        </Event>
        <Event>
            <Absolute>6357</Absolute>
            <NoteOff Channel="1" Note="50" Velocity="0"/>
        </Event>
        <Event>
            <Absolute>6520</Absolute>
            <NoteOn Channel="1" Note="48" Velocity="118"/>
        </Event>
        <Event>
            <Absolute>6665</Absolute>
            <NoteOff Channel="1" Note="48" Velocity="0"/>
        </Event>
        <Event>
            <Absolute>7200</Absolute>
            <NoteOn Channel="1" Note="50" Velocity="121"/>
        </Event>
        <Event>
            <Absolute>7305</Absolute>
            <NoteOff Channel="1" Note="50" Velocity="0"/>
        </Event>
        <Event>
            <Absolute>7680</Absolute>
            <NoteOn Channel="1" Note="48" Velocity="119"/>
        </Event>
        <Event>
            <Absolute>7890</Absolute>
            <NoteOff Channel="1" Note="48" Velocity="0"/>
        </Event>
        <Event>
            <Absolute>8160</Absolute>
            <NoteOn Channel="1" Note="50" Velocity="117"/>
        </Event>
        <Event>
            <Absolute>8297</Absolute>
            <NoteOff Channel="1" Note="50" Velocity="0"/>
        </Event>
        <Event>
            <Absolute>8440</Absolute>
            <NoteOn Channel="1" Note="48" Velocity="110"/>
        </Event>
        <Event>
            <Absolute>8609</Absolute>
            <NoteOff Channel="1" Note="48" Velocity="0"/>
        </Event>
        <Event>
            <Absolute>9120</Absolute>
            <NoteOn Channel="1" Note="50" Velocity="114"/>
        </Event>
        <Event>
            <Absolute>9298</Absolute>
            <NoteOff Channel="1" Note="50" Velocity="0"/>
        </Event>
        <Event>
            <Absolute>9600</Absolute>
            <NoteOn Channel="1" Note="48" Velocity="121"/>
        </Event>
        <Event>
            <Absolute>9759</Absolute>
            <NoteOff Channel="1" Note="48" Velocity="0"/>
        </Event>
        <Event>
            <Absolute>10080</Absolute>
            <NoteOn Channel="1" Note="50" Velocity="119"/>
        </Event>
        <Event>
            <Absolute>10222</Absolute>
            <NoteOff Channel="1" Note="50" Velocity="0"/>
        </Event>
        <Event>
            <Absolute>10360</Absolute>
            <NoteOn Channel="1" Note="48" Velocity="119"/>
        </Event>
        <Event>
            <Absolute>10499</Absolute>
            <NoteOff Channel="1" Note="48" Velocity="0"/>
        </Event>
        <Event>
            <Absolute>11040</Absolute>
            <NoteOn Channel="1" Note="50" Velocity="115"/>
        </Event>
        <Event>
            <Absolute>11223</Absolute>
            <NoteOff Channel="1" Note="50" Velocity="0"/>
        </Event>
        <Event>
            <Absolute>11520</Absolute>
            <NoteOn Channel="1" Note="48" Velocity="121"/>
        </Event>
        <Event>
            <Absolute>11667</Absolute>
            <NoteOff Channel="1" Note="48" Velocity="0"/>
        </Event>
        <Event>
            <Absolute>12000</Absolute>
            <NoteOn Channel="1" Note="50" Velocity="119"/>
        </Event>
        <Event>
            <Absolute>12133</Absolute>
            <NoteOff Channel="1" Note="50" Velocity="0"/>
        </Event>
        <Event>
            <Absolute>12280</Absolute>
            <NoteOn Channel="1" Note="48" Velocity="121"/>
        </Event>
        <Event>
            <Absolute>12419</Absolute>
            <NoteOff Channel="1" Note="48" Velocity="0"/>
        </Event>
        <Event>
            <Absolute>12960</Absolute>
            <NoteOn Channel="1" Note="50" Velocity="121"/>
        </Event>
        <Event>
            <Absolute>13118</Absolute>
            <NoteOff Channel="1" Note="50" Velocity="0"/>
        </Event>
        <Event>
            <Absolute>13440</Absolute>
            <NoteOn Channel="1" Note="48" Velocity="120"/>
        </Event>
        <Event>
            <Absolute>13582</Absolute>
            <NoteOff Channel="1" Note="48" Velocity="0"/>
        </Event>
        <Event>
            <Absolute>13920</Absolute>
            <NoteOn Channel="1" Note="50" Velocity="117"/>
        </Event>
        <Event>
            <Absolute>14054</Absolute>
            <NoteOff Channel="1" Note="50" Velocity="0"/>
        </Event>
        <Event>
            <Absolute>14200</Absolute>
            <NoteOn Channel="1" Note="48" Velocity="117"/>
        </Event>
        <Event>
            <Absolute>14347</Absolute>
            <NoteOff Channel="1" Note="48" Velocity="0"/>
        </Event>
        <Event>
            <Absolute>14880</Absolute>
            <NoteOn Channel="1" Note="50" Velocity="118"/>
        </Event>
        <Event>
            <Absolute>14984</Absolute>
            <NoteOff Channel="1" Note="50" Velocity="0"/>
        </Event>
        <Event>
            <Absolute>15360</Absolute>
            <NoteOn Channel="1" Note="48" Velocity="117"/>
        </Event>
        <Event>
            <Absolute>15541</Absolute>
            <NoteOff Channel="1" Note="48" Velocity="0"/>
        </Event>
        <Event>
            <Absolute>15840</Absolute>
            <NoteOn Channel="1" Note="50" Velocity="121"/>
        </Event>
        <Event>
            <Absolute>15977</Absolute>
            <NoteOff Channel="1" Note="50" Velocity="0"/>
        </Event>
        <Event>
            <Absolute>16120</Absolute>
            <NoteOn Channel="1" Note="48" Velocity="116"/>
        </Event>
        <Event>
            <Absolute>16275</Absolute>
            <NoteOff Channel="1" Note="48" Velocity="0"/>
        </Event>
        <Event>
            <Absolute>16800</Absolute>
            <NoteOn Channel="1" Note="50" Velocity="113"/>
        </Event>
        <Event>
            <Absolute>16983</Absolute>
            <NoteOff Channel="1" Note="50" Velocity="0"/>
        </Event>
        <Event>
            <Absolute>17280</Absolute>
            <NoteOn Channel="1" Note="48" Velocity="119"/>
        </Event>
        <Event>
            <Absolute>17432</Absolute>
            <NoteOff Channel="1" Note="48" Velocity="0"/>
        </Event>
        <Event>
            <Absolute>17760</Absolute>
            <NoteOn Channel="1" Note="50" Velocity="116"/>
        </Event>
        <Event>
            <Absolute>17894</Absolute>
            <NoteOff Channel="1" Note="50" Velocity="0"/>
        </Event>
        <Event>
            <Absolute>18040</Absolute>
            <NoteOn Channel="1" Note="48" Velocity="119"/>
        </Event>
        <Event>
            <Absolute>18188</Absolute>
            <NoteOff Channel="1" Note="48" Velocity="0"/>
        </Event>
        <Event>
            <Absolute>18720</Absolute>
            <NoteOn Channel="1" Note="50" Velocity="116"/>
        </Event>
        <Event>
            <Absolute>18874</Absolute>
            <NoteOff Channel="1" Note="50" Velocity="0"/>
        </Event>
        <Event>
            <Absolute>19200</Absolute>
            <NoteOn Channel="1" Note="48" Velocity="116"/>
        </Event>
        <Event>
            <Absolute>19356</Absolute>
            <NoteOff Channel="1" Note="48" Velocity="0"/>
        </Event>
        <Event>
            <Absolute>19680</Absolute>
            <NoteOn Channel="1" Note="50" Velocity="111"/>
        </Event>
        <Event>
            <Absolute>19787</Absolute>
            <NoteOff Channel="1" Note="50" Velocity="0"/>
        </Event>
        <Event>
            <Absolute>19960</Absolute>
            <NoteOn Channel="1" Note="48" Velocity="114"/>
        </Event>
        <Event>
            <Absolute>20092</Absolute>
            <NoteOff Channel="1" Note="48" Velocity="0"/>
        </Event>
        <Event>
            <Absolute>20640</Absolute>
            <NoteOn Channel="1" Note="50" Velocity="119"/>
        </Event>
        <Event>
            <Absolute>20782</Absolute>
            <NoteOff Channel="1" Note="50" Velocity="0"/>
        </Event>
        <Event>
            <Absolute>21120</Absolute>
            <NoteOn Channel="1" Note="48" Velocity="112"/>
        </Event>
        <Event>
            <Absolute>21251</Absolute>
            <NoteOff Channel="1" Note="48" Velocity="0"/>
        </Event>
        <Event>
            <Absolute>21600</Absolute>
            <NoteOn Channel="1" Note="50" Velocity="114"/>
        </Event>
        <Event>
            <Absolute>21716</Absolute>
            <NoteOff Channel="1" Note="50" Velocity="0"/>
        </Event>
        <Event>
            <Absolute>21880</Absolute>
            <NoteOn Channel="1" Note="48" Velocity="117"/>
        </Event>
        <Event>
            <Absolute>22035</Absolute>
            <NoteOff Channel="1" Note="48" Velocity="0"/>
        </Event>
        <Event>
            <Absolute>22560</Absolute>
            <NoteOn Channel="1" Note="50" Velocity="119"/>
        </Event>
        <Event>
            <Absolute>22651</Absolute>
            <NoteOff Channel="1" Note="50" Velocity="0"/>
        </Event>
        <Event>
            <Absolute>23040</Absolute>
            <NoteOn Channel="1" Note="48" Velocity="121"/>
        </Event>
        <Event>
            <Absolute>23198</Absolute>
            <NoteOff Channel="1" Note="48" Velocity="0"/>
        </Event>
        <Event>
            <Absolute>23520</Absolute>
            <NoteOn Channel="1" Note="50" Velocity="119"/>
        </Event>
        <Event>
            <Absolute>23664</Absolute>
            <NoteOff Channel="1" Note="50" Velocity="0"/>
        </Event>
        <Event>
            <Absolute>23800</Absolute>
            <NoteOn Channel="1" Note="48" Velocity="111"/>
        </Event>
        <Event>
            <Absolute>23954</Absolute>
            <NoteOff Channel="1" Note="48" Velocity="0"/>
        </Event>
        <Event>
            <Absolute>24480</Absolute>
            <NoteOn Channel="1" Note="50" Velocity="118"/>
        </Event>
        <Event>
            <Absolute>24626</Absolute>
            <NoteOff Channel="1" Note="50" Velocity="0"/>
        </Event>
        <Event>
            <Absolute>24960</Absolute>
            <NoteOn Channel="1" Note="48" Velocity="121"/>
        </Event>
        <Event>
            <Absolute>25107</Absolute>
            <NoteOff Channel="1" Note="48" Velocity="0"/>
        </Event>
        <Event>
            <Absolute>25440</Absolute>
            <NoteOn Channel="1" Note="50" Velocity="120"/>
        </Event>
        <Event>
            <Absolute>25572</Absolute>
            <NoteOff Channel="1" Note="50" Velocity="0"/>
        </Event>
        <Event>
            <Absolute>25720</Absolute>
            <NoteOn Channel="1" Note="48" Velocity="116"/>
        </Event>
        <Event>
            <Absolute>25873</Absolute>
            <NoteOff Channel="1" Note="48" Velocity="0"/>
        </Event>
        <Event>
            <Absolute>26400</Absolute>
            <NoteOn Channel="1" Note="50" Velocity="120"/>
        </Event>
        <Event>
            <Absolute>26560</Absolute>
            <NoteOff Channel="1" Note="50" Velocity="0"/>
        </Event>
        <Event>
            <Absolute>26880</Absolute>
            <NoteOn Channel="1" Note="48" Velocity="121"/>
        </Event>
        <Event>
            <Absolute>27029</Absolute>
            <NoteOff Channel="1" Note="48" Velocity="0"/>
        </Event>
        <Event>
            <Absolute>27360</Absolute>
            <NoteOn Channel="1" Note="50" Velocity="116"/>
        </Event>
        <Event>
            <Absolute>27483</Absolute>
            <NoteOff Channel="1" Note="50" Velocity="0"/>
        </Event>
        <Event>
            <Absolute>27640</Absolute>
            <NoteOn Channel="1" Note="48" Velocity="118"/>
        </Event>
        <Event>
            <Absolute>27788</Absolute>
            <NoteOff Channel="1" Note="48" Velocity="0"/>
        </Event>
        <Event>
            <Absolute>28320</Absolute>
            <NoteOn Channel="1" Note="50" Velocity="120"/>
        </Event>
        <Event>
            <Absolute>28507</Absolute>
            <NoteOff Channel="1" Note="50" Velocity="0"/>
        </Event>
        <Event>
            <Absolute>28800</Absolute>
            <NoteOn Channel="1" Note="48" Velocity="121"/>
        </Event>
        <Event>
            <Absolute>28964</Absolute>
            <NoteOff Channel="1" Note="48" Velocity="0"/>
        </Event>
        <Event>
            <Absolute>29280</Absolute>
            <NoteOn Channel="1" Note="50" Velocity="116"/>
        </Event>
        <Event>
            <Absolute>29417</Absolute>
            <NoteOff Channel="1" Note="50" Velocity="0"/>
        </Event>
        <Event>
            <Absolute>29560</Absolute>
            <NoteOn Channel="1" Note="48" Velocity="120"/>
        </Event>
        <Event>
            <Absolute>29725</Absolute>
            <NoteOff Channel="1" Note="48" Velocity="0"/>
        </Event>
        <Event>
            <Absolute>30240</Absolute>
            <NoteOn Channel="1" Note="50" Velocity="122"/>
        </Event>
        <Event>
            <Absolute>30390</Absolute>
            <NoteOff Channel="1" Note="50" Velocity="0"/>
        </Event>
        <Event>
            <Absolute>30720</Absolute>
            <NoteOn Channel="1" Note="48" Velocity="116"/>
        </Event>
        <Event>
            <Absolute>30854</Absolute>
            <NoteOff Channel="1" Note="48" Velocity="0"/>
        </Event>
        <Event>
            <Absolute>31200</Absolute>
            <NoteOn Channel="1" Note="50" Velocity="115"/>
        </Event>
        <Event>
            <Absolute>31349</Absolute>
            <NoteOff Channel="1" Note="50" Velocity="0"/>
        </Event>
        <Event>
            <Absolute>31480</Absolute>
            <NoteOn Channel="1" Note="48" Velocity="109"/>
        </Event>
        <Event>
            <Absolute>31574</Absolute>
            <NoteOff Channel="1" Note="48" Velocity="0"/>
        </Event>
        <Event>
            <Absolute>31680</Absolute>
            <NoteOn Channel="1" Note="48" Velocity="116"/>
        </Event>
        <Event>
            <Absolute>31799</Absolute>
            <NoteOff Channel="1" Note="48" Velocity="0"/>
        </Event>
        <Event>
            <Absolute>32160</Absolute>
            <NoteOn Channel="1" Note="50" Velocity="114"/>
        </Event>
        <Event>
            <Absolute>32284</Absolute>
            <NoteOff Channel="1" Note="50" Velocity="0"/>
        </Event>
        <Event>
            <Absolute>32440</Absolute>
            <NoteOn Channel="1" Note="50" Velocity="105"/>
        </Event>
        <Event>
            <Absolute>32592</Absolute>
            <NoteOff Channel="1" Note="50" Velocity="0"/>
        </Event>
        <Event>
            <Absolute>32640</Absolute>
            <NoteOn Channel="1" Note="48" Velocity="94"/>
        </Event>
        <Event>
            <Absolute>32868</Absolute>
            <NoteOff Channel="1" Note="48" Velocity="0"/>
        </Event>
        <Event>
            <Absolute>33120</Absolute>
            <NoteOn Channel="1" Note="50" Velocity="121"/>
        </Event>
        <Event>
            <Absolute>33237</Absolute>
            <NoteOff Channel="1" Note="50" Velocity="0"/>
        </Event>
        <Event>
            <Absolute>33400</Absolute>
            <NoteOn Channel="1" Note="48" Velocity="110"/>
        </Event>
        <Event>
            <Absolute>33481</Absolute>
            <NoteOff Channel="1" Note="48" Velocity="0"/>
        </Event>
        <Event>
            <Absolute>33600</Absolute>
            <NoteOn Channel="1" Note="48" Velocity="115"/>
        </Event>
        <Event>
            <Absolute>33720</Absolute>
            <NoteOff Channel="1" Note="48" Velocity="0"/>
        </Event>
        <Event>
            <Absolute>34080</Absolute>
            <NoteOn Channel="1" Note="50" Velocity="116"/>
        </Event>
        <Event>
            <Absolute>34191</Absolute>
            <NoteOff Channel="1" Note="50" Velocity="0"/>
        </Event>
        <Event>
            <Absolute>34360</Absolute>
            <NoteOn Channel="1" Note="50" Velocity="92"/>
        </Event>
        <Event>
            <Absolute>34476</Absolute>
            <NoteOff Channel="1" Note="50" Velocity="0"/>
        </Event>
        <Event>
            <Absolute>34560</Absolute>
            <NoteOn Channel="1" Note="48" Velocity="115"/>
        </Event>
        <Event>
            <Absolute>34709</Absolute>
            <NoteOff Channel="1" Note="48" Velocity="0"/>
        </Event>
        <Event>
            <Absolute>35040</Absolute>
            <NoteOn Channel="1" Note="50" Velocity="119"/>
        </Event>
        <Event>
            <Absolute>35171</Absolute>
            <NoteOff Channel="1" Note="50" Velocity="0"/>
        </Event>
        <Event>
            <Absolute>35320</Absolute>
            <NoteOn Channel="1" Note="48" Velocity="110"/>
        </Event>
        <Event>
            <Absolute>35413</Absolute>
            <NoteOff Channel="1" Note="48" Velocity="0"/>
        </Event>
        <Event>
            <Absolute>35520</Absolute>
            <NoteOn Channel="1" Note="48" Velocity="111"/>
        </Event>
        <Event>
            <Absolute>35628</Absolute>
            <NoteOff Channel="1" Note="48" Velocity="0"/>
        </Event>
        <Event>
            <Absolute>36000</Absolute>
            <NoteOn Channel="1" Note="50" Velocity="117"/>
        </Event>
        <Event>
            <Absolute>36107</Absolute>
            <NoteOff Channel="1" Note="50" Velocity="0"/>
        </Event>
        <Event>
            <Absolute>36280</Absolute>
            <NoteOn Channel="1" Note="50" Velocity="111"/>
        </Event>
        <Event>
            <Absolute>36369</Absolute>
            <NoteOff Channel="1" Note="50" Velocity="0"/>
        </Event>
        <Event>
            <Absolute>36480</Absolute>
            <NoteOn Channel="1" Note="48" Velocity="118"/>
        </Event>
        <Event>
            <Absolute>36621</Absolute>
            <NoteOff Channel="1" Note="48" Velocity="0"/>
        </Event>
        <Event>
            <Absolute>36960</Absolute>
            <NoteOn Channel="1" Note="50" Velocity="118"/>
        </Event>
        <Event>
            <Absolute>37075</Absolute>
            <NoteOff Channel="1" Note="50" Velocity="0"/>
        </Event>
        <Event>
            <Absolute>37240</Absolute>
            <NoteOn Channel="1" Note="48" Velocity="115"/>
        </Event>
        <Event>
            <Absolute>37327</Absolute>
            <NoteOff Channel="1" Note="48" Velocity="0"/>
        </Event>
        <Event>
            <Absolute>37440</Absolute>
            <NoteOn Channel="1" Note="48" Velocity="107"/>
        </Event>
        <Event>
            <Absolute>37538</Absolute>
            <NoteOff Channel="1" Note="48" Velocity="0"/>
        </Event>
        <Event>
            <Absolute>37920</Absolute>
            <NoteOn Channel="1" Note="50" Velocity="115"/>
        </Event>
        <Event>
            <Absolute>38018</Absolute>
            <NoteOff Channel="1" Note="50" Velocity="0"/>
        </Event>
        <Event>
            <Absolute>38200</Absolute>
            <NoteOn Channel="1" Note="50" Velocity="98"/>
        </Event>
        <Event>
            <Absolute>38290</Absolute>
            <NoteOff Channel="1" Note="50" Velocity="0"/>
        </Event>
        <Event>
            <Absolute>38400</Absolute>
            <NoteOn Channel="1" Note="48" Velocity="92"/>
        </Event>
        <Event>
            <Absolute>38521</Absolute>
            <NoteOff Channel="1" Note="48" Velocity="0"/>
        </Event>
        <Event>
            <Absolute>38880</Absolute>
            <NoteOn Channel="1" Note="50" Velocity="117"/>
        </Event>
        <Event>
            <Absolute>38991</Absolute>
            <NoteOff Channel="1" Note="50" Velocity="0"/>
        </Event>
        <Event>
            <Absolute>39160</Absolute>
            <NoteOn Channel="1" Note="48" Velocity="99"/>
        </Event>
        <Event>
            <Absolute>39235</Absolute>
            <NoteOff Channel="1" Note="48" Velocity="0"/>
        </Event>
        <Event>
            <Absolute>39360</Absolute>
            <NoteOn Channel="1" Note="48" Velocity="114"/>
        </Event>
        <Event>
            <Absolute>39473</Absolute>
            <NoteOff Channel="1" Note="48" Velocity="0"/>
        </Event>
        <Event>
            <Absolute>39840</Absolute>
            <NoteOn Channel="1" Note="50" Velocity="116"/>
        </Event>
        <Event>
            <Absolute>39946</Absolute>
            <NoteOff Channel="1" Note="50" Velocity="0"/>
        </Event>
        <Event>
            <Absolute>40120</Absolute>
            <NoteOn Channel="1" Note="50" Velocity="110"/>
        </Event>
        <Event>
            <Absolute>40216</Absolute>
            <NoteOff Channel="1" Note="50" Velocity="0"/>
        </Event>
        <Event>
            <Absolute>40320</Absolute>
            <NoteOn Channel="1" Note="48" Velocity="111"/>
        </Event>
        <Event>
            <Absolute>40463</Absolute>
            <NoteOff Channel="1" Note="48" Velocity="0"/>
        </Event>
        <Event>
            <Absolute>40800</Absolute>
            <NoteOn Channel="1" Note="50" Velocity="111"/>
        </Event>
        <Event>
            <Absolute>40930</Absolute>
            <NoteOff Channel="1" Note="50" Velocity="0"/>
        </Event>
        <Event>
            <Absolute>41080</Absolute>
            <NoteOn Channel="1" Note="48" Velocity="105"/>
        </Event>
        <Event>
            <Absolute>41157</Absolute>
            <NoteOff Channel="1" Note="48" Velocity="0"/>
        </Event>
        <Event>
            <Absolute>41280</Absolute>
            <NoteOn Channel="1" Note="48" Velocity="107"/>
        </Event>
        <Event>
            <Absolute>41405</Absolute>
            <NoteOff Channel="1" Note="48" Velocity="0"/>
        </Event>
        <Event>
            <Absolute>41760</Absolute>
            <NoteOn Channel="1" Note="50" Velocity="113"/>
        </Event>
        <Event>
            <Absolute>41869</Absolute>
            <NoteOff Channel="1" Note="50" Velocity="0"/>
        </Event>
        <Event>
            <Absolute>42040</Absolute>
            <NoteOn Channel="1" Note="50" Velocity="110"/>
        </Event>
        <Event>
            <Absolute>42148</Absolute>
            <NoteOff Channel="1" Note="50" Velocity="0"/>
        </Event>
        <Event>
            <Absolute>42240</Absolute>
            <NoteOn Channel="1" Note="48" Velocity="89"/>
        </Event>
        <Event>
            <Absolute>42383</Absolute>
            <NoteOff Channel="1" Note="48" Velocity="0"/>
        </Event>
        <Event>
            <Absolute>42720</Absolute>
            <NoteOn Channel="1" Note="50" Velocity="111"/>
        </Event>
        <Event>
            <Absolute>42842</Absolute>
            <NoteOff Channel="1" Note="50" Velocity="0"/>
        </Event>
        <Event>
            <Absolute>43000</Absolute>
            <NoteOn Channel="1" Note="48" Velocity="101"/>
        </Event>
        <Event>
            <Absolute>43081</Absolute>
            <NoteOff Channel="1" Note="48" Velocity="0"/>
        </Event>
        <Event>
            <Absolute>43200</Absolute>
            <NoteOn Channel="1" Note="48" Velocity="116"/>
        </Event>
        <Event>
            <Absolute>43321</Absolute>
            <NoteOff Channel="1" Note="48" Velocity="0"/>
        </Event>
        <Event>
            <Absolute>43680</Absolute>
            <NoteOn Channel="1" Note="50" Velocity="115"/>
        </Event>
        <Event>
            <Absolute>43777</Absolute>
            <NoteOff Channel="1" Note="50" Velocity="0"/>
        </Event>
        <Event>
            <Absolute>43960</Absolute>
            <NoteOn Channel="1" Note="50" Velocity="105"/>
        </Event>
        <Event>
            <Absolute>44048</Absolute>
            <NoteOff Channel="1" Note="50" Velocity="0"/>
        </Event>
        <Event>
            <Absolute>44160</Absolute>
            <NoteOn Channel="1" Note="48" Velocity="113"/>
        </Event>
        <Event>
            <Absolute>44295</Absolute>
            <NoteOff Channel="1" Note="48" Velocity="0"/>
        </Event>
        <Event>
            <Absolute>44640</Absolute>
            <NoteOn Channel="1" Note="50" Velocity="116"/>
        </Event>
        <Event>
            <Absolute>44734</Absolute>
            <NoteOff Channel="1" Note="50" Velocity="0"/>
        </Event>
        <Event>
            <Absolute>44920</Absolute>
            <NoteOn Channel="1" Note="48" Velocity="100"/>
        </Event>
        <Event>
            <Absolute>45005</Absolute>
            <NoteOff Channel="1" Note="48" Velocity="0"/>
        </Event>
        <Event>
            <Absolute>45120</Absolute>
            <NoteOn Channel="1" Note="48" Velocity="107"/>
        </Event>
        <Event>
            <Absolute>45255</Absolute>
            <NoteOff Channel="1" Note="48" Velocity="0"/>
        </Event>
        <Event>
            <Absolute>45600</Absolute>
            <NoteOn Channel="1" Note="50" Velocity="116"/>
        </Event>
        <Event>
            <Absolute>45706</Absolute>
            <NoteOff Channel="1" Note="50" Velocity="0"/>
        </Event>
        <Event>
            <Absolute>45880</Absolute>
            <NoteOn Channel="1" Note="50" Velocity="109"/>
        </Event>
        <Event>
            <Absolute>45962</Absolute>
            <NoteOff Channel="1" Note="50" Velocity="0"/>
        </Event>
        <Event>
            <Absolute>46080</Absolute>
            <NoteOn Channel="1" Note="48" Velocity="107"/>
        </Event>
        <Event>
            <Absolute>46205</Absolute>
            <NoteOff Channel="1" Note="48" Velocity="0"/>
        </Event>
        <Event>
            <Absolute>46560</Absolute>
            <NoteOn Channel="1" Note="50" Velocity="116"/>
        </Event>
        <Event>
            <Absolute>46658</Absolute>
            <NoteOff Channel="1" Note="50" Velocity="0"/>
        </Event>
        <Event>
            <Absolute>46840</Absolute>
            <NoteOn Channel="1" Note="48" Velocity="98"/>
        </Event>
        <Event>
            <Absolute>46915</Absolute>
            <NoteOff Channel="1" Note="48" Velocity="0"/>
        </Event>
        <Event>
            <Absolute>47040</Absolute>
            <NoteOn Channel="1" Note="48" Velocity="107"/>
        </Event>
        <Event>
            <Absolute>47128</Absolute>
            <NoteOff Channel="1" Note="48" Velocity="0"/>
        </Event>
        <Event>
            <Absolute>47520</Absolute>
            <NoteOn Channel="1" Note="50" Velocity="108"/>
        </Event>
        <Event>
            <Absolute>47604</Absolute>
            <NoteOff Channel="1" Note="50" Velocity="0"/>
        </Event>
        <Event>
            <Absolute>47800</Absolute>
            <NoteOn Channel="1" Note="50" Velocity="103"/>
        </Event>
        <Event>
            <Absolute>47884</Absolute>
            <NoteOff Channel="1" Note="50" Velocity="0"/>
        </Event>
        <Event>
            <Absolute>48000</Absolute>
            <NoteOn Channel="1" Note="48" Velocity="110"/>
        </Event>
        <Event>
            <Absolute>48095</Absolute>
            <NoteOff Channel="1" Note="48" Velocity="0"/>
        </Event>
        <Event>
            <Absolute>48480</Absolute>
            <NoteOn Channel="1" Note="50" Velocity="112"/>
        </Event>
        <Event>
            <Absolute>48578</Absolute>
            <NoteOff Channel="1" Note="50" Velocity="0"/>
        </Event>
        <Event>
            <Absolute>48760</Absolute>
            <NoteOn Channel="1" Note="48" Velocity="100"/>
        </Event>
        <Event>
            <Absolute>48830</Absolute>
            <NoteOff Channel="1" Note="48" Velocity="0"/>
        </Event>
        <Event>
            <Absolute>48960</Absolute>
            <NoteOn Channel="1" Note="48" Velocity="107"/>
        </Event>
        <Event>
            <Absolute>49032</Absolute>
            <NoteOff Channel="1" Note="48" Velocity="0"/>
        </Event>
        <Event>
            <Absolute>49440</Absolute>
            <NoteOn Channel="1" Note="50" Velocity="114"/>
        </Event>
        <Event>
            <Absolute>49519</Absolute>
            <NoteOff Channel="1" Note="50" Velocity="0"/>
        </Event>
        <Event>
            <Absolute>49720</Absolute>
            <NoteOn Channel="1" Note="50" Velocity="107"/>
        </Event>
        <Event>
            <Absolute>49789</Absolute>
            <NoteOff Channel="1" Note="50" Velocity="0"/>
        </Event>
        <Event>
            <Absolute>49920</Absolute>
            <NoteOn Channel="1" Note="48" Velocity="113"/>
        </Event>
        <Event>
            <Absolute>50029</Absolute>
            <NoteOff Channel="1" Note="48" Velocity="0"/>
        </Event>
        <Event>
            <Absolute>50400</Absolute>
            <NoteOn Channel="1" Note="50" Velocity="115"/>
        </Event>
        <Event>
            <Absolute>50513</Absolute>
            <NoteOff Channel="1" Note="50" Velocity="0"/>
        </Event>
        <Event>
            <Absolute>50680</Absolute>
            <NoteOn Channel="1" Note="48" Velocity="108"/>
        </Event>
        <Event>
            <Absolute>50751</Absolute>
            <NoteOff Channel="1" Note="48" Velocity="0"/>
        </Event>
        <Event>
            <Absolute>50880</Absolute>
            <NoteOn Channel="1" Note="48" Velocity="110"/>
        </Event>
        <Event>
            <Absolute>50963</Absolute>
            <NoteOff Channel="1" Note="48" Velocity="0"/>
        </Event>
        <Event>
            <Absolute>51360</Absolute>
            <NoteOn Channel="1" Note="50" Velocity="113"/>
        </Event>
        <Event>
            <Absolute>51453</Absolute>
            <NoteOff Channel="1" Note="50" Velocity="0"/>
        </Event>
        <Event>
            <Absolute>51640</Absolute>
            <NoteOn Channel="1" Note="50" Velocity="109"/>
        </Event>
        <Event>
            <Absolute>51734</Absolute>
            <NoteOff Channel="1" Note="50" Velocity="0"/>
        </Event>
        <Event>
            <Absolute>51840</Absolute>
            <NoteOn Channel="1" Note="48" Velocity="109"/>
        </Event>
        <Event>
            <Absolute>51971</Absolute>
            <NoteOff Channel="1" Note="48" Velocity="0"/>
        </Event>
        <Event>
            <Absolute>52320</Absolute>
            <NoteOn Channel="1" Note="50" Velocity="116"/>
        </Event>
        <Event>
            <Absolute>52419</Absolute>
            <NoteOff Channel="1" Note="50" Velocity="0"/>
        </Event>
        <Event>
            <Absolute>52600</Absolute>
            <NoteOn Channel="1" Note="48" Velocity="91"/>
        </Event>
        <Event>
            <Absolute>52668</Absolute>
            <NoteOff Channel="1" Note="48" Velocity="0"/>
        </Event>
        <Event>
            <Absolute>52800</Absolute>
            <NoteOn Channel="1" Note="48" Velocity="102"/>
        </Event>
        <Event>
            <Absolute>52916</Absolute>
            <NoteOff Channel="1" Note="48" Velocity="0"/>
        </Event>
        <Event>
            <Absolute>53280</Absolute>
            <NoteOn Channel="1" Note="50" Velocity="109"/>
        </Event>
        <Event>
            <Absolute>53383</Absolute>
            <NoteOff Channel="1" Note="50" Velocity="0"/>
        </Event>
        <Event>
            <Absolute>53560</Absolute>
            <NoteOn Channel="1" Note="50" Velocity="99"/>
        </Event>
        <Event>
            <Absolute>53641</Absolute>
            <NoteOff Channel="1" Note="50" Velocity="0"/>
        </Event>
        <Event>
            <Absolute>53760</Absolute>
            <NoteOn Channel="1" Note="48" Velocity="105"/>
        </Event>
        <Event>
            <Absolute>53902</Absolute>
            <NoteOff Channel="1" Note="48" Velocity="0"/>
        </Event>
        <Event>
            <Absolute>54240</Absolute>
            <NoteOn Channel="1" Note="50" Velocity="113"/>
        </Event>
        <Event>
            <Absolute>54347</Absolute>
            <NoteOff Channel="1" Note="50" Velocity="0"/>
        </Event>
        <Event>
            <Absolute>54520</Absolute>
            <NoteOn Channel="1" Note="48" Velocity="93"/>
        </Event>
        <Event>
            <Absolute>54594</Absolute>
            <NoteOff Channel="1" Note="48" Velocity="0"/>
        </Event>
        <Event>
            <Absolute>54720</Absolute>
            <NoteOn Channel="1" Note="48" Velocity="110"/>
        </Event>
        <Event>
            <Absolute>54845</Absolute>
            <NoteOff Channel="1" Note="48" Velocity="0"/>
        </Event>
        <Event>
            <Absolute>55200</Absolute>
            <NoteOn Channel="1" Note="50" Velocity="101"/>
        </Event>
        <Event>
            <Absolute>55292</Absolute>
            <NoteOff Channel="1" Note="50" Velocity="0"/>
        </Event>
        <Event>
            <Absolute>55480</Absolute>
            <NoteOn Channel="1" Note="50" Velocity="99"/>
        </Event>
        <Event>
            <Absolute>55581</Absolute>
            <NoteOff Channel="1" Note="50" Velocity="0"/>
        </Event>
        <Event>
            <Absolute>55680</Absolute>
            <NoteOn Channel="1" Note="48" Velocity="97"/>
        </Event>
        <Event>
            <Absolute>55838</Absolute>
            <NoteOff Channel="1" Note="48" Velocity="0"/>
        </Event>
        <Event>
            <Absolute>56160</Absolute>
            <NoteOn Channel="1" Note="50" Velocity="103"/>
        </Event>
        <Event>
            <Absolute>56286</Absolute>
            <NoteOff Channel="1" Note="50" Velocity="0"/>
        </Event>
        <Event>
            <Absolute>56440</Absolute>
            <NoteOn Channel="1" Note="48" Velocity="78"/>
        </Event>
        <Event>
            <Absolute>56522</Absolute>
            <NoteOff Channel="1" Note="48" Velocity="0"/>
        </Event>
        <Event>
            <Absolute>56640</Absolute>
            <NoteOn Channel="1" Note="48" Velocity="117"/>
        </Event>
        <Event>
            <Absolute>56752</Absolute>
            <NoteOff Channel="1" Note="48" Velocity="0"/>
        </Event>
        <Event>
            <Absolute>57120</Absolute>
            <NoteOn Channel="1" Note="50" Velocity="111"/>
        </Event>
        <Event>
            <Absolute>57208</Absolute>
            <NoteOff Channel="1" Note="50" Velocity="0"/>
        </Event>
        <Event>
            <Absolute>57400</Absolute>
            <NoteOn Channel="1" Note="50" Velocity="72"/>
        </Event>
        <Event>
            <Absolute>57486</Absolute>
            <NoteOff Channel="1" Note="50" Velocity="0"/>
        </Event>
        <Event>
            <Absolute>57600</Absolute>
            <NoteOn Channel="1" Note="48" Velocity="106"/>
        </Event>
        <Event>
            <Absolute>57763</Absolute>
            <NoteOff Channel="1" Note="48" Velocity="0"/>
        </Event>
        <Event>
            <Absolute>58080</Absolute>
            <NoteOn Channel="1" Note="50" Velocity="116"/>
        </Event>
        <Event>
            <Absolute>58180</Absolute>
            <NoteOff Channel="1" Note="50" Velocity="0"/>
        </Event>
        <Event>
            <Absolute>58360</Absolute>
            <NoteOn Channel="1" Note="48" Velocity="107"/>
        </Event>
        <Event>
            <Absolute>58438</Absolute>
            <NoteOff Channel="1" Note="48" Velocity="0"/>
        </Event>
        <Event>
            <Absolute>58560</Absolute>
            <NoteOn Channel="1" Note="48" Velocity="112"/>
        </Event>
        <Event>
            <Absolute>58682</Absolute>
            <NoteOff Channel="1" Note="48" Velocity="0"/>
        </Event>
        <Event>
            <Absolute>59040</Absolute>
            <NoteOn Channel="1" Note="50" Velocity="114"/>
        </Event>
        <Event>
            <Absolute>59139</Absolute>
            <NoteOff Channel="1" Note="50" Velocity="0"/>
        </Event>
        <Event>
            <Absolute>59320</Absolute>
            <NoteOn Channel="1" Note="50" Velocity="105"/>
        </Event>
        <Event>
            <Absolute>59412</Absolute>
            <NoteOff Channel="1" Note="50" Velocity="0"/>
        </Event>
        <Event>
            <Absolute>59520</Absolute>
            <NoteOn Channel="1" Note="48" Velocity="106"/>
        </Event>
        <Event>
            <Absolute>59666</Absolute>
            <NoteOff Channel="1" Note="48" Velocity="0"/>
        </Event>
        <Event>
            <Absolute>60000</Absolute>
            <NoteOn Channel="1" Note="50" Velocity="116"/>
        </Event>
        <Event>
            <Absolute>60100</Absolute>
            <NoteOff Channel="1" Note="50" Velocity="0"/>
        </Event>
        <Event>
            <Absolute>60280</Absolute>
            <NoteOn Channel="1" Note="48" Velocity="94"/>
        </Event>
        <Event>
            <Absolute>60348</Absolute>
            <NoteOff Channel="1" Note="48" Velocity="0"/>
        </Event>
        <Event>
            <Absolute>60480</Absolute>
            <NoteOn Channel="1" Note="48" Velocity="100"/>
        </Event>
        <Event>
            <Absolute>60626</Absolute>
            <NoteOff Channel="1" Note="48" Velocity="0"/>
        </Event>
        <Event>
            <Absolute>60960</Absolute>
            <NoteOn Channel="1" Note="50" Velocity="114"/>
        </Event>
        <Event>
            <Absolute>61056</Absolute>
            <NoteOff Channel="1" Note="50" Velocity="0"/>
        </Event>
        <Event>
            <Absolute>61240</Absolute>
            <NoteOn Channel="1" Note="50" Velocity="114"/>
        </Event>
        <Event>
            <Absolute>61323</Absolute>
            <NoteOff Channel="1" Note="50" Velocity="0"/>
        </Event>
        <Event>
            <Absolute>61440</Absolute>
            <NoteOn Channel="1" Note="48" Velocity="89"/>
        </Event>
        <Event>
            <Absolute>61440</Absolute>
            <NoteOn Channel="1" Note="50" Velocity="88"/>
        </Event>
        <Event>
            <Absolute>61616</Absolute>
            <NoteOff Channel="1" Note="50" Velocity="0"/>
        </Event>
        <Event>
            <Absolute>61616</Absolute>
            <NoteOff Channel="1" Note="48" Velocity="0"/>
        </Event>
        <Event>
            <Absolute>61920</Absolute>
            <NoteOn Channel="1" Note="48" Velocity="62"/>
        </Event>
        <Event>
            <Absolute>61920</Absolute>
            <NoteOn Channel="1" Note="50" Velocity="55"/>
        </Event>
        <Event>
            <Absolute>62053</Absolute>
            <NoteOff Channel="1" Note="48" Velocity="0"/>
        </Event>
        <Event>
            <Absolute>62058</Absolute>
            <NoteOff Channel="1" Note="50" Velocity="0"/>
        </Event>
        <Event>
            <Absolute>62400</Absolute>
            <NoteOn Channel="1" Note="48" Velocity="75"/>
        </Event>
        <Event>
            <Absolute>62400</Absolute>
            <NoteOn Channel="1" Note="50" Velocity="69"/>
        </Event>
        <Event>
            <Absolute>62532</Absolute>
            <NoteOff Channel="1" Note="48" Velocity="0"/>
        </Event>
        <Event>
            <Absolute>62534</Absolute>
            <NoteOff Channel="1" Note="50" Velocity="0"/>
        </Event>
        <Event>
            <Absolute>62880</Absolute>
            <NoteOn Channel="1" Note="48" Velocity="84"/>
        </Event>
        <Event>
            <Absolute>62880</Absolute>
            <NoteOn Channel="1" Note="50" Velocity="84"/>
        </Event>
        <Event>
            <Absolute>62995</Absolute>
            <NoteOff Channel="1" Note="48" Velocity="0"/>
        </Event>
        <Event>
            <Absolute>63009</Absolute>
            <NoteOff Channel="1" Note="50" Velocity="0"/>
        </Event>
        <Event>
            <Absolute>63360</Absolute>
            <NoteOn Channel="1" Note="48" Velocity="92"/>
        </Event>
        <Event>
            <Absolute>63360</Absolute>
            <NoteOn Channel="1" Note="50" Velocity="88"/>
        </Event>
        <Event>
            <Absolute>63497</Absolute>
            <NoteOff Channel="1" Note="50" Velocity="0"/>
        </Event>
        <Event>
            <Absolute>63497</Absolute>
            <NoteOff Channel="1" Note="48" Velocity="0"/>
        </Event>
        <Event>
            <Absolute>63840</Absolute>
            <NoteOn Channel="1" Note="48" Velocity="88"/>
        </Event>
        <Event>
            <Absolute>63840</Absolute>
            <NoteOn Channel="1" Note="50" Velocity="82"/>
        </Event>
        <Event>
            <Absolute>63970</Absolute>
            <NoteOff Channel="1" Note="50" Velocity="0"/>
        </Event>
        <Event>
            <Absolute>63973</Absolute>
            <NoteOff Channel="1" Note="48" Velocity="0"/>
        </Event>
        <Event>
            <Absolute>64320</Absolute>
            <NoteOn Channel="1" Note="48" Velocity="91"/>
        </Event>
        <Event>
            <Absolute>64320</Absolute>
            <NoteOn Channel="1" Note="50" Velocity="84"/>
        </Event>
        <Event>
            <Absolute>64440</Absolute>
            <NoteOff Channel="1" Note="50" Velocity="0"/>
        </Event>
        <Event>
            <Absolute>64444</Absolute>
            <NoteOff Channel="1" Note="48" Velocity="0"/>
        </Event>
        <Event>
            <Absolute>64800</Absolute>
            <NoteOn Channel="1" Note="48" Velocity="93"/>
        </Event>
        <Event>
            <Absolute>64800</Absolute>
            <NoteOn Channel="1" Note="50" Velocity="89"/>
        </Event>
        <Event>
            <Absolute>64936</Absolute>
            <NoteOff Channel="1" Note="48" Velocity="0"/>
        </Event>
        <Event>
            <Absolute>64936</Absolute>
            <NoteOff Channel="1" Note="50" Velocity="0"/>
        </Event>
        <Event>
            <Absolute>65280</Absolute>
            <NoteOn Channel="1" Note="48" Velocity="85"/>
        </Event>
        <Event>
            <Absolute>65280</Absolute>
            <NoteOn Channel="1" Note="50" Velocity="82"/>
        </Event>
        <Event>
            <Absolute>65388</Absolute>
            <NoteOff Channel="1" Note="50" Velocity="0"/>
        </Event>
        <Event>
            <Absolute>65394</Absolute>
            <NoteOff Channel="1" Note="48" Velocity="0"/>
        </Event>
        <Event>
            <Absolute>65760</Absolute>
            <NoteOn Channel="1" Note="48" Velocity="89"/>
        </Event>
        <Event>
            <Absolute>65760</Absolute>
            <NoteOn Channel="1" Note="50" Velocity="85"/>
        </Event>
        <Event>
            <Absolute>65874</Absolute>
            <NoteOff Channel="1" Note="48" Velocity="0"/>
        </Event>
        <Event>
            <Absolute>65874</Absolute>
            <NoteOff Channel="1" Note="50" Velocity="0"/>
        </Event>
        <Event>
            <Absolute>66240</Absolute>
            <NoteOn Channel="1" Note="48" Velocity="85"/>
        </Event>
        <Event>
            <Absolute>66240</Absolute>
            <NoteOn Channel="1" Note="50" Velocity="82"/>
        </Event>
        <Event>
            <Absolute>66363</Absolute>
            <NoteOff Channel="1" Note="50" Velocity="0"/>
        </Event>
        <Event>
            <Absolute>66365</Absolute>
            <NoteOff Channel="1" Note="48" Velocity="0"/>
        </Event>
        <Event>
            <Absolute>66720</Absolute>
            <NoteOn Channel="1" Note="48" Velocity="88"/>
        </Event>
        <Event>
            <Absolute>66720</Absolute>
            <NoteOn Channel="1" Note="50" Velocity="87"/>
        </Event>
        <Event>
            <Absolute>66863</Absolute>
            <NoteOff Channel="1" Note="50" Velocity="0"/>
        </Event>
        <Event>
            <Absolute>66865</Absolute>
            <NoteOff Channel="1" Note="48" Velocity="0"/>
        </Event>
        <Event>
            <Absolute>67200</Absolute>
            <NoteOn Channel="1" Note="48" Velocity="86"/>
        </Event>
        <Event>
            <Absolute>67200</Absolute>
            <NoteOn Channel="1" Note="50" Velocity="83"/>
        </Event>
        <Event>
            <Absolute>67339</Absolute>
            <NoteOff Channel="1" Note="48" Velocity="0"/>
        </Event>
        <Event>
            <Absolute>67339</Absolute>
            <NoteOff Channel="1" Note="50" Velocity="0"/>
        </Event>
        <Event>
            <Absolute>67680</Absolute>
            <NoteOn Channel="1" Note="48" Velocity="90"/>
        </Event>
        <Event>
            <Absolute>67680</Absolute>
            <NoteOn Channel="1" Note="50" Velocity="92"/>
        </Event>
        <Event>
            <Absolute>67803</Absolute>
            <NoteOff Channel="1" Note="50" Velocity="0"/>
        </Event>
        <Event>
            <Absolute>67805</Absolute>
            <NoteOff Channel="1" Note="48" Velocity="0"/>
        </Event>
        <Event>
            <Absolute>68160</Absolute>
            <NoteOn Channel="1" Note="48" Velocity="84"/>
        </Event>
        <Event>
            <Absolute>68160</Absolute>
            <NoteOn Channel="1" Note="50" Velocity="87"/>
        </Event>
        <Event>
            <Absolute>68269</Absolute>
            <NoteOff Channel="1" Note="50" Velocity="0"/>
        </Event>
        <Event>
            <Absolute>68271</Absolute>
            <NoteOff Channel="1" Note="48" Velocity="0"/>
        </Event>
        <Event>
            <Absolute>68640</Absolute>
            <NoteOn Channel="1" Note="48" Velocity="83"/>
        </Event>
        <Event>
            <Absolute>68640</Absolute>
            <NoteOn Channel="1" Note="50" Velocity="83"/>
        </Event>
        <Event>
            <Absolute>68744</Absolute>
            <NoteOff Channel="1" Note="50" Velocity="0"/>
        </Event>
        <Event>
            <Absolute>68745</Absolute>
            <NoteOff Channel="1" Note="48" Velocity="0"/>
        </Event>
        <Event>
            <Absolute>69120</Absolute>
            <NoteOn Channel="1" Note="48" Velocity="82"/>
        </Event>
        <Event>
            <Absolute>69120</Absolute>
            <NoteOn Channel="1" Note="50" Velocity="88"/>
        </Event>
        <Event>
            <Absolute>69216</Absolute>
            <NoteOff Channel="1" Note="50" Velocity="0"/>
        </Event>
        <Event>
            <Absolute>69221</Absolute>
            <NoteOff Channel="1" Note="48" Velocity="0"/>
        </Event>
        <Event>
            <Absolute>69600</Absolute>
            <NoteOn Channel="1" Note="48" Velocity="92"/>
        </Event>
        <Event>
            <Absolute>69600</Absolute>
            <NoteOn Channel="1" Note="50" Velocity="85"/>
        </Event>
        <Event>
            <Absolute>69697</Absolute>
            <NoteOff Channel="1" Note="50" Velocity="0"/>
        </Event>
        <Event>
            <Absolute>69703</Absolute>
            <NoteOff Channel="1" Note="48" Velocity="0"/>
        </Event>
        <Event>
            <Absolute>70080</Absolute>
            <NoteOn Channel="1" Note="48" Velocity="100"/>
        </Event>
        <Event>
            <Absolute>70080</Absolute>
            <NoteOn Channel="1" Note="50" Velocity="95"/>
        </Event>
        <Event>
            <Absolute>70181</Absolute>
            <NoteOff Channel="1" Note="50" Velocity="0"/>
        </Event>
        <Event>
            <Absolute>70183</Absolute>
            <NoteOff Channel="1" Note="48" Velocity="0"/>
        </Event>
        <Event>
            <Absolute>70560</Absolute>
            <NoteOn Channel="1" Note="48" Velocity="102"/>
        </Event>
        <Event>
            <Absolute>70560</Absolute>
            <NoteOn Channel="1" Note="50" Velocity="98"/>
        </Event>
        <Event>
            <Absolute>70656</Absolute>
            <NoteOff Channel="1" Note="50" Velocity="0"/>
        </Event>
        <Event>
            <Absolute>70657</Absolute>
            <NoteOff Channel="1" Note="48" Velocity="0"/>
        </Event>
        <Event>
            <Absolute>71040</Absolute>
            <NoteOn Channel="1" Note="48" Velocity="95"/>
        </Event>
        <Event>
            <Absolute>71040</Absolute>
            <NoteOn Channel="1" Note="50" Velocity="89"/>
        </Event>
        <Event>
            <Absolute>71143</Absolute>
            <NoteOff Channel="1" Note="48" Velocity="0"/>
        </Event>
        <Event>
            <Absolute>71143</Absolute>
            <NoteOff Channel="1" Note="50" Velocity="0"/>
        </Event>
        <Event>
            <Absolute>71520</Absolute>
            <NoteOn Channel="1" Note="48" Velocity="103"/>
        </Event>
        <Event>
            <Absolute>71520</Absolute>
            <NoteOn Channel="1" Note="50" Velocity="100"/>
        </Event>
        <Event>
            <Absolute>71615</Absolute>
            <NoteOff Channel="1" Note="50" Velocity="0"/>
        </Event>
        <Event>
            <Absolute>71618</Absolute>
            <NoteOff Channel="1" Note="48" Velocity="0"/>
        </Event>
        <Event>
            <Absolute>72000</Absolute>
            <NoteOn Channel="1" Note="48" Velocity="102"/>
        </Event>
        <Event>
            <Absolute>72000</Absolute>
            <NoteOn Channel="1" Note="50" Velocity="99"/>
        </Event>
        <Event>
            <Absolute>72080</Absolute>
            <NoteOff Channel="1" Note="48" Velocity="0"/>
        </Event>
        <Event>
            <Absolute>72084</Absolute>
            <NoteOff Channel="1" Note="50" Velocity="0"/>
        </Event>
        <Event>
            <Absolute>72480</Absolute>
            <NoteOn Channel="1" Note="48" Velocity="108"/>
        </Event>
        <Event>
            <Absolute>72480</Absolute>
            <NoteOn Channel="1" Note="50" Velocity="105"/>
        </Event>
        <Event>
            <Absolute>72573</Absolute>
            <NoteOff Channel="1" Note="48" Velocity="0"/>
        </Event>
        <Event>
            <Absolute>72573</Absolute>
            <NoteOff Channel="1" Note="50" Velocity="0"/>
        </Event>
        <Event>
            <Absolute>72960</Absolute>
            <NoteOn Channel="1" Note="48" Velocity="111"/>
        </Event>
        <Event>
            <Absolute>72960</Absolute>
            <NoteOn Channel="1" Note="50" Velocity="106"/>
        </Event>
        <Event>
            <Absolute>73030</Absolute>
            <NoteOff Channel="1" Note="50" Velocity="0"/>
        </Event>
        <Event>
            <Absolute>73034</Absolute>
            <NoteOff Channel="1" Note="48" Velocity="0"/>
        </Event>
        <Event>
            <Absolute>73440</Absolute>
            <NoteOn Channel="1" Note="48" Velocity="96"/>
        </Event>
        <Event>
            <Absolute>73440</Absolute>
            <NoteOn Channel="1" Note="50" Velocity="91"/>
        </Event>
        <Event>
            <Absolute>73529</Absolute>
            <NoteOff Channel="1" Note="48" Velocity="0"/>
        </Event>
        <Event>
            <Absolute>73533</Absolute>
            <NoteOff Channel="1" Note="50" Velocity="0"/>
        </Event>
        <Event>
            <Absolute>73920</Absolute>
            <NoteOn Channel="1" Note="48" Velocity="104"/>
        </Event>
        <Event>
            <Absolute>73920</Absolute>
            <NoteOn Channel="1" Note="50" Velocity="99"/>
        </Event>
        <Event>
            <Absolute>73994</Absolute>
            <NoteOff Channel="1" Note="50" Velocity="0"/>
        </Event>
        <Event>
            <Absolute>73996</Absolute>
            <NoteOff Channel="1" Note="48" Velocity="0"/>
        </Event>
        <Event>
            <Absolute>74400</Absolute>
            <NoteOn Channel="1" Note="48" Velocity="106"/>
        </Event>
        <Event>
            <Absolute>74400</Absolute>
            <NoteOn Channel="1" Note="50" Velocity="104"/>
        </Event>
        <Event>
            <Absolute>74488</Absolute>
            <NoteOff Channel="1" Note="50" Velocity="0"/>
        </Event>
        <Event>
            <Absolute>74493</Absolute>
            <NoteOff Channel="1" Note="48" Velocity="0"/>
        </Event>
        <Event>
            <Absolute>74880</Absolute>
            <NoteOn Channel="1" Note="48" Velocity="107"/>
        </Event>
        <Event>
            <Absolute>74880</Absolute>
            <NoteOn Channel="1" Note="50" Velocity="102"/>
        </Event>
        <Event>
            <Absolute>74977</Absolute>
            <NoteOff Channel="1" Note="50" Velocity="0"/>
        </Event>
        <Event>
            <Absolute>74980</Absolute>
            <NoteOff Channel="1" Note="48" Velocity="0"/>
        </Event>
        <Event>
            <Absolute>75360</Absolute>
            <NoteOn Channel="1" Note="48" Velocity="102"/>
        </Event>
        <Event>
            <Absolute>75360</Absolute>
            <NoteOn Channel="1" Note="50" Velocity="97"/>
        </Event>
        <Event>
            <Absolute>75449</Absolute>
            <NoteOff Channel="1" Note="50" Velocity="0"/>
        </Event>
        <Event>
            <Absolute>75453</Absolute>
            <NoteOff Channel="1" Note="48" Velocity="0"/>
        </Event>
        <Event>
            <Absolute>75840</Absolute>
            <NoteOn Channel="1" Note="48" Velocity="112"/>
        </Event>
        <Event>
            <Absolute>75840</Absolute>
            <NoteOn Channel="1" Note="50" Velocity="108"/>
        </Event>
        <Event>
            <Absolute>75919</Absolute>
            <NoteOff Channel="1" Note="50" Velocity="0"/>
        </Event>
        <Event>
            <Absolute>75926</Absolute>
            <NoteOff Channel="1" Note="48" Velocity="0"/>
        </Event>
        <Event>
            <Absolute>76320</Absolute>
            <NoteOn Channel="1" Note="48" Velocity="111"/>
        </Event>
        <Event>
            <Absolute>76320</Absolute>
            <NoteOn Channel="1" Note="50" Velocity="106"/>
        </Event>
        <Event>
            <Absolute>76406</Absolute>
            <NoteOff Channel="1" Note="50" Velocity="0"/>
        </Event>
        <Event>
            <Absolute>76409</Absolute>
            <NoteOff Channel="1" Note="48" Velocity="0"/>
        </Event>
        <Event>
            <Absolute>76800</Absolute>
            <NoteOn Channel="1" Note="48" Velocity="94"/>
        </Event>
        <Event>
            <Absolute>76800</Absolute>
            <NoteOn Channel="1" Note="50" Velocity="82"/>
        </Event>
        <Event>
            <Absolute>76923</Absolute>
            <NoteOff Channel="1" Note="48" Velocity="0"/>
        </Event>
        <Event>
            <Absolute>76932</Absolute>
            <NoteOff Channel="1" Note="50" Velocity="0"/>
        </Event>
        <Event>
            <Absolute>77080</Absolute>
            <NoteOn Channel="1" Note="48" Velocity="67"/>
        </Event>
        <Event>
            <Absolute>77080</Absolute>
            <NoteOn Channel="1" Note="50" Velocity="55"/>
        </Event>
        <Event>
            <Absolute>77169</Absolute>
            <NoteOff Channel="1" Note="48" Velocity="0"/>
        </Event>
        <Event>
            <Absolute>77169</Absolute>
            <NoteOff Channel="1" Note="50" Velocity="0"/>
        </Event>
        <Event>
            <Absolute>77280</Absolute>
            <NoteOn Channel="1" Note="48" Velocity="86"/>
        </Event>
        <Event>
            <Absolute>77280</Absolute>
            <NoteOn Channel="1" Note="50" Velocity="73"/>
        </Event>
        <Event>
            <Absolute>77419</Absolute>
            <NoteOff Channel="1" Note="48" Velocity="0"/>
        </Event>
        <Event>
            <Absolute>77420</Absolute>
            <NoteOff Channel="1" Note="50" Velocity="0"/>
        </Event>
        <Event>
            <Absolute>77560</Absolute>
            <NoteOn Channel="1" Note="48" Velocity="82"/>
        </Event>
        <Event>
            <Absolute>77560</Absolute>
            <NoteOn Channel="1" Note="50" Velocity="57"/>
        </Event>
        <Event>
            <Absolute>77653</Absolute>
            <NoteOff Channel="1" Note="50" Velocity="0"/>
        </Event>
        <Event>
            <Absolute>77661</Absolute>
            <NoteOff Channel="1" Note="48" Velocity="0"/>
        </Event>
        <Event>
            <Absolute>77760</Absolute>
            <NoteOn Channel="1" Note="48" Velocity="85"/>
        </Event>
        <Event>
            <Absolute>77760</Absolute>
            <NoteOn Channel="1" Note="50" Velocity="76"/>
        </Event>
        <Event>
            <Absolute>77907</Absolute>
            <NoteOff Channel="1" Note="48" Velocity="0"/>
        </Event>
        <Event>
            <Absolute>77921</Absolute>
            <NoteOff Channel="1" Note="50" Velocity="0"/>
        </Event>
        <Event>
            <Absolute>78040</Absolute>
            <NoteOn Channel="1" Note="48" Velocity="84"/>
        </Event>
        <Event>
            <Absolute>78040</Absolute>
            <NoteOn Channel="1" Note="50" Velocity="57"/>
        </Event>
        <Event>
            <Absolute>78130</Absolute>
            <NoteOff Channel="1" Note="48" Velocity="0"/>
        </Event>
        <Event>
            <Absolute>78139</Absolute>
            <NoteOff Channel="1" Note="50" Velocity="0"/>
        </Event>
        <Event>
            <Absolute>78240</Absolute>
            <NoteOn Channel="1" Note="48" Velocity="85"/>
        </Event>
        <Event>
            <Absolute>78240</Absolute>
            <NoteOn Channel="1" Note="50" Velocity="84"/>
        </Event>
        <Event>
            <Absolute>78381</Absolute>
            <NoteOff Channel="1" Note="48" Velocity="0"/>
        </Event>
        <Event>
            <Absolute>78389</Absolute>
            <NoteOff Channel="1" Note="50" Velocity="0"/>
        </Event>
        <Event>
            <Absolute>78520</Absolute>
            <NoteOn Channel="1" Note="48" Velocity="69"/>
        </Event>
        <Event>
            <Absolute>78520</Absolute>
            <NoteOn Channel="1" Note="50" Velocity="52"/>
        </Event>
        <Event>
            <Absolute>78611</Absolute>
            <NoteOff Channel="1" Note="48" Velocity="0"/>
        </Event>
        <Event>
            <Absolute>78625</Absolute>
            <NoteOff Channel="1" Note="50" Velocity="0"/>
        </Event>
        <Event>
            <Absolute>78720</Absolute>
            <NoteOn Channel="1" Note="48" Velocity="90"/>
        </Event>
        <Event>
            <Absolute>78720</Absolute>
            <NoteOn Channel="1" Note="50" Velocity="88"/>
        </Event>
        <Event>
            <Absolute>78853</Absolute>
            <NoteOff Channel="1" Note="50" Velocity="0"/>
        </Event>
        <Event>
            <Absolute>78864</Absolute>
            <NoteOff Channel="1" Note="48" Velocity="0"/>
        </Event>
        <Event>
            <Absolute>79000</Absolute>
            <NoteOn Channel="1" Note="48" Velocity="78"/>
        </Event>
        <Event>
            <Absolute>79000</Absolute>
            <NoteOn Channel="1" Note="50" Velocity="60"/>
        </Event>
        <Event>
            <Absolute>79086</Absolute>
            <NoteOff Channel="1" Note="50" Velocity="0"/>
        </Event>
        <Event>
            <Absolute>79087</Absolute>
            <NoteOff Channel="1" Note="48" Velocity="0"/>
        </Event>
        <Event>
            <Absolute>79200</Absolute>
            <NoteOn Channel="1" Note="48" Velocity="83"/>
        </Event>
        <Event>
            <Absolute>79200</Absolute>
            <NoteOn Channel="1" Note="50" Velocity="81"/>
        </Event>
        <Event>
            <Absolute>79345</Absolute>
            <NoteOff Channel="1" Note="50" Velocity="0"/>
        </Event>
        <Event>
            <Absolute>79351</Absolute>
            <NoteOff Channel="1" Note="48" Velocity="0"/>
        </Event>
        <Event>
            <Absolute>79480</Absolute>
            <NoteOn Channel="1" Note="48" Velocity="56"/>
        </Event>
        <Event>
            <Absolute>79480</Absolute>
            <NoteOn Channel="1" Note="50" Velocity="44"/>
        </Event>
        <Event>
            <Absolute>79569</Absolute>
            <NoteOff Channel="1" Note="48" Velocity="0"/>
        </Event>
        <Event>
            <Absolute>79579</Absolute>
            <NoteOff Channel="1" Note="50" Velocity="0"/>
        </Event>
        <Event>
            <Absolute>79680</Absolute>
            <NoteOn Channel="1" Note="48" Velocity="93"/>
        </Event>
        <Event>
            <Absolute>79680</Absolute>
            <NoteOn Channel="1" Note="50" Velocity="86"/>
        </Event>
        <Event>
            <Absolute>79832</Absolute>
            <NoteOff Channel="1" Note="50" Velocity="0"/>
        </Event>
        <Event>
            <Absolute>79833</Absolute>
            <NoteOff Channel="1" Note="48" Velocity="0"/>
        </Event>
        <Event>
            <Absolute>79960</Absolute>
            <NoteOn Channel="1" Note="48" Velocity="82"/>
        </Event>
        <Event>
            <Absolute>79960</Absolute>
            <NoteOn Channel="1" Note="50" Velocity="75"/>
        </Event>
        <Event>
            <Absolute>80029</Absolute>
            <NoteOff Channel="1" Note="50" Velocity="0"/>
        </Event>
        <Event>
            <Absolute>80032</Absolute>
            <NoteOff Channel="1" Note="48" Velocity="0"/>
        </Event>
        <Event>
            <Absolute>80160</Absolute>
            <NoteOn Channel="1" Note="48" Velocity="92"/>
        </Event>
        <Event>
            <Absolute>80160</Absolute>
            <NoteOn Channel="1" Note="50" Velocity="69"/>
        </Event>
        <Event>
            <Absolute>80271</Absolute>
            <NoteOff Channel="1" Note="50" Velocity="0"/>
        </Event>
        <Event>
            <Absolute>80291</Absolute>
            <NoteOff Channel="1" Note="48" Velocity="0"/>
        </Event>
        <Event>
            <Absolute>80440</Absolute>
            <NoteOn Channel="1" Note="48" Velocity="90"/>
        </Event>
        <Event>
            <Absolute>80440</Absolute>
            <NoteOn Channel="1" Note="50" Velocity="59"/>
        </Event>
        <Event>
            <Absolute>80533</Absolute>
            <NoteOff Channel="1" Note="50" Velocity="0"/>
        </Event>
        <Event>
            <Absolute>80543</Absolute>
            <NoteOff Channel="1" Note="48" Velocity="0"/>
        </Event>
        <Event>
            <Absolute>80640</Absolute>
            <NoteOn Channel="1" Note="48" Velocity="98"/>
        </Event>
        <Event>
            <Absolute>80640</Absolute>
            <NoteOn Channel="1" Note="50" Velocity="85"/>
        </Event>
        <Event>
            <Absolute>80771</Absolute>
            <NoteOff Channel="1" Note="50" Velocity="0"/>
        </Event>
        <Event>
            <Absolute>80777</Absolute>
            <NoteOff Channel="1" Note="48" Velocity="0"/>
        </Event>
        <Event>
            <Absolute>80920</Absolute>
            <NoteOn Channel="1" Note="48" Velocity="83"/>
        </Event>
        <Event>
            <Absolute>80920</Absolute>
            <NoteOn Channel="1" Note="50" Velocity="78"/>
        </Event>
        <Event>
            <Absolute>81002</Absolute>
            <NoteOff Channel="1" Note="50" Velocity="0"/>
        </Event>
        <Event>
            <Absolute>81010</Absolute>
            <NoteOff Channel="1" Note="48" Velocity="0"/>
        </Event>
        <Event>
            <Absolute>81120</Absolute>
            <NoteOn Channel="1" Note="48" Velocity="92"/>
        </Event>
        <Event>
            <Absolute>81120</Absolute>
            <NoteOn Channel="1" Note="50" Velocity="85"/>
        </Event>
        <Event>
            <Absolute>81258</Absolute>
            <NoteOff Channel="1" Note="50" Velocity="0"/>
        </Event>
        <Event>
            <Absolute>81279</Absolute>
            <NoteOff Channel="1" Note="48" Velocity="0"/>
        </Event>
        <Event>
            <Absolute>81400</Absolute>
            <NoteOn Channel="1" Note="48" Velocity="87"/>
        </Event>
        <Event>
            <Absolute>81400</Absolute>
            <NoteOn Channel="1" Note="50" Velocity="69"/>
        </Event>
        <Event>
            <Absolute>81483</Absolute>
            <NoteOff Channel="1" Note="50" Velocity="0"/>
        </Event>
        <Event>
            <Absolute>81500</Absolute>
            <NoteOff Channel="1" Note="48" Velocity="0"/>
        </Event>
        <Event>
            <Absolute>81600</Absolute>
            <NoteOn Channel="1" Note="48" Velocity="91"/>
        </Event>
        <Event>
            <Absolute>81600</Absolute>
            <NoteOn Channel="1" Note="50" Velocity="91"/>
        </Event>
        <Event>
            <Absolute>81744</Absolute>
            <NoteOff Channel="1" Note="50" Velocity="0"/>
        </Event>
        <Event>
            <Absolute>81751</Absolute>
            <NoteOff Channel="1" Note="48" Velocity="0"/>
        </Event>
        <Event>
            <Absolute>81880</Absolute>
            <NoteOn Channel="1" Note="48" Velocity="70"/>
        </Event>
        <Event>
            <Absolute>81880</Absolute>
            <NoteOn Channel="1" Note="50" Velocity="61"/>
        </Event>
        <Event>
            <Absolute>81987</Absolute>
            <NoteOff Channel="1" Note="50" Velocity="0"/>
        </Event>
        <Event>
            <Absolute>81999</Absolute>
            <NoteOff Channel="1" Note="48" Velocity="0"/>
        </Event>
        <Event>
            <Absolute>82080</Absolute>
            <NoteOn Channel="1" Note="48" Velocity="93"/>
        </Event>
        <Event>
            <Absolute>82080</Absolute>
            <NoteOn Channel="1" Note="50" Velocity="89"/>
        </Event>
        <Event>
            <Absolute>82256</Absolute>
            <NoteOff Channel="1" Note="48" Velocity="0"/>
        </Event>
        <Event>
            <Absolute>82267</Absolute>
            <NoteOff Channel="1" Note="50" Velocity="0"/>
        </Event>
        <Event>
            <Absolute>82360</Absolute>
            <NoteOn Channel="1" Note="48" Velocity="81"/>
        </Event>
        <Event>
            <Absolute>82360</Absolute>
            <NoteOn Channel="1" Note="50" Velocity="59"/>
        </Event>
        <Event>
            <Absolute>82446</Absolute>
            <NoteOff Channel="1" Note="50" Velocity="0"/>
        </Event>
        <Event>
            <Absolute>82463</Absolute>
            <NoteOff Channel="1" Note="48" Velocity="0"/>
        </Event>
        <Event>
            <Absolute>82560</Absolute>
            <NoteOn Channel="1" Note="48" Velocity="94"/>
        </Event>
        <Event>
            <Absolute>82560</Absolute>
            <NoteOn Channel="1" Note="50" Velocity="91"/>
        </Event>
        <Event>
            <Absolute>82724</Absolute>
            <NoteOff Channel="1" Note="48" Velocity="0"/>
        </Event>
        <Event>
            <Absolute>82730</Absolute>
            <NoteOff Channel="1" Note="50" Velocity="0"/>
        </Event>
        <Event>
            <Absolute>82840</Absolute>
            <NoteOn Channel="1" Note="48" Velocity="90"/>
        </Event>
        <Event>
            <Absolute>82840</Absolute>
            <NoteOn Channel="1" Note="50" Velocity="71"/>
        </Event>
        <Event>
            <Absolute>82932</Absolute>
            <NoteOff Channel="1" Note="48" Velocity="0"/>
        </Event>
        <Event>
            <Absolute>82934</Absolute>
            <NoteOff Channel="1" Note="50" Velocity="0"/>
        </Event>
        <Event>
            <Absolute>83040</Absolute>
            <NoteOn Channel="1" Note="48" Velocity="97"/>
        </Event>
        <Event>
            <Absolute>83040</Absolute>
            <NoteOn Channel="1" Note="50" Velocity="88"/>
        </Event>
        <Event>
            <Absolute>83194</Absolute>
            <NoteOff Channel="1" Note="48" Velocity="0"/>
        </Event>
        <Event>
            <Absolute>83197</Absolute>
            <NoteOff Channel="1" Note="50" Velocity="0"/>
        </Event>
        <Event>
            <Absolute>83320</Absolute>
            <NoteOn Channel="1" Note="48" Velocity="85"/>
        </Event>
        <Event>
            <Absolute>83320</Absolute>
            <NoteOn Channel="1" Note="50" Velocity="72"/>
        </Event>
        <Event>
            <Absolute>83397</Absolute>
            <NoteOff Channel="1" Note="48" Velocity="0"/>
        </Event>
        <Event>
            <Absolute>83403</Absolute>
            <NoteOff Channel="1" Note="50" Velocity="0"/>
        </Event>
        <Event>
            <Absolute>83520</Absolute>
            <NoteOn Channel="1" Note="48" Velocity="94"/>
        </Event>
        <Event>
            <Absolute>83520</Absolute>
            <NoteOn Channel="1" Note="50" Velocity="94"/>
        </Event>
        <Event>
            <Absolute>83665</Absolute>
            <NoteOff Channel="1" Note="48" Velocity="0"/>
        </Event>
        <Event>
            <Absolute>83688</Absolute>
            <NoteOff Channel="1" Note="50" Velocity="0"/>
        </Event>
        <Event>
            <Absolute>83800</Absolute>
            <NoteOn Channel="1" Note="48" Velocity="77"/>
        </Event>
        <Event>
            <Absolute>83800</Absolute>
            <NoteOn Channel="1" Note="50" Velocity="63"/>
        </Event>
        <Event>
            <Absolute>83906</Absolute>
            <NoteOff Channel="1" Note="50" Velocity="0"/>
        </Event>
        <Event>
            <Absolute>83913</Absolute>
            <NoteOff Channel="1" Note="48" Velocity="0"/>
        </Event>
        <Event>
            <Absolute>84000</Absolute>
            <NoteOn Channel="1" Note="48" Velocity="93"/>
        </Event>
        <Event>
            <Absolute>84000</Absolute>
            <NoteOn Channel="1" Note="50" Velocity="89"/>
        </Event>
        <Event>
            <Absolute>84152</Absolute>
            <NoteOff Channel="1" Note="48" Velocity="0"/>
        </Event>
        <Event>
            <Absolute>84154</Absolute>
            <NoteOff Channel="1" Note="50" Velocity="0"/>
        </Event>
        <Event>
            <Absolute>84280</Absolute>
            <NoteOn Channel="1" Note="48" Velocity="85"/>
        </Event>
        <Event>
            <Absolute>84280</Absolute>
            <NoteOn Channel="1" Note="50" Velocity="69"/>
        </Event>
        <Event>
            <Absolute>84372</Absolute>
            <NoteOff Channel="1" Note="48" Velocity="0"/>
        </Event>
        <Event>
            <Absolute>84372</Absolute>
            <NoteOff Channel="1" Note="50" Velocity="0"/>
        </Event>
        <Event>
            <Absolute>84480</Absolute>
            <NoteOn Channel="1" Note="48" Velocity="100"/>
        </Event>
        <Event>
            <Absolute>84480</Absolute>
            <NoteOn Channel="1" Note="50" Velocity="86"/>
        </Event>
        <Event>
            <Absolute>84627</Absolute>
            <NoteOff Channel="1" Note="48" Velocity="0"/>
        </Event>
        <Event>
            <Absolute>84630</Absolute>
            <NoteOff Channel="1" Note="50" Velocity="0"/>
        </Event>
        <Event>
            <Absolute>84760</Absolute>
            <NoteOn Channel="1" Note="48" Velocity="90"/>
        </Event>
        <Event>
            <Absolute>84760</Absolute>
            <NoteOn Channel="1" Note="50" Velocity="73"/>
        </Event>
        <Event>
            <Absolute>84846</Absolute>
            <NoteOff Channel="1" Note="48" Velocity="0"/>
        </Event>
        <Event>
            <Absolute>84862</Absolute>
            <NoteOff Channel="1" Note="50" Velocity="0"/>
        </Event>
        <Event>
            <Absolute>84960</Absolute>
            <NoteOn Channel="1" Note="48" Velocity="93"/>
        </Event>
        <Event>
            <Absolute>84960</Absolute>
            <NoteOn Channel="1" Note="50" Velocity="90"/>
        </Event>
        <Event>
            <Absolute>85098</Absolute>
            <NoteOff Channel="1" Note="48" Velocity="0"/>
        </Event>
        <Event>
            <Absolute>85106</Absolute>
            <NoteOff Channel="1" Note="50" Velocity="0"/>
        </Event>
        <Event>
            <Absolute>85240</Absolute>
            <NoteOn Channel="1" Note="48" Velocity="79"/>
        </Event>
        <Event>
            <Absolute>85240</Absolute>
            <NoteOn Channel="1" Note="50" Velocity="73"/>
        </Event>
        <Event>
            <Absolute>85341</Absolute>
            <NoteOff Channel="1" Note="50" Velocity="0"/>
        </Event>
        <Event>
            <Absolute>85351</Absolute>
            <NoteOff Channel="1" Note="48" Velocity="0"/>
        </Event>
        <Event>
            <Absolute>85440</Absolute>
            <NoteOn Channel="1" Note="48" Velocity="92"/>
        </Event>
        <Event>
            <Absolute>85440</Absolute>
            <NoteOn Channel="1" Note="50" Velocity="89"/>
        </Event>
        <Event>
            <Absolute>85592</Absolute>
            <NoteOff Channel="1" Note="48" Velocity="0"/>
        </Event>
        <Event>
            <Absolute>85602</Absolute>
            <NoteOff Channel="1" Note="50" Velocity="0"/>
        </Event>
        <Event>
            <Absolute>85720</Absolute>
            <NoteOn Channel="1" Note="48" Velocity="86"/>
        </Event>
        <Event>
            <Absolute>85720</Absolute>
            <NoteOn Channel="1" Note="50" Velocity="68"/>
        </Event>
        <Event>
            <Absolute>85805</Absolute>
            <NoteOff Channel="1" Note="48" Velocity="0"/>
        </Event>
        <Event>
            <Absolute>85811</Absolute>
            <NoteOff Channel="1" Note="50" Velocity="0"/>
        </Event>
        <Event>
            <Absolute>85920</Absolute>
            <NoteOn Channel="1" Note="48" Velocity="92"/>
        </Event>
        <Event>
            <Absolute>85920</Absolute>
            <NoteOn Channel="1" Note="50" Velocity="80"/>
        </Event>
        <Event>
            <Absolute>86056</Absolute>
            <NoteOff Channel="1" Note="48" Velocity="0"/>
        </Event>
        <Event>
            <Absolute>86073</Absolute>
            <NoteOff Channel="1" Note="50" Velocity="0"/>
        </Event>
        <Event>
            <Absolute>86200</Absolute>
            <NoteOn Channel="1" Note="48" Velocity="88"/>
        </Event>
        <Event>
            <Absolute>86200</Absolute>
            <NoteOn Channel="1" Note="50" Velocity="74"/>
        </Event>
        <Event>
            <Absolute>86280</Absolute>
            <NoteOff Channel="1" Note="50" Velocity="0"/>
        </Event>
        <Event>
            <Absolute>86284</Absolute>
            <NoteOff Channel="1" Note="48" Velocity="0"/>
        </Event>
        <Event>
            <Absolute>86400</Absolute>
            <NoteOn Channel="1" Note="48" Velocity="103"/>
        </Event>
        <Event>
            <Absolute>86400</Absolute>
            <NoteOn Channel="1" Note="50" Velocity="83"/>
        </Event>
        <Event>
            <Absolute>86526</Absolute>
            <NoteOff Channel="1" Note="50" Velocity="0"/>
        </Event>
        <Event>
            <Absolute>86528</Absolute>
            <NoteOff Channel="1" Note="48" Velocity="0"/>
        </Event>
        <Event>
            <Absolute>86680</Absolute>
            <NoteOn Channel="1" Note="48" Velocity="93"/>
        </Event>
        <Event>
            <Absolute>86680</Absolute>
            <NoteOn Channel="1" Note="50" Velocity="64"/>
        </Event>
        <Event>
            <Absolute>86769</Absolute>
            <NoteOff Channel="1" Note="50" Velocity="0"/>
        </Event>
        <Event>
            <Absolute>86776</Absolute>
            <NoteOff Channel="1" Note="48" Velocity="0"/>
        </Event>
        <Event>
            <Absolute>86880</Absolute>
            <NoteOn Channel="1" Note="48" Velocity="99"/>
        </Event>
        <Event>
            <Absolute>86880</Absolute>
            <NoteOn Channel="1" Note="50" Velocity="87"/>
        </Event>
        <Event>
            <Absolute>87002</Absolute>
            <NoteOff Channel="1" Note="50" Velocity="0"/>
        </Event>
        <Event>
            <Absolute>87002</Absolute>
            <NoteOff Channel="1" Note="48" Velocity="0"/>
        </Event>
        <Event>
            <Absolute>87160</Absolute>
            <NoteOn Channel="1" Note="48" Velocity="86"/>
        </Event>
        <Event>
            <Absolute>87160</Absolute>
            <NoteOn Channel="1" Note="50" Velocity="45"/>
        </Event>
        <Event>
            <Absolute>87265</Absolute>
            <NoteOff Channel="1" Note="50" Velocity="0"/>
        </Event>
        <Event>
            <Absolute>87268</Absolute>
            <NoteOff Channel="1" Note="48" Velocity="0"/>
        </Event>
        <Event>
            <Absolute>87360</Absolute>
            <NoteOn Channel="1" Note="48" Velocity="103"/>
        </Event>
        <Event>
            <Absolute>87360</Absolute>
            <NoteOn Channel="1" Note="50" Velocity="95"/>
        </Event>
        <Event>
            <Absolute>87500</Absolute>
            <NoteOff Channel="1" Note="50" Velocity="0"/>
        </Event>
        <Event>
            <Absolute>87505</Absolute>
            <NoteOff Channel="1" Note="48" Velocity="0"/>
        </Event>
        <Event>
            <Absolute>87640</Absolute>
            <NoteOn Channel="1" Note="48" Velocity="93"/>
        </Event>
        <Event>
            <Absolute>87640</Absolute>
            <NoteOn Channel="1" Note="50" Velocity="57"/>
        </Event>
        <Event>
            <Absolute>87733</Absolute>
            <NoteOff Channel="1" Note="50" Velocity="0"/>
        </Event>
        <Event>
            <Absolute>87753</Absolute>
            <NoteOff Channel="1" Note="48" Velocity="0"/>
        </Event>
        <Event>
            <Absolute>87840</Absolute>
            <NoteOn Channel="1" Note="48" Velocity="98"/>
        </Event>
        <Event>
            <Absolute>87840</Absolute>
            <NoteOn Channel="1" Note="50" Velocity="98"/>
        </Event>
        <Event>
            <Absolute>87983</Absolute>
            <NoteOff Channel="1" Note="48" Velocity="0"/>
        </Event>
        <Event>
            <Absolute>87988</Absolute>
            <NoteOff Channel="1" Note="50" Velocity="0"/>
        </Event>
        <Event>
            <Absolute>88120</Absolute>
            <NoteOn Channel="1" Note="48" Velocity="95"/>
        </Event>
        <Event>
            <Absolute>88120</Absolute>
            <NoteOn Channel="1" Note="50" Velocity="75"/>
        </Event>
        <Event>
            <Absolute>88224</Absolute>
            <NoteOff Channel="1" Note="50" Velocity="0"/>
        </Event>
        <Event>
            <Absolute>88240</Absolute>
            <NoteOff Channel="1" Note="48" Velocity="0"/>
        </Event>
        <Event>
            <Absolute>88320</Absolute>
            <NoteOn Channel="1" Note="48" Velocity="105"/>
        </Event>
        <Event>
            <Absolute>88320</Absolute>
            <NoteOn Channel="1" Note="50" Velocity="98"/>
        </Event>
        <Event>
            <Absolute>88468</Absolute>
            <NoteOff Channel="1" Note="50" Velocity="0"/>
        </Event>
        <Event>
            <Absolute>88472</Absolute>
            <NoteOff Channel="1" Note="48" Velocity="0"/>
        </Event>
        <Event>
            <Absolute>88600</Absolute>
            <NoteOn Channel="1" Note="48" Velocity="96"/>
        </Event>
        <Event>
            <Absolute>88600</Absolute>
            <NoteOn Channel="1" Note="50" Velocity="70"/>
        </Event>
        <Event>
            <Absolute>88694</Absolute>
            <NoteOff Channel="1" Note="50" Velocity="0"/>
        </Event>
        <Event>
            <Absolute>88711</Absolute>
            <NoteOff Channel="1" Note="48" Velocity="0"/>
        </Event>
        <Event>
            <Absolute>88800</Absolute>
            <NoteOn Channel="1" Note="48" Velocity="105"/>
        </Event>
        <Event>
            <Absolute>88800</Absolute>
            <NoteOn Channel="1" Note="50" Velocity="97"/>
        </Event>
        <Event>
            <Absolute>88931</Absolute>
            <NoteOff Channel="1" Note="50" Velocity="0"/>
        </Event>
        <Event>
            <Absolute>88941</Absolute>
            <NoteOff Channel="1" Note="48" Velocity="0"/>
        </Event>
        <Event>
            <Absolute>89080</Absolute>
            <NoteOn Channel="1" Note="48" Velocity="96"/>
        </Event>
        <Event>
            <Absolute>89080</Absolute>
            <NoteOn Channel="1" Note="50" Velocity="83"/>
        </Event>
        <Event>
            <Absolute>89180</Absolute>
            <NoteOff Channel="1" Note="50" Velocity="0"/>
        </Event>
        <Event>
            <Absolute>89194</Absolute>
            <NoteOff Channel="1" Note="48" Velocity="0"/>
        </Event>
        <Event>
            <Absolute>89280</Absolute>
            <NoteOn Channel="1" Note="48" Velocity="108"/>
        </Event>
        <Event>
            <Absolute>89280</Absolute>
            <NoteOn Channel="1" Note="50" Velocity="102"/>
        </Event>
        <Event>
            <Absolute>89418</Absolute>
            <NoteOff Channel="1" Note="50" Velocity="0"/>
        </Event>
        <Event>
            <Absolute>89423</Absolute>
            <NoteOff Channel="1" Note="48" Velocity="0"/>
        </Event>
        <Event>
            <Absolute>89560</Absolute>
            <NoteOn Channel="1" Note="48" Velocity="99"/>
        </Event>
        <Event>
            <Absolute>89560</Absolute>
            <NoteOn Channel="1" Note="50" Velocity="78"/>
        </Event>
        <Event>
            <Absolute>89660</Absolute>
            <NoteOff Channel="1" Note="50" Velocity="0"/>
        </Event>
        <Event>
            <Absolute>89675</Absolute>
            <NoteOff Channel="1" Note="48" Velocity="0"/>
        </Event>
        <Event>
            <Absolute>89760</Absolute>
            <NoteOn Channel="1" Note="48" Velocity="103"/>
        </Event>
        <Event>
            <Absolute>89760</Absolute>
            <NoteOn Channel="1" Note="50" Velocity="103"/>
        </Event>
        <Event>
            <Absolute>89904</Absolute>
            <NoteOff Channel="1" Note="48" Velocity="0"/>
        </Event>
        <Event>
            <Absolute>89910</Absolute>
            <NoteOff Channel="1" Note="50" Velocity="0"/>
        </Event>
        <Event>
            <Absolute>90040</Absolute>
            <NoteOn Channel="1" Note="48" Velocity="97"/>
        </Event>
        <Event>
            <Absolute>90040</Absolute>
            <NoteOn Channel="1" Note="50" Velocity="69"/>
        </Event>
        <Event>
            <Absolute>90130</Absolute>
            <NoteOff Channel="1" Note="50" Velocity="0"/>
        </Event>
        <Event>
            <Absolute>90139</Absolute>
            <NoteOff Channel="1" Note="48" Velocity="0"/>
        </Event>
        <Event>
            <Absolute>90240</Absolute>
            <NoteOn Channel="1" Note="48" Velocity="104"/>
        </Event>
        <Event>
            <Absolute>90240</Absolute>
            <NoteOn Channel="1" Note="50" Velocity="92"/>
        </Event>
        <Event>
            <Absolute>90398</Absolute>
            <NoteOff Channel="1" Note="50" Velocity="0"/>
        </Event>
        <Event>
            <Absolute>90403</Absolute>
            <NoteOff Channel="1" Note="48" Velocity="0"/>
        </Event>
        <Event>
            <Absolute>90520</Absolute>
            <NoteOn Channel="1" Note="48" Velocity="100"/>
        </Event>
        <Event>
            <Absolute>90520</Absolute>
            <NoteOn Channel="1" Note="50" Velocity="88"/>
        </Event>
        <Event>
            <Absolute>90615</Absolute>
            <NoteOff Channel="1" Note="50" Velocity="0"/>
        </Event>
        <Event>
            <Absolute>90632</Absolute>
            <NoteOff Channel="1" Note="48" Velocity="0"/>
        </Event>
        <Event>
            <Absolute>90720</Absolute>
            <NoteOn Channel="1" Note="48" Velocity="110"/>
        </Event>
        <Event>
            <Absolute>90720</Absolute>
            <NoteOn Channel="1" Note="50" Velocity="102"/>
        </Event>
        <Event>
            <Absolute>90860</Absolute>
            <NoteOff Channel="1" Note="48" Velocity="0"/>
        </Event>
        <Event>
            <Absolute>90879</Absolute>
            <NoteOff Channel="1" Note="50" Velocity="0"/>
        </Event>
        <Event>
            <Absolute>91000</Absolute>
            <NoteOn Channel="1" Note="48" Velocity="98"/>
        </Event>
        <Event>
            <Absolute>91000</Absolute>
            <NoteOn Channel="1" Note="50" Velocity="94"/>
        </Event>
        <Event>
            <Absolute>91085</Absolute>
            <NoteOff Channel="1" Note="48" Velocity="0"/>
        </Event>
        <Event>
            <Absolute>91093</Absolute>
            <NoteOff Channel="1" Note="50" Velocity="0"/>
        </Event>
        <Event>
            <Absolute>91200</Absolute>
            <NoteOn Channel="1" Note="48" Velocity="110"/>
        </Event>
        <Event>
            <Absolute>91200</Absolute>
            <NoteOn Channel="1" Note="50" Velocity="111"/>
        </Event>
        <Event>
            <Absolute>91333</Absolute>
            <NoteOff Channel="1" Note="48" Velocity="0"/>
        </Event>
        <Event>
            <Absolute>91362</Absolute>
            <NoteOff Channel="1" Note="50" Velocity="0"/>
        </Event>
        <Event>
            <Absolute>91480</Absolute>
            <NoteOn Channel="1" Note="48" Velocity="96"/>
        </Event>
        <Event>
            <Absolute>91480</Absolute>
            <NoteOn Channel="1" Note="50" Velocity="69"/>
        </Event>
        <Event>
            <Absolute>91575</Absolute>
            <NoteOff Channel="1" Note="50" Velocity="0"/>
        </Event>
        <Event>
            <Absolute>91577</Absolute>
            <NoteOff Channel="1" Note="48" Velocity="0"/>
        </Event>
        <Event>
            <Absolute>91680</Absolute>
            <NoteOn Channel="1" Note="48" Velocity="119"/>
        </Event>
        <Event>
            <Absolute>91680</Absolute>
            <NoteOn Channel="1" Note="50" Velocity="119"/>
        </Event>
        <Event>
            <Absolute>91776</Absolute>
            <NoteOff Channel="1" Note="50" Velocity="0"/>
        </Event>
        <Event>
            <Absolute>91777</Absolute>
            <NoteOff Channel="1" Note="48" Velocity="0"/>
        </Event>
        <Event>
            <Absolute>92160</Absolute>
            <NoteOn Channel="1" Note="48" Velocity="107"/>
        </Event>
        <Event>
            <Absolute>92317</Absolute>
            <NoteOff Channel="1" Note="48" Velocity="0"/>
        </Event>
        <Event>
            <Absolute>92440</Absolute>
            <NoteOn Channel="1" Note="48" Velocity="100"/>
        </Event>
        <Event>
            <Absolute>92576</Absolute>
            <NoteOff Channel="1" Note="48" Velocity="0"/>
        </Event>
        <Event>
            <Absolute>92640</Absolute>
            <NoteOn Channel="1" Note="50" Velocity="106"/>
        </Event>
        <Event>
            <Absolute>92795</Absolute>
            <NoteOff Channel="1" Note="50" Velocity="0"/>
        </Event>
        <Event>
            <Absolute>92920</Absolute>
            <NoteOn Channel="1" Note="50" Velocity="90"/>
        </Event>
        <Event>
            <Absolute>93059</Absolute>
            <NoteOff Channel="1" Note="50" Velocity="0"/>
        </Event>
        <Event>
            <Absolute>93120</Absolute>
            <NoteOn Channel="1" Note="48" Velocity="109"/>
        </Event>
        <Event>
            <Absolute>93275</Absolute>
            <NoteOff Channel="1" Note="48" Velocity="0"/>
        </Event>
        <Event>
            <Absolute>93400</Absolute>
            <NoteOn Channel="1" Note="48" Velocity="93"/>
        </Event>
        <Event>
            <Absolute>93547</Absolute>
            <NoteOff Channel="1" Note="48" Velocity="0"/>
        </Event>
        <Event>
            <Absolute>93600</Absolute>
            <NoteOn Channel="1" Note="50" Velocity="111"/>
        </Event>
        <Event>
            <Absolute>93759</Absolute>
            <NoteOff Channel="1" Note="50" Velocity="0"/>
        </Event>
        <Event>
            <Absolute>93880</Absolute>
            <NoteOn Channel="1" Note="50" Velocity="100"/>
        </Event>
        <Event>
            <Absolute>94034</Absolute>
            <NoteOff Channel="1" Note="50" Velocity="0"/>
        </Event>
        <Event>
            <Absolute>94080</Absolute>
            <NoteOn Channel="1" Note="48" Velocity="96"/>
        </Event>
        <Event>
            <Absolute>94243</Absolute>
            <NoteOff Channel="1" Note="48" Velocity="0"/>
        </Event>
        <Event>
            <Absolute>94360</Absolute>
            <NoteOn Channel="1" Note="48" Velocity="99"/>
        </Event>
        <Event>
            <Absolute>94511</Absolute>
            <NoteOff Channel="1" Note="48" Velocity="0"/>
        </Event>
        <Event>
            <Absolute>94560</Absolute>
            <NoteOn Channel="1" Note="50" Velocity="103"/>
        </Event>
        <Event>
            <Absolute>94723</Absolute>
            <NoteOff Channel="1" Note="50" Velocity="0"/>
        </Event>
        <Event>
            <Absolute>94840</Absolute>
            <NoteOn Channel="1" Note="50" Velocity="57"/>
        </Event>
        <Event>
            <Absolute>94994</Absolute>
            <NoteOff Channel="1" Note="50" Velocity="0"/>
        </Event>
        <Event>
            <Absolute>95040</Absolute>
            <NoteOn Channel="1" Note="48" Velocity="97"/>
        </Event>
        <Event>
            <Absolute>95212</Absolute>
            <NoteOff Channel="1" Note="48" Velocity="0"/>
        </Event>
        <Event>
            <Absolute>95320</Absolute>
            <NoteOn Channel="1" Note="48" Velocity="98"/>
        </Event>
        <Event>
            <Absolute>95460</Absolute>
            <NoteOff Channel="1" Note="48" Velocity="0"/>
        </Event>
        <Event>
            <Absolute>95520</Absolute>
            <NoteOn Channel="1" Note="50" Velocity="113"/>
        </Event>
        <Event>
            <Absolute>95671</Absolute>
            <NoteOff Channel="1" Note="50" Velocity="0"/>
        </Event>
        <Event>
            <Absolute>95800</Absolute>
            <NoteOn Channel="1" Note="50" Velocity="99"/>
        </Event>
        <Event>
            <Absolute>95964</Absolute>
            <NoteOff Channel="1" Note="50" Velocity="0"/>
        </Event>
        <Event>
            <Absolute>96000</Absolute>
            <NoteOn Channel="1" Note="48" Velocity="96"/>
        </Event>
        <Event>
            <Absolute>96175</Absolute>
            <NoteOff Channel="1" Note="48" Velocity="0"/>
        </Event>
        <Event>
            <Absolute>96280</Absolute>
            <NoteOn Channel="1" Note="48" Velocity="101"/>
        </Event>
        <Event>
            <Absolute>96439</Absolute>
            <NoteOff Channel="1" Note="48" Velocity="0"/>
        </Event>
        <Event>
            <Absolute>96480</Absolute>
            <NoteOn Channel="1" Note="50" Velocity="110"/>
        </Event>
        <Event>
            <Absolute>96669</Absolute>
            <NoteOff Channel="1" Note="50" Velocity="0"/>
        </Event>
        <Event>
            <Absolute>96760</Absolute>
            <NoteOn Channel="1" Note="50" Velocity="93"/>
        </Event>
        <Event>
            <Absolute>96921</Absolute>
            <NoteOff Channel="1" Note="50" Velocity="0"/>
        </Event>
        <Event>
            <Absolute>96960</Absolute>
            <NoteOn Channel="1" Note="48" Velocity="96"/>
        </Event>
        <Event>
            <Absolute>97132</Absolute>
            <NoteOff Channel="1" Note="48" Velocity="0"/>
        </Event>
        <Event>
            <Absolute>97240</Absolute>
            <NoteOn Channel="1" Note="48" Velocity="82"/>
        </Event>
        <Event>
            <Absolute>97385</Absolute>
            <NoteOff Channel="1" Note="48" Velocity="0"/>
        </Event>
        <Event>
            <Absolute>97440</Absolute>
            <NoteOn Channel="1" Note="50" Velocity="109"/>
        </Event>
        <Event>
            <Absolute>97596</Absolute>
            <NoteOff Channel="1" Note="50" Velocity="0"/>
        </Event>
        <Event>
            <Absolute>97720</Absolute>
            <NoteOn Channel="1" Note="50" Velocity="84"/>
        </Event>
        <Event>
            <Absolute>97865</Absolute>
            <NoteOff Channel="1" Note="50" Velocity="0"/>
        </Event>
        <Event>
            <Absolute>97920</Absolute>
            <NoteOn Channel="1" Note="48" Velocity="93"/>
        </Event>
        <Event>
            <Absolute>98122</Absolute>
            <NoteOff Channel="1" Note="48" Velocity="0"/>
        </Event>
        <Event>
            <Absolute>98200</Absolute>
            <NoteOn Channel="1" Note="48" Velocity="98"/>
        </Event>
        <Event>
            <Absolute>98368</Absolute>
            <NoteOff Channel="1" Note="48" Velocity="0"/>
        </Event>
        <Event>
            <Absolute>98400</Absolute>
            <NoteOn Channel="1" Note="50" Velocity="107"/>
        </Event>
        <Event>
            <Absolute>98575</Absolute>
            <NoteOff Channel="1" Note="50" Velocity="0"/>
        </Event>
        <Event>
            <Absolute>98680</Absolute>
            <NoteOn Channel="1" Note="50" Velocity="88"/>
        </Event>
        <Event>
            <Absolute>98820</Absolute>
            <NoteOff Channel="1" Note="50" Velocity="0"/>
        </Event>
        <Event>
            <Absolute>98880</Absolute>
            <NoteOn Channel="1" Note="48" Velocity="95"/>
        </Event>
        <Event>
            <Absolute>99028</Absolute>
            <NoteOff Channel="1" Note="48" Velocity="0"/>
        </Event>
        <Event>
            <Absolute>99160</Absolute>
            <NoteOn Channel="1" Note="48" Velocity="89"/>
        </Event>
        <Event>
            <Absolute>99310</Absolute>
            <NoteOff Channel="1" Note="48" Velocity="0"/>
        </Event>
        <Event>
            <Absolute>99360</Absolute>
            <NoteOn Channel="1" Note="50" Velocity="108"/>
        </Event>
        <Event>
            <Absolute>99552</Absolute>
            <NoteOff Channel="1" Note="50" Velocity="0"/>
        </Event>
        <Event>
            <Absolute>99640</Absolute>
            <NoteOn Channel="1" Note="50" Velocity="98"/>
        </Event>
        <Event>
            <Absolute>99784</Absolute>
            <NoteOff Channel="1" Note="50" Velocity="0"/>
        </Event>
        <Event>
            <Absolute>99840</Absolute>
            <NoteOn Channel="1" Note="48" Velocity="82"/>
        </Event>
        <Event>
            <Absolute>100063</Absolute>
            <NoteOff Channel="1" Note="48" Velocity="0"/>
        </Event>
        <Event>
            <Absolute>100120</Absolute>
            <NoteOn Channel="1" Note="48" Velocity="97"/>
        </Event>
        <Event>
            <Absolute>100288</Absolute>
            <NoteOff Channel="1" Note="48" Velocity="0"/>
        </Event>
        <Event>
            <Absolute>100320</Absolute>
            <NoteOn Channel="1" Note="50" Velocity="106"/>
        </Event>
        <Event>
            <Absolute>100510</Absolute>
            <NoteOff Channel="1" Note="50" Velocity="0"/>
        </Event>
        <Event>
            <Absolute>100600</Absolute>
            <NoteOn Channel="1" Note="50" Velocity="94"/>
        </Event>
        <Event>
            <Absolute>100744</Absolute>
            <NoteOff Channel="1" Note="50" Velocity="0"/>
        </Event>
        <Event>
            <Absolute>100800</Absolute>
            <NoteOn Channel="1" Note="48" Velocity="95"/>
        </Event>
        <Event>
            <Absolute>100973</Absolute>
            <NoteOff Channel="1" Note="48" Velocity="0"/>
        </Event>
        <Event>
            <Absolute>101080</Absolute>
            <NoteOn Channel="1" Note="48" Velocity="96"/>
        </Event>
        <Event>
            <Absolute>101248</Absolute>
            <NoteOff Channel="1" Note="48" Velocity="0"/>
        </Event>
        <Event>
            <Absolute>101280</Absolute>
            <NoteOn Channel="1" Note="50" Velocity="106"/>
        </Event>
        <Event>
            <Absolute>101477</Absolute>
            <NoteOff Channel="1" Note="50" Velocity="0"/>
        </Event>
        <Event>
            <Absolute>101560</Absolute>
            <NoteOn Channel="1" Note="50" Velocity="90"/>
        </Event>
        <Event>
            <Absolute>101703</Absolute>
            <NoteOff Channel="1" Note="50" Velocity="0"/>
        </Event>
        <Event>
            <Absolute>101760</Absolute>
            <NoteOn Channel="1" Note="48" Velocity="90"/>
        </Event>
        <Event>
            <Absolute>101934</Absolute>
            <NoteOff Channel="1" Note="48" Velocity="0"/>
        </Event>
        <Event>
            <Absolute>102040</Absolute>
            <NoteOn Channel="1" Note="48" Velocity="77"/>
        </Event>
        <Event>
            <Absolute>102216</Absolute>
            <NoteOff Channel="1" Note="48" Velocity="0"/>
        </Event>
        <Event>
            <Absolute>102240</Absolute>
            <NoteOn Channel="1" Note="50" Velocity="107"/>
        </Event>
        <Event>
            <Absolute>102455</Absolute>
            <NoteOff Channel="1" Note="50" Velocity="0"/>
        </Event>
        <Event>
            <Absolute>102520</Absolute>
            <NoteOn Channel="1" Note="50" Velocity="85"/>
        </Event>
        <Event>
            <Absolute>102672</Absolute>
            <NoteOff Channel="1" Note="50" Velocity="0"/>
        </Event>
        <Event>
            <Absolute>102720</Absolute>
            <NoteOn Channel="1" Note="48" Velocity="96"/>
        </Event>
        <Event>
            <Absolute>102903</Absolute>
            <NoteOff Channel="1" Note="48" Velocity="0"/>
        </Event>
        <Event>
            <Absolute>103000</Absolute>
            <NoteOn Channel="1" Note="48" Velocity="65"/>
        </Event>
        <Event>
            <Absolute>103156</Absolute>
            <NoteOff Channel="1" Note="48" Velocity="0"/>
        </Event>
        <Event>
            <Absolute>103200</Absolute>
            <NoteOn Channel="1" Note="50" Velocity="84"/>
        </Event>
        <Event>
            <Absolute>103343</Absolute>
            <NoteOff Channel="1" Note="50" Velocity="0"/>
        </Event>
        <Event>
            <Absolute>103480</Absolute>
            <NoteOn Channel="1" Note="50" Velocity="98"/>
        </Event>
        <Event>
            <Absolute>103625</Absolute>
            <NoteOff Channel="1" Note="50" Velocity="0"/>
        </Event>
        <Event>
            <Absolute>103680</Absolute>
            <NoteOn Channel="1" Note="48" Velocity="97"/>
        </Event>
        <Event>
            <Absolute>103836</Absolute>
            <NoteOff Channel="1" Note="48" Velocity="0"/>
        </Event>
        <Event>
            <Absolute>103960</Absolute>
            <NoteOn Channel="1" Note="48" Velocity="99"/>
        </Event>
        <Event>
            <Absolute>104107</Absolute>
            <NoteOff Channel="1" Note="48" Velocity="0"/>
        </Event>
        <Event>
            <Absolute>104160</Absolute>
            <NoteOn Channel="1" Note="50" Velocity="110"/>
        </Event>
        <Event>
            <Absolute>104294</Absolute>
            <NoteOff Channel="1" Note="50" Velocity="0"/>
        </Event>
        <Event>
            <Absolute>104440</Absolute>
            <NoteOn Channel="1" Note="50" Velocity="91"/>
        </Event>
        <Event>
            <Absolute>104571</Absolute>
            <NoteOff Channel="1" Note="50" Velocity="0"/>
        </Event>
        <Event>
            <Absolute>104640</Absolute>
            <NoteOn Channel="1" Note="48" Velocity="82"/>
        </Event>
        <Event>
            <Absolute>104783</Absolute>
            <NoteOff Channel="1" Note="48" Velocity="0"/>
        </Event>
        <Event>
            <Absolute>104920</Absolute>
            <NoteOn Channel="1" Note="48" Velocity="97"/>
        </Event>
        <Event>
            <Absolute>105056</Absolute>
            <NoteOff Channel="1" Note="48" Velocity="0"/>
        </Event>
        <Event>
            <Absolute>105120</Absolute>
            <NoteOn Channel="1" Note="50" Velocity="100"/>
        </Event>
        <Event>
            <Absolute>105272</Absolute>
            <NoteOff Channel="1" Note="50" Velocity="0"/>
        </Event>
        <Event>
            <Absolute>105400</Absolute>
            <NoteOn Channel="1" Note="50" Velocity="76"/>
        </Event>
        <Event>
            <Absolute>105551</Absolute>
            <NoteOff Channel="1" Note="50" Velocity="0"/>
        </Event>
        <Event>
            <Absolute>105600</Absolute>
            <NoteOn Channel="1" Note="48" Velocity="94"/>
        </Event>
        <Event>
            <Absolute>105750</Absolute>
            <NoteOff Channel="1" Note="48" Velocity="0"/>
        </Event>
        <Event>
            <Absolute>105880</Absolute>
            <NoteOn Channel="1" Note="48" Velocity="88"/>
        </Event>
        <Event>
            <Absolute>106023</Absolute>
            <NoteOff Channel="1" Note="48" Velocity="0"/>
        </Event>
        <Event>
            <Absolute>106080</Absolute>
            <NoteOn Channel="1" Note="50" Velocity="84"/>
        </Event>
        <Event>
            <Absolute>106245</Absolute>
            <NoteOff Channel="1" Note="50" Velocity="0"/>
        </Event>
        <Event>
            <Absolute>106360</Absolute>
            <NoteOn Channel="1" Note="50" Velocity="95"/>
        </Event>
        <Event>
            <Absolute>106494</Absolute>
            <NoteOff Channel="1" Note="50" Velocity="0"/>
        </Event>
        <Event>
            <Absolute>106560</Absolute>
            <NoteOn Channel="1" Note="48" Velocity="95"/>
        </Event>
        <Event>
            <Absolute>106706</Absolute>
            <NoteOff Channel="1" Note="48" Velocity="0"/>
        </Event>
        <Event>
            <Absolute>106840</Absolute>
            <NoteOn Channel="1" Note="48" Velocity="94"/>
        </Event>
        <Event>
            <Absolute>106978</Absolute>
            <NoteOff Channel="1" Note="48" Velocity="0"/>
        </Event>
        <Event>
            <Absolute>107040</Absolute>
            <NoteOn Channel="1" Note="50" Velocity="106"/>
        </Event>
        <Event>
            <Absolute>107162</Absolute>
            <NoteOff Channel="1" Note="50" Velocity="0"/>
        </Event>
        <Event>
            <Absolute>107320</Absolute>
            <NoteOn Channel="1" Note="50" Velocity="111"/>
        </Event>
        <Event>
            <Absolute>107409</Absolute>
            <NoteOff Channel="1" Note="50" Velocity="0"/>
        </Event>
        <Event>
            <Absolute>107514</Absolute>
            <NoteOn Channel="1" Note="48" Velocity="116"/>
        </Event>
        <Event>
            <Absolute>107677</Absolute>
            <NoteOff Channel="1" Note="48" Velocity="0"/>
        </Event>
        <Event>
            <Absolute>107808</Absolute>
            <NoteOn Channel="1" Note="50" Velocity="105"/>
        </Event>
        <Event>
            <Absolute>107906</Absolute>
            <NoteOff Channel="1" Note="50" Velocity="0"/>
        </Event>
        <Event>
            <Absolute>107998</Absolute>
            <NoteOn Channel="1" Note="50" Velocity="119"/>
        </Event>
        <Event>
            <Absolute>108108</Absolute>
            <NoteOff Channel="1" Note="50" Velocity="0"/>
        </Event>
        <Event>
            <Absolute>108300</Absolute>
            <NoteOn Channel="1" Note="50" Velocity="120"/>
        </Event>
        <Event>
            <Absolute>108414</Absolute>
            <NoteOff Channel="1" Note="50" Velocity="0"/>
        </Event>
        <Event>
            <Absolute>108787</Absolute>
            <NoteOn Channel="1" Note="48" Velocity="114"/>
        </Event>
        <Event>
            <Absolute>108876</Absolute>
            <NoteOff Channel="1" Note="48" Velocity="0"/>
        </Event>
        <Event>
            <Absolute>108970</Absolute>
            <NoteOn Channel="1" Note="48" Velocity="124"/>
        </Event>
        <Event>
            <Absolute>109087</Absolute>
            <NoteOff Channel="1" Note="48" Velocity="0"/>
        </Event>
        <Event>
            <Absolute>109428</Absolute>
            <NoteOn Channel="1" Note="48" Velocity="121"/>
        </Event>
        <Event>
            <Absolute>109515</Absolute>
            <NoteOff Channel="1" Note="48" Velocity="0"/>
        </Event>
        <Event>
            <Absolute>109717</Absolute>
            <NoteOn Channel="1" Note="50" Velocity="107"/>
        </Event>
        <Event>
            <Absolute>109790</Absolute>
            <NoteOff Channel="1" Note="50" Velocity="0"/>
        </Event>
        <Event>
            <Absolute>109899</Absolute>
            <NoteOn Channel="1" Note="50" Velocity="117"/>
        </Event>
        <Event>
            <Absolute>109986</Absolute>
            <NoteOff Channel="1" Note="50" Velocity="0"/>
        </Event>
        <Event>
            <Absolute>110211</Absolute>
            <NoteOn Channel="1" Note="50" Velocity="120"/>
        </Event>
        <Event>
            <Absolute>110326</Absolute>
            <NoteOff Channel="1" Note="50" Velocity="0"/>
        </Event>
        <Event>
            <Absolute>110698</Absolute>
            <NoteOn Channel="1" Note="48" Velocity="107"/>
        </Event>
        <Event>
            <Absolute>110772</Absolute>
            <NoteOff Channel="1" Note="48" Velocity="0"/>
        </Event>
        <Event>
            <Absolute>110882</Absolute>
            <NoteOn Channel="1" Note="48" Velocity="120"/>
        </Event>
        <Event>
            <Absolute>111005</Absolute>
            <NoteOff Channel="1" Note="48" Velocity="0"/>
        </Event>
        <Event>
            <Absolute>111348</Absolute>
            <NoteOn Channel="1" Note="48" Velocity="119"/>
        </Event>
        <Event>
            <Absolute>111440</Absolute>
            <NoteOff Channel="1" Note="48" Velocity="0"/>
        </Event>
        <Event>
            <Absolute>111659</Absolute>
            <NoteOn Channel="1" Note="50" Velocity="117"/>
        </Event>
        <Event>
            <Absolute>111728</Absolute>
            <NoteOff Channel="1" Note="50" Velocity="0"/>
        </Event>
        <Event>
            <Absolute>111820</Absolute>
            <NoteOn Channel="1" Note="50" Velocity="113"/>
        </Event>
        <Event>
            <Absolute>111897</Absolute>
            <NoteOff Channel="1" Note="50" Velocity="0"/>
        </Event>
        <Event>
            <Absolute>112132</Absolute>
            <NoteOn Channel="1" Note="50" Velocity="119"/>
        </Event>
        <Event>
            <Absolute>112245</Absolute>
            <NoteOff Channel="1" Note="50" Velocity="0"/>
        </Event>
        <Event>
            <Absolute>112614</Absolute>
            <NoteOn Channel="1" Note="48" Velocity="93"/>
        </Event>
        <Event>
            <Absolute>112680</Absolute>
            <NoteOff Channel="1" Note="48" Velocity="0"/>
        </Event>
        <Event>
            <Absolute>112801</Absolute>
            <NoteOn Channel="1" Note="48" Velocity="121"/>
        </Event>
        <Event>
            <Absolute>112933</Absolute>
            <NoteOff Channel="1" Note="48" Velocity="0"/>
        </Event>
        <Event>
            <Absolute>113246</Absolute>
            <NoteOn Channel="1" Note="48" Velocity="117"/>
        </Event>
        <Event>
            <Absolute>113366</Absolute>
            <NoteOff Channel="1" Note="48" Velocity="0"/>
        </Event>
        <Event>
            <Absolute>113583</Absolute>
            <NoteOn Channel="1" Note="50" Velocity="117"/>
        </Event>
        <Event>
            <Absolute>113669</Absolute>
            <NoteOff Channel="1" Note="50" Velocity="0"/>
        </Event>
        <Event>
            <Absolute>113745</Absolute>
            <NoteOn Channel="1" Note="50" Velocity="115"/>
        </Event>
        <Event>
            <Absolute>113840</Absolute>
            <NoteOff Channel="1" Note="50" Velocity="0"/>
        </Event>
        <Event>
            <Absolute>114051</Absolute>
            <NoteOn Channel="1" Note="50" Velocity="118"/>
        </Event>
        <Event>
            <Absolute>114166</Absolute>
            <NoteOff Channel="1" Note="50" Velocity="0"/>
        </Event>
        <Event>
            <Absolute>114542</Absolute>
            <NoteOn Channel="1" Note="48" Velocity="115"/>
        </Event>
        <Event>
            <Absolute>114605</Absolute>
            <NoteOff Channel="1" Note="48" Velocity="0"/>
        </Event>
        <Event>
            <Absolute>114720</Absolute>
            <NoteOn Channel="1" Note="48" Velocity="119"/>
        </Event>
        <Event>
            <Absolute>114806</Absolute>
            <NoteOff Channel="1" Note="48" Velocity="0"/>
        </Event>
        <Event>
            <Absolute>115196</Absolute>
            <NoteOn Channel="1" Note="48" Velocity="121"/>
        </Event>
        <Event>
            <Absolute>115291</Absolute>
            <NoteOff Channel="1" Note="48" Velocity="0"/>
        </Event>
        <Event>
            <Absolute>115498</Absolute>
            <NoteOn Channel="1" Note="50" Velocity="108"/>
        </Event>
        <Event>
            <Absolute>115548</Absolute>
            <NoteOff Channel="1" Note="50" Velocity="0"/>
        </Event>
        <Event>
            <Absolute>115669</Absolute>
            <NoteOn Channel="1" Note="50" Velocity="115"/>
        </Event>
        <Event>
            <Absolute>115747</Absolute>
            <NoteOff Channel="1" Note="50" Velocity="0"/>
        </Event>
        <Event>
            <Absolute>115977</Absolute>
            <NoteOn Channel="1" Note="50" Velocity="119"/>
        </Event>
        <Event>
            <Absolute>116094</Absolute>
            <NoteOff Channel="1" Note="50" Velocity="0"/>
        </Event>
        <Event>
            <Absolute>116468</Absolute>
            <NoteOn Channel="1" Note="48" Velocity="112"/>
        </Event>
        <Event>
            <Absolute>116539</Absolute>
            <NoteOff Channel="1" Note="48" Velocity="0"/>
        </Event>
        <Event>
            <Absolute>116651</Absolute>
            <NoteOn Channel="1" Note="48" Velocity="121"/>
        </Event>
        <Event>
            <Absolute>116776</Absolute>
            <NoteOff Channel="1" Note="48" Velocity="0"/>
        </Event>
        <Event>
            <Absolute>117091</Absolute>
            <NoteOn Channel="1" Note="48" Velocity="117"/>
        </Event>
        <Event>
            <Absolute>117184</Absolute>
            <NoteOff Channel="1" Note="48" Velocity="0"/>
        </Event>
        <Event>
            <Absolute>117391</Absolute>
            <NoteOn Channel="1" Note="50" Velocity="111"/>
        </Event>
        <Event>
            <Absolute>117456</Absolute>
            <NoteOff Channel="1" Note="50" Velocity="0"/>
        </Event>
        <Event>
            <Absolute>117569</Absolute>
            <NoteOn Channel="1" Note="50" Velocity="118"/>
        </Event>
        <Event>
            <Absolute>117664</Absolute>
            <NoteOff Channel="1" Note="50" Velocity="0"/>
        </Event>
        <Event>
            <Absolute>117885</Absolute>
            <NoteOn Channel="1" Note="50" Velocity="119"/>
        </Event>
        <Event>
            <Absolute>118008</Absolute>
            <NoteOff Channel="1" Note="50" Velocity="0"/>
        </Event>
        <Event>
            <Absolute>118365</Absolute>
            <NoteOn Channel="1" Note="48" Velocity="119"/>
        </Event>
        <Event>
            <Absolute>118438</Absolute>
            <NoteOff Channel="1" Note="48" Velocity="0"/>
        </Event>
        <Event>
            <Absolute>118549</Absolute>
            <NoteOn Channel="1" Note="48" Velocity="122"/>
        </Event>
        <Event>
            <Absolute>118679</Absolute>
            <NoteOff Channel="1" Note="48" Velocity="0"/>
        </Event>
        <Event>
            <Absolute>119019</Absolute>
            <NoteOn Channel="1" Note="48" Velocity="121"/>
        </Event>
        <Event>
            <Absolute>119145</Absolute>
            <NoteOff Channel="1" Note="48" Velocity="0"/>
        </Event>
        <Event>
            <Absolute>119322</Absolute>
            <NoteOn Channel="1" Note="50" Velocity="114"/>
        </Event>
        <Event>
            <Absolute>119409</Absolute>
            <NoteOff Channel="1" Note="50" Velocity="0"/>
        </Event>
        <Event>
            <Absolute>119523</Absolute>
            <NoteOn Channel="1" Note="50" Velocity="118"/>
        </Event>
        <Event>
            <Absolute>119626</Absolute>
            <NoteOff Channel="1" Note="50" Velocity="0"/>
        </Event>
        <Event>
            <Absolute>119820</Absolute>
            <NoteOn Channel="1" Note="50" Velocity="116"/>
        </Event>
        <Event>
            <Absolute>119969</Absolute>
            <NoteOff Channel="1" Note="50" Velocity="0"/>
        </Event>
        <Event>
            <Absolute>120299</Absolute>
            <NoteOn Channel="1" Note="48" Velocity="116"/>
        </Event>
        <Event>
            <Absolute>120374</Absolute>
            <NoteOff Channel="1" Note="48" Velocity="0"/>
        </Event>
        <Event>
            <Absolute>120495</Absolute>
            <NoteOn Channel="1" Note="48" Velocity="121"/>
        </Event>
        <Event>
            <Absolute>120629</Absolute>
            <NoteOff Channel="1" Note="48" Velocity="0"/>
        </Event>
        <Event>
            <Absolute>120762</Absolute>
            <NoteOn Channel="1" Note="50" Velocity="106"/>
        </Event>
        <Event>
            <Absolute>120846</Absolute>
            <NoteOff Channel="1" Note="50" Velocity="0"/>
        </Event>
        <Event>
            <Absolute>120951</Absolute>
            <NoteOn Channel="1" Note="48" Velocity="122"/>
        </Event>
        <Event>
            <Absolute>121102</Absolute>
            <NoteOff Channel="1" Note="48" Velocity="0"/>
        </Event>
        <Event>
            <Absolute>121437</Absolute>
            <NoteOn Channel="1" Note="50" Velocity="118"/>
        </Event>
        <Event>
            <Absolute>121625</Absolute>
            <NoteOff Channel="1" Note="50" Velocity="0"/>
        </Event>
        <Event>
            <Absolute>121744</Absolute>
            <NoteOn Channel="1" Note="50" Velocity="120"/>
        </Event>
        <Event>
            <Absolute>121906</Absolute>
            <NoteOff Channel="1" Note="50" Velocity="0"/>
        </Event>
        <Event>
            <Absolute>122880</Absolute>
            <EndOfTrack/>
        </Event>
    </Track>
</MIDIFile>