<!DOCTYPE MIDIFile PUBLIC
        "-//Recordare//DTD MusicXML 0.9 MIDI//EN"
        "http://www.musicxml.org/dtds/midixml.dtd">
<MIDIFile>
    <Format>1</Format>
    <TrackCount>1</TrackCount>
    <TicksPerBeat>960</TicksPerBeat>
    <TimestampType>Absolute</TimestampType>
    <Track Number="0">
        <Event>
            <Absolute>0</Absolute>
            <PitchBendChange Channel="1" Value="8192"/>
        </Event>
        <Event>
            <Absolute>0</Absolute>
            <ControlChange Channel="1" Control="7" Value="127"/>
        </Event>
        <Event>
            <Absolute>0</Absolute>
            <ControlChange Channel="1" Control="10" Value="64"/>
        </Event>
        <Event>
            <Absolute>0</Absolute>
            <ControlChange Channel="1" Control="93" Value="0"/>
        </Event>
        <Event>
            <Absolute>0</Absolute>
            <ControlChange Channel="1" Control="91" Value="0"/>
        </Event>
        <Event>
            <Absolute>0</Absolute>
            <ControlChange Channel="1" Control="95" Value="0"/>
        </Event>
        <Event>
            <Absolute>0</Absolute>
            <ControlChange Channel="1" Control="92" Value="0"/>
        </Event>
        <Event>
            <Absolute>0</Absolute>
            <ControlChange Channel="1" Control="11" Value="127"/>
        </Event>
        <Event>
            <Absolute>0</Absolute>
            <ProgramChange Channel="1" Number="0"/>
        </Event>
        <Event>
            <Absolute>0</Absolute>
            <NoteOn Channel="1" Note="48" Velocity="64"/>
        </Event>
        <Event>
            <Absolute>480</Absolute>
            <NoteOff Channel="1" Note="48" Velocity="64"/>
        </Event>
        <Event>
            <Absolute>960</Absolute>
            <NoteOn Channel="1" Note="50" Velocity="64"/>
        </Event>
        <Event>
            <Absolute>1440</Absolute>
            <NoteOff Channel="1" Note="50" Velocity="64"/>
        </Event>
        <Event>
            <Absolute>1440</Absolute>
            <NoteOn Channel="1" Note="48" Velocity="64"/>
        </Event>
        <Event>
            <Absolute>1920</Absolute>
            <NoteOff Channel="1" Note="48" Velocity="64"/>
        </Event>
        <Event>
            <Absolute>2880</Absolute>
            <NoteOn Channel="1" Note="50" Velocity="64"/>
        </Event>
        <Event>
            <Absolute>3360</Absolute>
            <NoteOff Channel="1" Note="50" Velocity="64"/>
        </Event>
        <Event>
            <Absolute>3840</Absolute>
            <NoteOn Channel="1" Note="48" Velocity="64"/>
        </Event>
        <Event>
            <Absolute>4320</Absolute>
            <NoteOff Channel="1" Note="48" Velocity="64"/>
        </Event>
        <Event>
            <Absolute>4800</Absolute>
            <NoteOn Channel="1" Note="50" Velocity="64"/>
        </Event>
        <Event>
            <Absolute>5280</Absolute>
            <NoteOff Channel="1" Note="50" Velocity="64"/>
        </Event>
        <Event>
            <Absolute>5280</Absolute>
            <NoteOn Channel="1" Note="48" Velocity="64"/>
        </Event>
        <Event>
            <Absolute>5760</Absolute>
            <NoteOff Channel="1" Note="48" Velocity="64"/>
        </Event>
        <Event>
            <Absolute>6720</Absolute>
            <NoteOn Channel="1" Note="50" Velocity="64"/>
        </Event>
        <Event>
            <Absolute>7200</Absolute>
            <NoteOff Channel="1" Note="50" Velocity="64"/>
        </Event>
        <Event>
            <Absolute>7680</Absolute>
            <NoteOn Channel="1" Note="48" Velocity="64"/>
        </Event>
        <Event>
            <Absolute>8160</Absolute>
            <NoteOff Channel="1" Note="48" Velocity="64"/>
        </Event>
        <Event>
            <Absolute>8640</Absolute>
            <NoteOn Channel="1" Note="50" Velocity="64"/>
        </Event>
        <Event>
            <Absolute>9120</Absolute>
            <NoteOff Channel="1" Note="50" Velocity="64"/>
        </Event>
        <Event>
            <Absolute>9120</Absolute>
            <NoteOn Channel="1" Note="48" Velocity="64"/>
        </Event>
        <Event>
            <Absolute>9600</Absolute>
            <NoteOff Channel="1" Note="48" Velocity="64"/>
        </Event>
        <Event>
            <Absolute>10560</Absolute>
            <NoteOn Channel="1" Note="50" Velocity="64"/>
        </Event>
        <Event>
            <Absolute>11040</Absolute>
            <NoteOff Channel="1" Note="50" Velocity="64"/>
        </Event>
        <Event>
            <Absolute>11520</Absolute>
            <NoteOn Channel="1" Note="48" Velocity="64"/>
        </Event>
        <Event>
            <Absolute>12000</Absolute>
            <NoteOff Channel="1" Note="48" Velocity="64"/>
        </Event>
        <Event>
            <Absolute>12480</Absolute>
            <NoteOn Channel="1" Note="50" Velocity="64"/>
        </Event>
        <Event>
            <Absolute>12960</Absolute>
            <NoteOff Channel="1" Note="50" Velocity="64"/>
        </Event>
        <Event>
            <Absolute>12960</Absolute>
            <NoteOn Channel="1" Note="48" Velocity="64"/>
        </Event>
        <Event>
            <Absolute>13440</Absolute>
            <NoteOff Channel="1" Note="48" Velocity="64"/>
        </Event>
        <Event>
            <Absolute>14400</Absolute>
            <NoteOn Channel="1" Note="50" Velocity="64"/>
        </Event>
        <Event>
            <Absolute>14880</Absolute>
            <NoteOff Channel="1" Note="50" Velocity="64"/>
        </Event>
        <Event>
            <Absolute>15360</Absolute>
            <NoteOn Channel="1" Note="48" Velocity="64"/>
        </Event>
        <Event>
            <Absolute>15840</Absolute>
            <NoteOff Channel="1" Note="48" Velocity="64"/>
        </Event>
        <Event>
            <Absolute>16320</Absolute>
            <NoteOn Channel="1" Note="50" Velocity="64"/>
        </Event>
        <Event>
            <Absolute>16800</Absolute>
            <NoteOff Channel="1" Note="50" Velocity="64"/>
        </Event>
        <Event>
            <Absolute>16800</Absolute>
            <NoteOn Channel="1" Note="48" Velocity="64"/>
        </Event>
        <Event>
            <Absolute>17280</Absolute>
            <NoteOff Channel="1" Note="48" Velocity="64"/>
        </Event>
        <Event>
            <Absolute>18240</Absolute>
            <NoteOn Channel="1" Note="50" Velocity="64"/>
        </Event>
        <Event>
            <Absolute>18720</Absolute>
            <NoteOff Channel="1" Note="50" Velocity="64"/>
        </Event>
        <Event>
            <Absolute>19200</Absolute>
            <NoteOn Channel="1" Note="48" Velocity="64"/>
        </Event>
        <Event>
            <Absolute>19680</Absolute>
            <NoteOff Channel="1" Note="48" Velocity="64"/>
        </Event>
        <Event>
            <Absolute>20160</Absolute>
            <NoteOn Channel="1" Note="50" Velocity="64"/>
        </Event>
        <Event>
            <Absolute>20640</Absolute>
            <NoteOff Channel="1" Note="50" Velocity="64"/>
        </Event>
        <Event>
            <Absolute>20640</Absolute>
            <NoteOn Channel="1" Note="48" Velocity="64"/>
        </Event>
        <Event>
            <Absolute>21120</Absolute>
            <NoteOff Channel="1" Note="48" Velocity="64"/>
        </Event>
        <Event>
            <Absolute>22080</Absolute>
            <NoteOn Channel="1" Note="50" Velocity="64"/>
        </Event>
        <Event>
            <Absolute>22560</Absolute>
            <NoteOff Channel="1" Note="50" Velocity="64"/>
        </Event>
        <Event>
            <Absolute>23040</Absolute>
            <NoteOn Channel="1" Note="48" Velocity="64"/>
        </Event>
        <Event>
            <Absolute>23520</Absolute>
            <NoteOff Channel="1" Note="48" Velocity="64"/>
        </Event>
        <Event>
            <Absolute>24000</Absolute>
            <NoteOn Channel="1" Note="50" Velocity="64"/>
        </Event>
        <Event>
            <Absolute>24480</Absolute>
            <NoteOff Channel="1" Note="50" Velocity="64"/>
        </Event>
        <Event>
            <Absolute>24480</Absolute>
            <NoteOn Channel="1" Note="48" Velocity="64"/>
        </Event>
        <Event>
            <Absolute>24960</Absolute>
            <NoteOff Channel="1" Note="48" Velocity="64"/>
        </Event>
        <Event>
            <Absolute>25920</Absolute>
            <NoteOn Channel="1" Note="50" Velocity="64"/>
        </Event>
        <Event>
            <Absolute>26400</Absolute>
            <NoteOff Channel="1" Note="50" Velocity="64"/>
        </Event>
        <Event>
            <Absolute>26880</Absolute>
            <NoteOn Channel="1" Note="48" Velocity="64"/>
        </Event>
        <Event>
            <Absolute>27360</Absolute>
            <NoteOff Channel="1" Note="48" Velocity="64"/>
        </Event>
        <Event>
            <Absolute>27840</Absolute>
            <NoteOn Channel="1" Note="50" Velocity="64"/>
        </Event>
        <Event>
            <Absolute>28320</Absolute>
            <NoteOff Channel="1" Note="50" Velocity="64"/>
        </Event>
        <Event>
            <Absolute>28320</Absolute>
            <NoteOn Channel="1" Note="48" Velocity="64"/>
        </Event>
        <Event>
            <Absolute>28800</Absolute>
            <NoteOff Channel="1" Note="48" Velocity="64"/>
        </Event>
        <Event>
            <Absolute>29760</Absolute>
            <NoteOn Channel="1" Note="50" Velocity="64"/>
        </Event>
        <Event>
            <Absolute>30240</Absolute>
            <NoteOff Channel="1" Note="50" Velocity="64"/>
        </Event>
        <Event>
            <Absolute>30720</Absolute>
            <NoteOn Channel="1" Note="48" Velocity="64"/>
        </Event>
        <Event>
            <Absolute>31200</Absolute>
            <NoteOff Channel="1" Note="48" Velocity="64"/>
        </Event>
        <Event>
            <Absolute>31680</Absolute>
            <NoteOn Channel="1" Note="50" Velocity="64"/>
        </Event>
        <Event>
            <Absolute>32160</Absolute>
            <NoteOff Channel="1" Note="50" Velocity="64"/>
        </Event>
        <Event>
            <Absolute>32160</Absolute>
            <NoteOn Channel="1" Note="48" Velocity="64"/>
        </Event>
        <Event>
            <Absolute>32640</Absolute>
            <NoteOff Channel="1" Note="48" Velocity="64"/>
        </Event>
        <Event>
            <Absolute>33600</Absolute>
            <NoteOn Channel="1" Note="50" Velocity="64"/>
        </Event>
        <Event>
            <Absolute>34080</Absolute>
            <NoteOff Channel="1" Note="50" Velocity="64"/>
        </Event>
        <Event>
            <Absolute>34560</Absolute>
            <NoteOn Channel="1" Note="48" Velocity="64"/>
        </Event>
        <Event>
            <Absolute>35040</Absolute>
            <NoteOff Channel="1" Note="48" Velocity="64"/>
        </Event>
        <Event>
            <Absolute>35520</Absolute>
            <NoteOn Channel="1" Note="50" Velocity="64"/>
        </Event>
        <Event>
            <Absolute>36000</Absolute>
            <NoteOff Channel="1" Note="50" Velocity="64"/>
        </Event>
        <Event>
            <Absolute>36000</Absolute>
            <NoteOn Channel="1" Note="48" Velocity="64"/>
        </Event>
        <Event>
            <Absolute>36480</Absolute>
            <NoteOff Channel="1" Note="48" Velocity="64"/>
        </Event>
        <Event>
            <Absolute>37440</Absolute>
            <NoteOn Channel="1" Note="50" Velocity="64"/>
        </Event>
        <Event>
            <Absolute>37920</Absolute>
            <NoteOff Channel="1" Note="50" Velocity="64"/>
        </Event>
        <Event>
            <Absolute>38400</Absolute>
            <NoteOn Channel="1" Note="48" Velocity="64"/>
        </Event>
        <Event>
            <Absolute>38880</Absolute>
            <NoteOff Channel="1" Note="48" Velocity="64"/>
        </Event>
        <Event>
            <Absolute>39360</Absolute>
            <NoteOn Channel="1" Note="50" Velocity="64"/>
        </Event>
        <Event>
            <Absolute>39840</Absolute>
            <NoteOff Channel="1" Note="50" Velocity="64"/>
        </Event>
        <Event>
            <Absolute>39840</Absolute>
            <NoteOn Channel="1" Note="48" Velocity="64"/>
        </Event>
        <Event>
            <Absolute>40320</Absolute>
            <NoteOff Channel="1" Note="48" Velocity="64"/>
        </Event>
        <Event>
            <Absolute>41280</Absolute>
            <NoteOn Channel="1" Note="50" Velocity="64"/>
        </Event>
        <Event>
            <Absolute>41760</Absolute>
            <NoteOff Channel="1" Note="50" Velocity="64"/>
        </Event>
        <Event>
            <Absolute>42240</Absolute>
            <NoteOn Channel="1" Note="48" Velocity="64"/>
        </Event>
        <Event>
            <Absolute>42720</Absolute>
            <NoteOff Channel="1" Note="48" Velocity="64"/>
        </Event>
        <Event>
            <Absolute>43200</Absolute>
            <NoteOn Channel="1" Note="50" Velocity="64"/>
        </Event>
        <Event>
            <Absolute>43680</Absolute>
            <NoteOff Channel="1" Note="50" Velocity="64"/>
        </Event>
        <Event>
            <Absolute>43680</Absolute>
            <NoteOn Channel="1" Note="48" Velocity="64"/>
        </Event>
        <Event>
            <Absolute>44160</Absolute>
            <NoteOff Channel="1" Note="48" Velocity="64"/>
        </Event>
        <Event>
            <Absolute>45120</Absolute>
            <NoteOn Channel="1" Note="50" Velocity="64"/>
        </Event>
        <Event>
            <Absolute>45600</Absolute>
            <NoteOff Channel="1" Note="50" Velocity="64"/>
        </Event>
        <Event>
            <Absolute>46080</Absolute>
            <NoteOn Channel="1" Note="48" Velocity="64"/>
        </Event>
        <Event>
            <Absolute>46560</Absolute>
            <NoteOff Channel="1" Note="48" Velocity="64"/>
        </Event>
        <Event>
            <Absolute>47040</Absolute>
            <NoteOn Channel="1" Note="50" Velocity="64"/>
        </Event>
        <Event>
            <Absolute>47520</Absolute>
            <NoteOff Channel="1" Note="50" Velocity="64"/>
        </Event>
        <Event>
            <Absolute>47520</Absolute>
            <NoteOn Channel="1" Note="48" Velocity="64"/>
        </Event>
        <Event>
            <Absolute>48000</Absolute>
            <NoteOff Channel="1" Note="48" Velocity="64"/>
        </Event>
        <Event>
            <Absolute>48960</Absolute>
            <NoteOn Channel="1" Note="50" Velocity="64"/>
        </Event>
        <Event>
            <Absolute>49440</Absolute>
            <NoteOff Channel="1" Note="50" Velocity="64"/>
        </Event>
        <Event>
            <Absolute>49920</Absolute>
            <NoteOn Channel="1" Note="48" Velocity="64"/>
        </Event>
        <Event>
            <Absolute>50400</Absolute>
            <NoteOff Channel="1" Note="48" Velocity="64"/>
        </Event>
        <Event>
            <Absolute>50880</Absolute>
            <NoteOn Channel="1" Note="50" Velocity="64"/>
        </Event>
        <Event>
            <Absolute>51360</Absolute>
            <NoteOff Channel="1" Note="50" Velocity="64"/>
        </Event>
        <Event>
            <Absolute>51360</Absolute>
            <NoteOn Channel="1" Note="48" Velocity="64"/>
        </Event>
        <Event>
            <Absolute>51840</Absolute>
            <NoteOff Channel="1" Note="48" Velocity="64"/>
        </Event>
        <Event>
            <Absolute>52800</Absolute>
            <NoteOn Channel="1" Note="50" Velocity="64"/>
        </Event>
        <Event>
            <Absolute>53280</Absolute>
            <NoteOff Channel="1" Note="50" Velocity="64"/>
        </Event>
        <Event>
            <Absolute>53760</Absolute>
            <NoteOn Channel="1" Note="48" Velocity="64"/>
        </Event>
        <Event>
            <Absolute>54240</Absolute>
            <NoteOff Channel="1" Note="48" Velocity="64"/>
        </Event>
        <Event>
            <Absolute>54720</Absolute>
            <NoteOn Channel="1" Note="50" Velocity="64"/>
        </Event>
        <Event>
            <Absolute>55200</Absolute>
            <NoteOff Channel="1" Note="50" Velocity="64"/>
        </Event>
        <Event>
            <Absolute>55200</Absolute>
            <NoteOn Channel="1" Note="48" Velocity="64"/>
        </Event>
        <Event>
            <Absolute>55680</Absolute>
            <NoteOff Channel="1" Note="48" Velocity="64"/>
        </Event>
        <Event>
            <Absolute>56640</Absolute>
            <NoteOn Channel="1" Note="50" Velocity="64"/>
        </Event>
        <Event>
            <Absolute>57120</Absolute>
            <NoteOff Channel="1" Note="50" Velocity="64"/>
        </Event>
        <Event>
            <Absolute>57600</Absolute>
            <NoteOn Channel="1" Note="48" Velocity="64"/>
        </Event>
        <Event>
            <Absolute>58080</Absolute>
            <NoteOff Channel="1" Note="48" Velocity="64"/>
        </Event>
        <Event>
            <Absolute>58560</Absolute>
            <NoteOn Channel="1" Note="50" Velocity="64"/>
        </Event>
        <Event>
            <Absolute>59040</Absolute>
            <NoteOff Channel="1" Note="50" Velocity="64"/>
        </Event>
        <Event>
            <Absolute>59040</Absolute>
            <NoteOn Channel="1" Note="48" Velocity="64"/>
        </Event>
        <Event>
            <Absolute>59520</Absolute>
            <NoteOff Channel="1" Note="48" Velocity="64"/>
        </Event>
        <Event>
            <Absolute>60480</Absolute>
            <NoteOn Channel="1" Note="50" Velocity="64"/>
        </Event>
        <Event>
            <Absolute>60960</Absolute>
            <NoteOff Channel="1" Note="50" Velocity="64"/>
        </Event>
        <Event>
            <Absolute>61440</Absolute>
            <NoteOn Channel="1" Note="48" Velocity="64"/>
        </Event>
        <Event>
            <Absolute>61920</Absolute>
            <NoteOff Channel="1" Note="48" Velocity="64"/>
        </Event>
        <Event>
            <Absolute>62400</Absolute>
            <NoteOn Channel="1" Note="50" Velocity="64"/>
        </Event>
        <Event>
            <Absolute>62880</Absolute>
            <NoteOff Channel="1" Note="50" Velocity="64"/>
        </Event>
        <Event>
            <Absolute>62880</Absolute>
            <NoteOn Channel="1" Note="48" Velocity="64"/>
        </Event>
        <Event>
            <Absolute>63360</Absolute>
            <NoteOff Channel="1" Note="48" Velocity="64"/>
        </Event>
        <Event>
            <Absolute>63360</Absolute>
            <NoteOn Channel="1" Note="48" Velocity="64"/>
        </Event>
        <Event>
            <Absolute>63840</Absolute>
            <NoteOff Channel="1" Note="48" Velocity="64"/>
        </Event>
        <Event>
            <Absolute>64320</Absolute>
            <NoteOn Channel="1" Note="50" Velocity="64"/>
        </Event>
        <Event>
            <Absolute>64800</Absolute>
            <NoteOff Channel="1" Note="50" Velocity="64"/>
        </Event>
        <Event>
            <Absolute>64800</Absolute>
            <NoteOn Channel="1" Note="50" Velocity="64"/>
        </Event>
        <Event>
            <Absolute>65280</Absolute>
            <NoteOff Channel="1" Note="50" Velocity="64"/>
        </Event>
        <Event>
            <Absolute>65280</Absolute>
            <NoteOn Channel="1" Note="48" Velocity="64"/>
        </Event>
        <Event>
            <Absolute>65760</Absolute>
            <NoteOff Channel="1" Note="48" Velocity="64"/>
        </Event>
        <Event>
            <Absolute>66240</Absolute>
            <NoteOn Channel="1" Note="50" Velocity="64"/>
        </Event>
        <Event>
            <Absolute>66720</Absolute>
            <NoteOff Channel="1" Note="50" Velocity="64"/>
        </Event>
        <Event>
            <Absolute>66720</Absolute>
            <NoteOn Channel="1" Note="48" Velocity="64"/>
        </Event>
        <Event>
            <Absolute>67200</Absolute>
            <NoteOff Channel="1" Note="48" Velocity="64"/>
        </Event>
        <Event>
            <Absolute>67200</Absolute>
            <NoteOn Channel="1" Note="48" Velocity="64"/>
        </Event>
        <Event>
            <Absolute>67680</Absolute>
            <NoteOff Channel="1" Note="48" Velocity="64"/>
        </Event>
        <Event>
            <Absolute>68160</Absolute>
            <NoteOn Channel="1" Note="50" Velocity="64"/>
        </Event>
        <Event>
            <Absolute>68640</Absolute>
            <NoteOff Channel="1" Note="50" Velocity="64"/>
        </Event>
        <Event>
            <Absolute>68640</Absolute>
            <NoteOn Channel="1" Note="50" Velocity="64"/>
        </Event>
        <Event>
            <Absolute>69120</Absolute>
            <NoteOff Channel="1" Note="50" Velocity="64"/>
        </Event>
        <Event>
            <Absolute>69120</Absolute>
            <NoteOn Channel="1" Note="48" Velocity="64"/>
        </Event>
        <Event>
            <Absolute>69600</Absolute>
            <NoteOff Channel="1" Note="48" Velocity="64"/>
        </Event>
        <Event>
            <Absolute>70080</Absolute>
            <NoteOn Channel="1" Note="50" Velocity="64"/>
        </Event>
        <Event>
            <Absolute>70560</Absolute>
            <NoteOff Channel="1" Note="50" Velocity="64"/>
        </Event>
        <Event>
            <Absolute>70560</Absolute>
            <NoteOn Channel="1" Note="48" Velocity="64"/>
        </Event>
        <Event>
            <Absolute>71040</Absolute>
            <NoteOff Channel="1" Note="48" Velocity="64"/>
        </Event>
        <Event>
            <Absolute>71040</Absolute>
            <NoteOn Channel="1" Note="48" Velocity="64"/>
        </Event>
        <Event>
            <Absolute>71520</Absolute>
            <NoteOff Channel="1" Note="48" Velocity="64"/>
        </Event>
        <Event>
            <Absolute>72000</Absolute>
            <NoteOn Channel="1" Note="50" Velocity="64"/>
        </Event>
        <Event>
            <Absolute>72480</Absolute>
            <NoteOff Channel="1" Note="50" Velocity="64"/>
        </Event>
        <Event>
            <Absolute>72480</Absolute>
            <NoteOn Channel="1" Note="50" Velocity="64"/>
        </Event>
        <Event>
            <Absolute>72960</Absolute>
            <NoteOff Channel="1" Note="50" Velocity="64"/>
        </Event>
        <Event>
            <Absolute>72960</Absolute>
            <NoteOn Channel="1" Note="48" Velocity="64"/>
        </Event>
        <Event>
            <Absolute>73440</Absolute>
            <NoteOff Channel="1" Note="48" Velocity="64"/>
        </Event>
        <Event>
            <Absolute>73920</Absolute>
            <NoteOn Channel="1" Note="50" Velocity="64"/>
        </Event>
        <Event>
            <Absolute>74400</Absolute>
            <NoteOff Channel="1" Note="50" Velocity="64"/>
        </Event>
        <Event>
            <Absolute>74400</Absolute>
            <NoteOn Channel="1" Note="48" Velocity="64"/>
        </Event>
        <Event>
            <Absolute>74880</Absolute>
            <NoteOff Channel="1" Note="48" Velocity="64"/>
        </Event>
        <Event>
            <Absolute>74880</Absolute>
            <NoteOn Channel="1" Note="48" Velocity="64"/>
        </Event>
        <Event>
            <Absolute>75360</Absolute>
            <NoteOff Channel="1" Note="48" Velocity="64"/>
        </Event>
        <Event>
            <Absolute>75840</Absolute>
            <NoteOn Channel="1" Note="50" Velocity="64"/>
        </Event>
        <Event>
            <Absolute>76320</Absolute>
            <NoteOff Channel="1" Note="50" Velocity="64"/>
        </Event>
        <Event>
            <Absolute>76320</Absolute>
            <NoteOn Channel="1" Note="50" Velocity="64"/>
        </Event>
        <Event>
            <Absolute>76800</Absolute>
            <NoteOff Channel="1" Note="50" Velocity="64"/>
        </Event>
        <Event>
            <Absolute>76800</Absolute>
            <NoteOn Channel="1" Note="48" Velocity="64"/>
        </Event>
        <Event>
            <Absolute>77280</Absolute>
            <NoteOff Channel="1" Note="48" Velocity="64"/>
        </Event>
        <Event>
            <Absolute>77760</Absolute>
            <NoteOn Channel="1" Note="50" Velocity="64"/>
        </Event>
        <Event>
            <Absolute>78240</Absolute>
            <NoteOff Channel="1" Note="50" Velocity="64"/>
        </Event>
        <Event>
            <Absolute>78240</Absolute>
            <NoteOn Channel="1" Note="48" Velocity="64"/>
        </Event>
        <Event>
            <Absolute>78720</Absolute>
            <NoteOff Channel="1" Note="48" Velocity="64"/>
        </Event>
        <Event>
            <Absolute>78720</Absolute>
            <NoteOn Channel="1" Note="48" Velocity="64"/>
        </Event>
        <Event>
            <Absolute>79200</Absolute>
            <NoteOff Channel="1" Note="48" Velocity="64"/>
        </Event>
        <Event>
            <Absolute>79680</Absolute>
            <NoteOn Channel="1" Note="50" Velocity="64"/>
        </Event>
        <Event>
            <Absolute>80160</Absolute>
            <NoteOff Channel="1" Note="50" Velocity="64"/>
        </Event>
        <Event>
            <Absolute>80160</Absolute>
            <NoteOn Channel="1" Note="50" Velocity="64"/>
        </Event>
        <Event>
            <Absolute>80640</Absolute>
            <NoteOff Channel="1" Note="50" Velocity="64"/>
        </Event>
        <Event>
            <Absolute>80640</Absolute>
            <NoteOn Channel="1" Note="48" Velocity="64"/>
        </Event>
        <Event>
            <Absolute>81120</Absolute>
            <NoteOff Channel="1" Note="48" Velocity="64"/>
        </Event>
        <Event>
            <Absolute>81600</Absolute>
            <NoteOn Channel="1" Note="50" Velocity="64"/>
        </Event>
        <Event>
            <Absolute>82080</Absolute>
            <NoteOff Channel="1" Note="50" Velocity="64"/>
        </Event>
        <Event>
            <Absolute>82080</Absolute>
            <NoteOn Channel="1" Note="48" Velocity="64"/>
        </Event>
        <Event>
            <Absolute>82560</Absolute>
            <NoteOff Channel="1" Note="48" Velocity="64"/>
        </Event>
        <Event>
            <Absolute>82560</Absolute>
            <NoteOn Channel="1" Note="48" Velocity="64"/>
        </Event>
        <Event>
            <Absolute>83040</Absolute>
            <NoteOff Channel="1" Note="48" Velocity="64"/>
        </Event>
        <Event>
            <Absolute>83520</Absolute>
            <NoteOn Channel="1" Note="50" Velocity="64"/>
        </Event>
        <Event>
            <Absolute>84000</Absolute>
            <NoteOff Channel="1" Note="50" Velocity="64"/>
        </Event>
        <Event>
            <Absolute>84000</Absolute>
            <NoteOn Channel="1" Note="50" Velocity="64"/>
        </Event>
        <Event>
            <Absolute>84480</Absolute>
            <NoteOff Channel="1" Note="50" Velocity="64"/>
        </Event>
        <Event>
            <Absolute>84480</Absolute>
            <NoteOn Channel="1" Note="48" Velocity="64"/>
        </Event>
        <Event>
            <Absolute>84960</Absolute>
            <NoteOff Channel="1" Note="48" Velocity="64"/>
        </Event>
        <Event>
            <Absolute>85440</Absolute>
            <NoteOn Channel="1" Note="50" Velocity="64"/>
        </Event>
        <Event>
            <Absolute>85920</Absolute>
            <NoteOff Channel="1" Note="50" Velocity="64"/>
        </Event>
        <Event>
            <Absolute>85920</Absolute>
            <NoteOn Channel="1" Note="48" Velocity="64"/>
        </Event>
        <Event>
            <Absolute>86400</Absolute>
            <NoteOff Channel="1" Note="48" Velocity="64"/>
        </Event>
        <Event>
            <Absolute>86400</Absolute>
            <NoteOn Channel="1" Note="48" Velocity="64"/>
        </Event>
        <Event>
            <Absolute>86880</Absolute>
            <NoteOff Channel="1" Note="48" Velocity="64"/>
        </Event>
        <Event>
            <Absolute>87360</Absolute>
            <NoteOn Channel="1" Note="50" Velocity="64"/>
        </Event>
        <Event>
            <Absolute>87840</Absolute>
            <NoteOff Channel="1" Note="50" Velocity="64"/>
        </Event>
        <Event>
            <Absolute>87840</Absolute>
            <NoteOn Channel="1" Note="50" Velocity="64"/>
        </Event>
        <Event>
            <Absolute>88320</Absolute>
            <NoteOff Channel="1" Note="50" Velocity="64"/>
        </Event>
        <Event>
            <Absolute>88320</Absolute>
            <NoteOn Channel="1" Note="48" Velocity="64"/>
        </Event>
        <Event>
            <Absolute>88800</Absolute>
            <NoteOff Channel="1" Note="48" Velocity="64"/>
        </Event>
        <Event>
            <Absolute>89280</Absolute>
            <NoteOn Channel="1" Note="50" Velocity="64"/>
        </Event>
        <Event>
            <Absolute>89760</Absolute>
            <NoteOff Channel="1" Note="50" Velocity="64"/>
        </Event>
        <Event>
            <Absolute>89760</Absolute>
            <NoteOn Channel="1" Note="48" Velocity="64"/>
        </Event>
        <Event>
            <Absolute>90240</Absolute>
            <NoteOff Channel="1" Note="48" Velocity="64"/>
        </Event>
        <Event>
            <Absolute>90240</Absolute>
            <NoteOn Channel="1" Note="48" Velocity="64"/>
        </Event>
        <Event>
            <Absolute>90720</Absolute>
            <NoteOff Channel="1" Note="48" Velocity="64"/>
        </Event>
        <Event>
            <Absolute>91200</Absolute>
            <NoteOn Channel="1" Note="50" Velocity="64"/>
        </Event>
        <Event>
            <Absolute>91680</Absolute>
            <NoteOff Channel="1" Note="50" Velocity="64"/>
        </Event>
        <Event>
            <Absolute>91680</Absolute>
            <NoteOn Channel="1" Note="50" Velocity="64"/>
        </Event>
        <Event>
            <Absolute>92160</Absolute>
            <NoteOff Channel="1" Note="50" Velocity="64"/>
        </Event>
        <Event>
            <Absolute>92160</Absolute>
            <NoteOn Channel="1" Note="48" Velocity="64"/>
        </Event>
        <Event>
            <Absolute>92640</Absolute>
            <NoteOff Channel="1" Note="48" Velocity="64"/>
        </Event>
        <Event>
            <Absolute>93120</Absolute>
            <NoteOn Channel="1" Note="50" Velocity="64"/>
        </Event>
        <Event>
            <Absolute>93600</Absolute>
            <NoteOff Channel="1" Note="50" Velocity="64"/>
        </Event>
        <Event>
            <Absolute>93600</Absolute>
            <NoteOn Channel="1" Note="48" Velocity="64"/>
        </Event>
        <Event>
            <Absolute>94080</Absolute>
            <NoteOff Channel="1" Note="48" Velocity="64"/>
        </Event>
        <Event>
            <Absolute>94080</Absolute>
            <NoteOn Channel="1" Note="48" Velocity="64"/>
        </Event>
        <Event>
            <Absolute>94560</Absolute>
            <NoteOff Channel="1" Note="48" Velocity="64"/>
        </Event>
        <Event>
            <Absolute>95040</Absolute>
            <NoteOn Channel="1" Note="50" Velocity="64"/>
        </Event>
        <Event>
            <Absolute>95520</Absolute>
            <NoteOff Channel="1" Note="50" Velocity="64"/>
        </Event>
        <Event>
            <Absolute>95520</Absolute>
            <NoteOn Channel="1" Note="50" Velocity="64"/>
        </Event>
        <Event>
            <Absolute>96000</Absolute>
            <NoteOff Channel="1" Note="50" Velocity="64"/>
        </Event>
        <Event>
            <Absolute>96000</Absolute>
            <NoteOn Channel="1" Note="48" Velocity="64"/>
        </Event>
        <Event>
            <Absolute>96480</Absolute>
            <NoteOff Channel="1" Note="48" Velocity="64"/>
        </Event>
        <Event>
            <Absolute>96960</Absolute>
            <NoteOn Channel="1" Note="50" Velocity="64"/>
        </Event>
        <Event>
            <Absolute>97440</Absolute>
            <NoteOff Channel="1" Note="50" Velocity="64"/>
        </Event>
        <Event>
            <Absolute>97440</Absolute>
            <NoteOn Channel="1" Note="48" Velocity="64"/>
        </Event>
        <Event>
            <Absolute>97920</Absolute>
            <NoteOff Channel="1" Note="48" Velocity="64"/>
        </Event>
        <Event>
            <Absolute>97920</Absolute>
            <NoteOn Channel="1" Note="48" Velocity="64"/>
        </Event>
        <Event>
            <Absolute>98400</Absolute>
            <NoteOff Channel="1" Note="48" Velocity="64"/>
        </Event>
        <Event>
            <Absolute>98880</Absolute>
            <NoteOn Channel="1" Note="50" Velocity="64"/>
        </Event>
        <Event>
            <Absolute>99360</Absolute>
            <NoteOff Channel="1" Note="50" Velocity="64"/>
        </Event>
        <Event>
            <Absolute>99360</Absolute>
            <NoteOn Channel="1" Note="50" Velocity="64"/>
        </Event>
        <Event>
            <Absolute>99840</Absolute>
            <NoteOff Channel="1" Note="50" Velocity="64"/>
        </Event>
        <Event>
            <Absolute>99840</Absolute>
            <NoteOn Channel="1" Note="48" Velocity="64"/>
        </Event>
        <Event>
            <Absolute>100320</Absolute>
            <NoteOff Channel="1" Note="48" Velocity="64"/>
        </Event>
        <Event>
            <Absolute>100800</Absolute>
            <NoteOn Channel="1" Note="50" Velocity="64"/>
        </Event>
        <Event>
            <Absolute>101280</Absolute>
            <NoteOff Channel="1" Note="50" Velocity="64"/>
        </Event>
        <Event>
            <Absolute>101280</Absolute>
            <NoteOn Channel="1" Note="48" Velocity="64"/>
        </Event>
        <Event>
            <Absolute>101760</Absolute>
            <NoteOff Channel="1" Note="48" Velocity="64"/>
        </Event>
        <Event>
            <Absolute>101760</Absolute>
            <NoteOn Channel="1" Note="48" Velocity="64"/>
        </Event>
        <Event>
            <Absolute>102240</Absolute>
            <NoteOff Channel="1" Note="48" Velocity="64"/>
        </Event>
        <Event>
            <Absolute>102720</Absolute>
            <NoteOn Channel="1" Note="50" Velocity="64"/>
        </Event>
        <Event>
            <Absolute>103200</Absolute>
            <NoteOff Channel="1" Note="50" Velocity="64"/>
        </Event>
        <Event>
            <Absolute>103200</Absolute>
            <NoteOn Channel="1" Note="50" Velocity="64"/>
        </Event>
        <Event>
            <Absolute>103680</Absolute>
            <NoteOff Channel="1" Note="50" Velocity="64"/>
        </Event>
        <Event>
            <Absolute>103680</Absolute>
            <NoteOn Channel="1" Note="48" Velocity="64"/>
        </Event>
        <Event>
            <Absolute>104160</Absolute>
            <NoteOff Channel="1" Note="48" Velocity="64"/>
        </Event>
        <Event>
            <Absolute>104640</Absolute>
            <NoteOn Channel="1" Note="50" Velocity="64"/>
        </Event>
        <Event>
            <Absolute>105120</Absolute>
            <NoteOff Channel="1" Note="50" Velocity="64"/>
        </Event>
        <Event>
            <Absolute>105120</Absolute>
            <NoteOn Channel="1" Note="48" Velocity="64"/>
        </Event>
        <Event>
            <Absolute>105600</Absolute>
            <NoteOff Channel="1" Note="48" Velocity="64"/>
        </Event>
        <Event>
            <Absolute>105600</Absolute>
            <NoteOn Channel="1" Note="48" Velocity="64"/>
        </Event>
        <Event>
            <Absolute>106080</Absolute>
            <NoteOff Channel="1" Note="48" Velocity="64"/>
        </Event>
        <Event>
            <Absolute>106560</Absolute>
            <NoteOn Channel="1" Note="50" Velocity="64"/>
        </Event>
        <Event>
            <Absolute>107040</Absolute>
            <NoteOff Channel="1" Note="50" Velocity="64"/>
        </Event>
        <Event>
            <Absolute>107040</Absolute>
            <NoteOn Channel="1" Note="50" Velocity="64"/>
        </Event>
        <Event>
            <Absolute>107520</Absolute>
            <NoteOff Channel="1" Note="50" Velocity="64"/>
        </Event>
        <Event>
            <Absolute>107520</Absolute>
            <NoteOn Channel="1" Note="48" Velocity="64"/>
        </Event>
        <Event>
            <Absolute>108000</Absolute>
            <NoteOff Channel="1" Note="48" Velocity="64"/>
        </Event>
        <Event>
            <Absolute>108480</Absolute>
            <NoteOn Channel="1" Note="50" Velocity="64"/>
        </Event>
        <Event>
            <Absolute>108960</Absolute>
            <NoteOff Channel="1" Note="50" Velocity="64"/>
        </Event>
        <Event>
            <Absolute>108960</Absolute>
            <NoteOn Channel="1" Note="48" Velocity="64"/>
        </Event>
        <Event>
            <Absolute>109440</Absolute>
            <NoteOff Channel="1" Note="48" Velocity="64"/>
        </Event>
        <Event>
            <Absolute>109440</Absolute>
            <NoteOn Channel="1" Note="48" Velocity="64"/>
        </Event>
        <Event>
            <Absolute>109920</Absolute>
            <NoteOff Channel="1" Note="48" Velocity="64"/>
        </Event>
        <Event>
            <Absolute>110400</Absolute>
            <NoteOn Channel="1" Note="50" Velocity="64"/>
        </Event>
        <Event>
            <Absolute>110880</Absolute>
            <NoteOff Channel="1" Note="50" Velocity="64"/>
        </Event>
        <Event>
            <Absolute>110880</Absolute>
            <NoteOn Channel="1" Note="50" Velocity="64"/>
        </Event>
        <Event>
            <Absolute>111360</Absolute>
            <NoteOff Channel="1" Note="50" Velocity="64"/>
        </Event>
        <Event>
            <Absolute>111360</Absolute>
            <NoteOn Channel="1" Note="48" Velocity="64"/>
        </Event>
        <Event>
            <Absolute>111840</Absolute>
            <NoteOff Channel="1" Note="48" Velocity="64"/>
        </Event>
        <Event>
            <Absolute>112320</Absolute>
            <NoteOn Channel="1" Note="50" Velocity="64"/>
        </Event>
        <Event>
            <Absolute>112800</Absolute>
            <NoteOff Channel="1" Note="50" Velocity="64"/>
        </Event>
        <Event>
            <Absolute>112800</Absolute>
            <NoteOn Channel="1" Note="48" Velocity="64"/>
        </Event>
        <Event>
            <Absolute>113280</Absolute>
            <NoteOff Channel="1" Note="48" Velocity="64"/>
        </Event>
        <Event>
            <Absolute>113280</Absolute>
            <NoteOn Channel="1" Note="48" Velocity="64"/>
        </Event>
        <Event>
            <Absolute>113760</Absolute>
            <NoteOff Channel="1" Note="48" Velocity="64"/>
        </Event>
        <Event>
            <Absolute>114240</Absolute>
            <NoteOn Channel="1" Note="50" Velocity="64"/>
        </Event>
        <Event>
            <Absolute>114720</Absolute>
            <NoteOff Channel="1" Note="50" Velocity="64"/>
        </Event>
        <Event>
            <Absolute>114720</Absolute>
            <NoteOn Channel="1" Note="50" Velocity="64"/>
        </Event>
        <Event>
            <Absolute>115200</Absolute>
            <NoteOff Channel="1" Note="50" Velocity="64"/>
        </Event>
        <Event>
            <Absolute>115200</Absolute>
            <NoteOn Channel="1" Note="48" Velocity="64"/>
        </Event>
        <Event>
            <Absolute>115680</Absolute>
            <NoteOff Channel="1" Note="48" Velocity="64"/>
        </Event>
        <Event>
            <Absolute>116160</Absolute>
            <NoteOn Channel="1" Note="50" Velocity="64"/>
        </Event>
        <Event>
            <Absolute>116640</Absolute>
            <NoteOff Channel="1" Note="50" Velocity="64"/>
        </Event>
        <Event>
            <Absolute>116640</Absolute>
            <NoteOn Channel="1" Note="48" Velocity="64"/>
        </Event>
        <Event>
            <Absolute>117120</Absolute>
            <NoteOff Channel="1" Note="48" Velocity="64"/>
        </Event>
        <Event>
            <Absolute>117120</Absolute>
            <NoteOn Channel="1" Note="48" Velocity="64"/>
        </Event>
        <Event>
            <Absolute>117600</Absolute>
            <NoteOff Channel="1" Note="48" Velocity="64"/>
        </Event>
        <Event>
            <Absolute>118080</Absolute>
            <NoteOn Channel="1" Note="50" Velocity="64"/>
        </Event>
        <Event>
            <Absolute>118560</Absolute>
            <NoteOff Channel="1" Note="50" Velocity="64"/>
        </Event>
        <Event>
            <Absolute>118560</Absolute>
            <NoteOn Channel="1" Note="50" Velocity="64"/>
        </Event>
        <Event>
            <Absolute>119040</Absolute>
            <NoteOff Channel="1" Note="50" Velocity="64"/>
        </Event>
        <Event>
            <Absolute>119040</Absolute>
            <NoteOn Channel="1" Note="48" Velocity="64"/>
        </Event>
        <Event>
            <Absolute>119520</Absolute>
            <NoteOff Channel="1" Note="48" Velocity="64"/>
        </Event>
        <Event>
            <Absolute>120000</Absolute>
            <NoteOn Channel="1" Note="50" Velocity="64"/>
        </Event>
        <Event>
            <Absolute>120480</Absolute>
            <NoteOff Channel="1" Note="50" Velocity="64"/>
        </Event>
        <Event>
            <Absolute>120480</Absolute>
            <NoteOn Channel="1" Note="48" Velocity="64"/>
        </Event>
        <Event>
            <Absolute>120960</Absolute>
            <NoteOff Channel="1" Note="48" Velocity="64"/>
        </Event>
        <Event>
            <Absolute>120960</Absolute>
            <NoteOn Channel="1" Note="48" Velocity="64"/>
        </Event>
        <Event>
            <Absolute>121440</Absolute>
            <NoteOff Channel="1" Note="48" Velocity="64"/>
        </Event>
        <Event>
            <Absolute>121920</Absolute>
            <NoteOn Channel="1" Note="50" Velocity="64"/>
        </Event>
        <Event>
            <Absolute>122400</Absolute>
            <NoteOff Channel="1" Note="50" Velocity="64"/>
        </Event>
        <Event>
            <Absolute>122400</Absolute>
            <NoteOn Channel="1" Note="50" Velocity="64"/>
        </Event>
        <Event>
            <Absolute>122880</Absolute>
            <NoteOff Channel="1" Note="50" Velocity="64"/>
        </Event>
        <Event>
            <Absolute>122880</Absolute>
            <NoteOn Channel="1" Note="50" Velocity="64"/>
        </Event>
        <Event>
            <Absolute>122880</Absolute>
            <NoteOn Channel="1" Note="48" Velocity="64"/>
        </Event>
        <Event>
            <Absolute>123360</Absolute>
            <NoteOff Channel="1" Note="50" Velocity="64"/>
        </Event>
        <Event>
            <Absolute>123360</Absolute>
            <NoteOff Channel="1" Note="48" Velocity="64"/>
        </Event>
        <Event>
            <Absolute>123840</Absolute>
            <NoteOn Channel="1" Note="48" Velocity="64"/>
        </Event>
        <Event>
            <Absolute>123840</Absolute>
            <NoteOn Channel="1" Note="50" Velocity="64"/>
        </Event>
        <Event>
            <Absolute>124320</Absolute>
            <NoteOff Channel="1" Note="48" Velocity="64"/>
        </Event>
        <Event>
            <Absolute>124320</Absolute>
            <NoteOff Channel="1" Note="50" Velocity="64"/>
        </Event>
        <Event>
            <Absolute>124800</Absolute>
            <NoteOn Channel="1" Note="48" Velocity="64"/>
        </Event>
        <Event>
            <Absolute>124800</Absolute>
            <NoteOn Channel="1" Note="50" Velocity="64"/>
        </Event>
        <Event>
            <Absolute>125280</Absolute>
            <NoteOff Channel="1" Note="48" Velocity="64"/>
        </Event>
        <Event>
            <Absolute>125280</Absolute>
            <NoteOff Channel="1" Note="50" Velocity="64"/>
        </Event>
        <Event>
            <Absolute>125760</Absolute>
            <NoteOn Channel="1" Note="48" Velocity="64"/>
        </Event>
        <Event>
            <Absolute>125760</Absolute>
            <NoteOn Channel="1" Note="50" Velocity="64"/>
        </Event>
        <Event>
            <Absolute>126000</Absolute>
            <NoteOff Channel="1" Note="48" Velocity="64"/>
        </Event>
        <Event>
            <Absolute>126000</Absolute>
            <NoteOff Channel="1" Note="50" Velocity="64"/>
        </Event>
        <Event>
            <Absolute>126720</Absolute>
            <NoteOn Channel="1" Note="50" Velocity="64"/>
        </Event>
        <Event>
            <Absolute>126720</Absolute>
            <NoteOn Channel="1" Note="48" Velocity="64"/>
        </Event>
        <Event>
            <Absolute>127200</Absolute>
            <NoteOff Channel="1" Note="50" Velocity="64"/>
        </Event>
        <Event>
            <Absolute>127200</Absolute>
            <NoteOff Channel="1" Note="48" Velocity="64"/>
        </Event>
        <Event>
            <Absolute>127680</Absolute>
            <NoteOn Channel="1" Note="48" Velocity="64"/>
        </Event>
        <Event>
            <Absolute>127680</Absolute>
            <NoteOn Channel="1" Note="50" Velocity="64"/>
        </Event>
        <Event>
            <Absolute>128160</Absolute>
            <NoteOff Channel="1" Note="48" Velocity="64"/>
        </Event>
        <Event>
            <Absolute>128160</Absolute>
            <NoteOff Channel="1" Note="50" Velocity="64"/>
        </Event>
        <Event>
            <Absolute>128640</Absolute>
            <NoteOn Channel="1" Note="48" Velocity="64"/>
        </Event>
        <Event>
            <Absolute>128640</Absolute>
            <NoteOn Channel="1" Note="50" Velocity="64"/>
        </Event>
        <Event>
            <Absolute>129120</Absolute>
            <NoteOff Channel="1" Note="48" Velocity="64"/>
        </Event>
        <Event>
            <Absolute>129120</Absolute>
            <NoteOff Channel="1" Note="50" Velocity="64"/>
        </Event>
        <Event>
            <Absolute>129600</Absolute>
            <NoteOn Channel="1" Note="48" Velocity="64"/>
        </Event>
        <Event>
            <Absolute>129600</Absolute>
            <NoteOn Channel="1" Note="50" Velocity="64"/>
        </Event>
        <Event>
            <Absolute>129840</Absolute>
            <NoteOff Channel="1" Note="48" Velocity="64"/>
        </Event>
        <Event>
            <Absolute>129840</Absolute>
            <NoteOff Channel="1" Note="50" Velocity="64"/>
        </Event>
        <Event>
            <Absolute>130560</Absolute>
            <NoteOn Channel="1" Note="50" Velocity="64"/>
        </Event>
        <Event>
            <Absolute>130560</Absolute>
            <NoteOn Channel="1" Note="48" Velocity="64"/>
        </Event>
        <Event>
            <Absolute>131040</Absolute>
            <NoteOff Channel="1" Note="50" Velocity="64"/>
        </Event>
        <Event>
            <Absolute>131040</Absolute>
            <NoteOff Channel="1" Note="48" Velocity="64"/>
        </Event>
        <Event>
            <Absolute>131520</Absolute>
            <NoteOn Channel="1" Note="48" Velocity="64"/>
        </Event>
        <Event>
            <Absolute>131520</Absolute>
            <NoteOn Channel="1" Note="50" Velocity="64"/>
        </Event>
        <Event>
            <Absolute>132000</Absolute>
            <NoteOff Channel="1" Note="48" Velocity="64"/>
        </Event>
        <Event>
            <Absolute>132000</Absolute>
            <NoteOff Channel="1" Note="50" Velocity="64"/>
        </Event>
        <Event>
            <Absolute>132480</Absolute>
            <NoteOn Channel="1" Note="48" Velocity="64"/>
        </Event>
        <Event>
            <Absolute>132480</Absolute>
            <NoteOn Channel="1" Note="50" Velocity="64"/>
        </Event>
        <Event>
            <Absolute>132960</Absolute>
            <NoteOff Channel="1" Note="48" Velocity="64"/>
        </Event>
        <Event>
            <Absolute>132960</Absolute>
            <NoteOff Channel="1" Note="50" Velocity="64"/>
        </Event>
        <Event>
            <Absolute>133440</Absolute>
            <NoteOn Channel="1" Note="48" Velocity="64"/>
        </Event>
        <Event>
            <Absolute>133440</Absolute>
            <NoteOn Channel="1" Note="50" Velocity="64"/>
        </Event>
        <Event>
            <Absolute>133680</Absolute>
            <NoteOff Channel="1" Note="48" Velocity="64"/>
        </Event>
        <Event>
            <Absolute>133680</Absolute>
            <NoteOff Channel="1" Note="50" Velocity="64"/>
        </Event>
        <Event>
            <Absolute>134400</Absolute>
            <NoteOn Channel="1" Note="50" Velocity="64"/>
        </Event>
        <Event>
            <Absolute>134400</Absolute>
            <NoteOn Channel="1" Note="48" Velocity="64"/>
        </Event>
        <Event>
            <Absolute>134880</Absolute>
            <NoteOff Channel="1" Note="50" Velocity="64"/>
        </Event>
        <Event>
            <Absolute>134880</Absolute>
            <NoteOff Channel="1" Note="48" Velocity="64"/>
        </Event>
        <Event>
            <Absolute>135360</Absolute>
            <NoteOn Channel="1" Note="48" Velocity="64"/>
        </Event>
        <Event>
            <Absolute>135360</Absolute>
            <NoteOn Channel="1" Note="50" Velocity="64"/>
        </Event>
        <Event>
            <Absolute>135840</Absolute>
            <NoteOff Channel="1" Note="48" Velocity="64"/>
        </Event>
        <Event>
            <Absolute>135840</Absolute>
            <NoteOff Channel="1" Note="50" Velocity="64"/>
        </Event>
        <Event>
            <Absolute>136320</Absolute>
            <NoteOn Channel="1" Note="48" Velocity="64"/>
        </Event>
        <Event>
            <Absolute>136320</Absolute>
            <NoteOn Channel="1" Note="50" Velocity="64"/>
        </Event>
        <Event>
            <Absolute>136800</Absolute>
            <NoteOff Channel="1" Note="48" Velocity="64"/>
        </Event>
        <Event>
            <Absolute>136800</Absolute>
            <NoteOff Channel="1" Note="50" Velocity="64"/>
        </Event>
        <Event>
            <Absolute>137280</Absolute>
            <NoteOn Channel="1" Note="48" Velocity="64"/>
        </Event>
        <Event>
            <Absolute>137280</Absolute>
            <NoteOn Channel="1" Note="50" Velocity="64"/>
        </Event>
        <Event>
            <Absolute>137520</Absolute>
            <NoteOff Channel="1" Note="48" Velocity="64"/>
        </Event>
        <Event>
            <Absolute>137520</Absolute>
            <NoteOff Channel="1" Note="50" Velocity="64"/>
        </Event>
        <Event>
            <Absolute>138240</Absolute>
            <NoteOn Channel="1" Note="50" Velocity="64"/>
        </Event>
        <Event>
            <Absolute>138240</Absolute>
            <NoteOn Channel="1" Note="48" Velocity="64"/>
        </Event>
        <Event>
            <Absolute>138720</Absolute>
            <NoteOff Channel="1" Note="50" Velocity="64"/>
        </Event>
        <Event>
            <Absolute>138720</Absolute>
            <NoteOff Channel="1" Note="48" Velocity="64"/>
        </Event>
        <Event>
            <Absolute>139200</Absolute>
            <NoteOn Channel="1" Note="48" Velocity="64"/>
        </Event>
        <Event>
            <Absolute>139200</Absolute>
            <NoteOn Channel="1" Note="50" Velocity="64"/>
        </Event>
        <Event>
            <Absolute>139680</Absolute>
            <NoteOff Channel="1" Note="48" Velocity="64"/>
        </Event>
        <Event>
            <Absolute>139680</Absolute>
            <NoteOff Channel="1" Note="50" Velocity="64"/>
        </Event>
        <Event>
            <Absolute>140160</Absolute>
            <NoteOn Channel="1" Note="48" Velocity="64"/>
        </Event>
        <Event>
            <Absolute>140160</Absolute>
            <NoteOn Channel="1" Note="50" Velocity="64"/>
        </Event>
        <Event>
            <Absolute>140640</Absolute>
            <NoteOff Channel="1" Note="48" Velocity="64"/>
        </Event>
        <Event>
            <Absolute>140640</Absolute>
            <NoteOff Channel="1" Note="50" Velocity="64"/>
        </Event>
        <Event>
            <Absolute>141120</Absolute>
            <NoteOn Channel="1" Note="48" Velocity="64"/>
        </Event>
        <Event>
            <Absolute>141120</Absolute>
            <NoteOn Channel="1" Note="50" Velocity="64"/>
        </Event>
        <Event>
            <Absolute>141360</Absolute>
            <NoteOff Channel="1" Note="48" Velocity="64"/>
        </Event>
        <Event>
            <Absolute>141360</Absolute>
            <NoteOff Channel="1" Note="50" Velocity="64"/>
        </Event>
        <Event>
            <Absolute>142080</Absolute>
            <NoteOn Channel="1" Note="50" Velocity="64"/>
        </Event>
        <Event>
            <Absolute>142080</Absolute>
            <NoteOn Channel="1" Note="48" Velocity="64"/>
        </Event>
        <Event>
            <Absolute>142560</Absolute>
            <NoteOff Channel="1" Note="50" Velocity="64"/>
        </Event>
        <Event>
            <Absolute>142560</Absolute>
            <NoteOff Channel="1" Note="48" Velocity="64"/>
        </Event>
        <Event>
            <Absolute>143040</Absolute>
            <NoteOn Channel="1" Note="48" Velocity="64"/>
        </Event>
        <Event>
            <Absolute>143040</Absolute>
            <NoteOn Channel="1" Note="50" Velocity="64"/>
        </Event>
        <Event>
            <Absolute>143520</Absolute>
            <NoteOff Channel="1" Note="48" Velocity="64"/>
        </Event>
        <Event>
            <Absolute>143520</Absolute>
            <NoteOff Channel="1" Note="50" Velocity="64"/>
        </Event>
        <Event>
            <Absolute>144000</Absolute>
            <NoteOn Channel="1" Note="48" Velocity="64"/>
        </Event>
        <Event>
            <Absolute>144000</Absolute>
            <NoteOn Channel="1" Note="50" Velocity="64"/>
        </Event>
        <Event>
            <Absolute>144480</Absolute>
            <NoteOff Channel="1" Note="48" Velocity="64"/>
        </Event>
        <Event>
            <Absolute>144480</Absolute>
            <NoteOff Channel="1" Note="50" Velocity="64"/>
        </Event>
        <Event>
            <Absolute>144960</Absolute>
            <NoteOn Channel="1" Note="48" Velocity="64"/>
        </Event>
        <Event>
            <Absolute>144960</Absolute>
            <NoteOn Channel="1" Note="50" Velocity="64"/>
        </Event>
        <Event>
            <Absolute>145200</Absolute>
            <NoteOff Channel="1" Note="48" Velocity="64"/>
        </Event>
        <Event>
            <Absolute>145200</Absolute>
            <NoteOff Channel="1" Note="50" Velocity="64"/>
        </Event>
        <Event>
            <Absolute>145920</Absolute>
            <NoteOn Channel="1" Note="50" Velocity="64"/>
        </Event>
        <Event>
            <Absolute>145920</Absolute>
            <NoteOn Channel="1" Note="48" Velocity="64"/>
        </Event>
        <Event>
            <Absolute>146400</Absolute>
            <NoteOff Channel="1" Note="50" Velocity="64"/>
        </Event>
        <Event>
            <Absolute>146400</Absolute>
            <NoteOff Channel="1" Note="48" Velocity="64"/>
        </Event>
        <Event>
            <Absolute>146880</Absolute>
            <NoteOn Channel="1" Note="48" Velocity="64"/>
        </Event>
        <Event>
            <Absolute>146880</Absolute>
            <NoteOn Channel="1" Note="50" Velocity="64"/>
        </Event>
        <Event>
            <Absolute>147360</Absolute>
            <NoteOff Channel="1" Note="48" Velocity="64"/>
        </Event>
        <Event>
            <Absolute>147360</Absolute>
            <NoteOff Channel="1" Note="50" Velocity="64"/>
        </Event>
        <Event>
            <Absolute>147840</Absolute>
            <NoteOn Channel="1" Note="48" Velocity="64"/>
        </Event>
        <Event>
            <Absolute>147840</Absolute>
            <NoteOn Channel="1" Note="50" Velocity="64"/>
        </Event>
        <Event>
            <Absolute>148320</Absolute>
            <NoteOff Channel="1" Note="48" Velocity="64"/>
        </Event>
        <Event>
            <Absolute>148320</Absolute>
            <NoteOff Channel="1" Note="50" Velocity="64"/>
        </Event>
        <Event>
            <Absolute>148800</Absolute>
            <NoteOn Channel="1" Note="48" Velocity="64"/>
        </Event>
        <Event>
            <Absolute>148800</Absolute>
            <NoteOn Channel="1" Note="50" Velocity="64"/>
        </Event>
        <Event>
            <Absolute>149040</Absolute>
            <NoteOff Channel="1" Note="48" Velocity="64"/>
        </Event>
        <Event>
            <Absolute>149040</Absolute>
            <NoteOff Channel="1" Note="50" Velocity="64"/>
        </Event>
        <Event>
            <Absolute>149760</Absolute>
            <NoteOn Channel="1" Note="50" Velocity="64"/>
        </Event>
        <Event>
            <Absolute>149760</Absolute>
            <NoteOn Channel="1" Note="48" Velocity="64"/>
        </Event>
        <Event>
            <Absolute>150240</Absolute>
            <NoteOff Channel="1" Note="50" Velocity="64"/>
        </Event>
        <Event>
            <Absolute>150240</Absolute>
            <NoteOff Channel="1" Note="48" Velocity="64"/>
        </Event>
        <Event>
            <Absolute>150720</Absolute>
            <NoteOn Channel="1" Note="48" Velocity="64"/>
        </Event>
        <Event>
            <Absolute>150720</Absolute>
            <NoteOn Channel="1" Note="50" Velocity="64"/>
        </Event>
        <Event>
            <Absolute>151200</Absolute>
            <NoteOff Channel="1" Note="48" Velocity="64"/>
        </Event>
        <Event>
            <Absolute>151200</Absolute>
            <NoteOff Channel="1" Note="50" Velocity="64"/>
        </Event>
        <Event>
            <Absolute>151680</Absolute>
            <NoteOn Channel="1" Note="48" Velocity="64"/>
        </Event>
        <Event>
            <Absolute>151680</Absolute>
            <NoteOn Channel="1" Note="50" Velocity="64"/>
        </Event>
        <Event>
            <Absolute>152160</Absolute>
            <NoteOff Channel="1" Note="48" Velocity="64"/>
        </Event>
        <Event>
            <Absolute>152160</Absolute>
            <NoteOff Channel="1" Note="50" Velocity="64"/>
        </Event>
        <Event>
            <Absolute>152640</Absolute>
            <NoteOn Channel="1" Note="48" Velocity="64"/>
        </Event>
        <Event>
            <Absolute>152640</Absolute>
            <NoteOn Channel="1" Note="50" Velocity="64"/>
        </Event>
        <Event>
            <Absolute>152880</Absolute>
            <NoteOff Channel="1" Note="48" Velocity="64"/>
        </Event>
        <Event>
            <Absolute>152880</Absolute>
            <NoteOff Channel="1" Note="50" Velocity="64"/>
        </Event>
        <Event>
            <Absolute>153600</Absolute>
            <NoteOn Channel="1" Note="48" Velocity="95"/>
        </Event>
        <Event>
            <Absolute>154080</Absolute>
            <NoteOff Channel="1" Note="48" Velocity="95"/>
        </Event>
        <Event>
            <Absolute>154200</Absolute>
            <NoteOn Channel="1" Note="48" Velocity="95"/>
        </Event>
        <Event>
            <Absolute>154440</Absolute>
            <NoteOff Channel="1" Note="48" Velocity="95"/>
        </Event>
        <Event>
            <Absolute>154560</Absolute>
            <NoteOn Channel="1" Note="50" Velocity="95"/>
        </Event>
        <Event>
            <Absolute>155040</Absolute>
            <NoteOff Channel="1" Note="50" Velocity="95"/>
        </Event>
        <Event>
            <Absolute>155160</Absolute>
            <NoteOn Channel="1" Note="50" Velocity="95"/>
        </Event>
        <Event>
            <Absolute>155400</Absolute>
            <NoteOff Channel="1" Note="50" Velocity="95"/>
        </Event>
        <Event>
            <Absolute>155520</Absolute>
            <NoteOn Channel="1" Note="48" Velocity="95"/>
        </Event>
        <Event>
            <Absolute>156000</Absolute>
            <NoteOff Channel="1" Note="48" Velocity="95"/>
        </Event>
        <Event>
            <Absolute>156120</Absolute>
            <NoteOn Channel="1" Note="48" Velocity="95"/>
        </Event>
        <Event>
            <Absolute>156360</Absolute>
            <NoteOff Channel="1" Note="48" Velocity="95"/>
        </Event>
        <Event>
            <Absolute>156480</Absolute>
            <NoteOn Channel="1" Note="50" Velocity="95"/>
        </Event>
        <Event>
            <Absolute>156960</Absolute>
            <NoteOff Channel="1" Note="50" Velocity="95"/>
        </Event>
        <Event>
            <Absolute>157080</Absolute>
            <NoteOn Channel="1" Note="50" Velocity="95"/>
        </Event>
        <Event>
            <Absolute>157320</Absolute>
            <NoteOff Channel="1" Note="50" Velocity="95"/>
        </Event>
        <Event>
            <Absolute>157440</Absolute>
            <NoteOn Channel="1" Note="48" Velocity="95"/>
        </Event>
        <Event>
            <Absolute>157920</Absolute>
            <NoteOff Channel="1" Note="48" Velocity="95"/>
        </Event>
        <Event>
            <Absolute>158040</Absolute>
            <NoteOn Channel="1" Note="48" Velocity="95"/>
        </Event>
        <Event>
            <Absolute>158280</Absolute>
            <NoteOff Channel="1" Note="48" Velocity="95"/>
        </Event>
        <Event>
            <Absolute>158400</Absolute>
            <NoteOn Channel="1" Note="50" Velocity="95"/>
        </Event>
        <Event>
            <Absolute>158880</Absolute>
            <NoteOff Channel="1" Note="50" Velocity="95"/>
        </Event>
        <Event>
            <Absolute>159000</Absolute>
            <NoteOn Channel="1" Note="50" Velocity="95"/>
        </Event>
        <Event>
            <Absolute>159240</Absolute>
            <NoteOff Channel="1" Note="50" Velocity="95"/>
        </Event>
        <Event>
            <Absolute>159360</Absolute>
            <NoteOn Channel="1" Note="48" Velocity="95"/>
        </Event>
        <Event>
            <Absolute>159840</Absolute>
            <NoteOff Channel="1" Note="48" Velocity="95"/>
        </Event>
        <Event>
            <Absolute>159960</Absolute>
            <NoteOn Channel="1" Note="48" Velocity="95"/>
        </Event>
        <Event>
            <Absolute>160200</Absolute>
            <NoteOff Channel="1" Note="48" Velocity="95"/>
        </Event>
        <Event>
            <Absolute>160320</Absolute>
            <NoteOn Channel="1" Note="50" Velocity="95"/>
        </Event>
        <Event>
            <Absolute>160800</Absolute>
            <NoteOff Channel="1" Note="50" Velocity="95"/>
        </Event>
        <Event>
            <Absolute>160920</Absolute>
            <NoteOn Channel="1" Note="50" Velocity="95"/>
        </Event>
        <Event>
            <Absolute>161160</Absolute>
            <NoteOff Channel="1" Note="50" Velocity="95"/>
        </Event>
        <Event>
            <Absolute>161280</Absolute>
            <NoteOn Channel="1" Note="48" Velocity="95"/>
        </Event>
        <Event>
            <Absolute>161760</Absolute>
            <NoteOff Channel="1" Note="48" Velocity="95"/>
        </Event>
        <Event>
            <Absolute>161880</Absolute>
            <NoteOn Channel="1" Note="48" Velocity="95"/>
        </Event>
        <Event>
            <Absolute>162120</Absolute>
            <NoteOff Channel="1" Note="48" Velocity="95"/>
        </Event>
        <Event>
            <Absolute>162240</Absolute>
            <NoteOn Channel="1" Note="50" Velocity="95"/>
        </Event>
        <Event>
            <Absolute>162720</Absolute>
            <NoteOff Channel="1" Note="50" Velocity="95"/>
        </Event>
        <Event>
            <Absolute>162840</Absolute>
            <NoteOn Channel="1" Note="50" Velocity="95"/>
        </Event>
        <Event>
            <Absolute>163080</Absolute>
            <NoteOff Channel="1" Note="50" Velocity="95"/>
        </Event>
        <Event>
            <Absolute>163200</Absolute>
            <NoteOn Channel="1" Note="48" Velocity="95"/>
        </Event>
        <Event>
            <Absolute>163680</Absolute>
            <NoteOff Channel="1" Note="48" Velocity="95"/>
        </Event>
        <Event>
            <Absolute>163800</Absolute>
            <NoteOn Channel="1" Note="48" Velocity="95"/>
        </Event>
        <Event>
            <Absolute>164040</Absolute>
            <NoteOff Channel="1" Note="48" Velocity="95"/>
        </Event>
        <Event>
            <Absolute>164160</Absolute>
            <NoteOn Channel="1" Note="50" Velocity="95"/>
        </Event>
        <Event>
            <Absolute>164640</Absolute>
            <NoteOff Channel="1" Note="50" Velocity="95"/>
        </Event>
        <Event>
            <Absolute>164760</Absolute>
            <NoteOn Channel="1" Note="50" Velocity="95"/>
        </Event>
        <Event>
            <Absolute>165000</Absolute>
            <NoteOff Channel="1" Note="50" Velocity="95"/>
        </Event>
        <Event>
            <Absolute>165120</Absolute>
            <NoteOn Channel="1" Note="48" Velocity="95"/>
        </Event>
        <Event>
            <Absolute>165600</Absolute>
            <NoteOff Channel="1" Note="48" Velocity="95"/>
        </Event>
        <Event>
            <Absolute>165720</Absolute>
            <NoteOn Channel="1" Note="48" Velocity="95"/>
        </Event>
        <Event>
            <Absolute>165960</Absolute>
            <NoteOff Channel="1" Note="48" Velocity="95"/>
        </Event>
        <Event>
            <Absolute>166080</Absolute>
            <NoteOn Channel="1" Note="50" Velocity="95"/>
        </Event>
        <Event>
            <Absolute>166560</Absolute>
            <NoteOff Channel="1" Note="50" Velocity="95"/>
        </Event>
        <Event>
            <Absolute>166680</Absolute>
            <NoteOn Channel="1" Note="50" Velocity="95"/>
        </Event>
        <Event>
            <Absolute>166920</Absolute>
            <NoteOff Channel="1" Note="50" Velocity="95"/>
        </Event>
        <Event>
            <Absolute>167040</Absolute>
            <NoteOn Channel="1" Note="48" Velocity="95"/>
        </Event>
        <Event>
            <Absolute>167520</Absolute>
            <NoteOff Channel="1" Note="48" Velocity="95"/>
        </Event>
        <Event>
            <Absolute>167640</Absolute>
            <NoteOn Channel="1" Note="48" Velocity="95"/>
        </Event>
        <Event>
            <Absolute>167880</Absolute>
            <NoteOff Channel="1" Note="48" Velocity="95"/>
        </Event>
        <Event>
            <Absolute>168000</Absolute>
            <NoteOn Channel="1" Note="50" Velocity="95"/>
        </Event>
        <Event>
            <Absolute>168480</Absolute>
            <NoteOff Channel="1" Note="50" Velocity="95"/>
        </Event>
        <Event>
            <Absolute>168600</Absolute>
            <NoteOn Channel="1" Note="50" Velocity="95"/>
        </Event>
        <Event>
            <Absolute>168840</Absolute>
            <NoteOff Channel="1" Note="50" Velocity="95"/>
        </Event>
        <Event>
            <Absolute>168960</Absolute>
            <NoteOn Channel="1" Note="48" Velocity="95"/>
        </Event>
        <Event>
            <Absolute>169440</Absolute>
            <NoteOff Channel="1" Note="48" Velocity="95"/>
        </Event>
        <Event>
            <Absolute>169560</Absolute>
            <NoteOn Channel="1" Note="48" Velocity="95"/>
        </Event>
        <Event>
            <Absolute>169800</Absolute>
            <NoteOff Channel="1" Note="48" Velocity="95"/>
        </Event>
        <Event>
            <Absolute>169920</Absolute>
            <NoteOn Channel="1" Note="50" Velocity="95"/>
        </Event>
        <Event>
            <Absolute>170400</Absolute>
            <NoteOff Channel="1" Note="50" Velocity="95"/>
        </Event>
        <Event>
            <Absolute>170520</Absolute>
            <NoteOn Channel="1" Note="50" Velocity="95"/>
        </Event>
        <Event>
            <Absolute>170760</Absolute>
            <NoteOff Channel="1" Note="50" Velocity="95"/>
        </Event>
        <Event>
            <Absolute>170880</Absolute>
            <NoteOn Channel="1" Note="48" Velocity="95"/>
        </Event>
        <Event>
            <Absolute>171360</Absolute>
            <NoteOff Channel="1" Note="48" Velocity="95"/>
        </Event>
        <Event>
            <Absolute>171480</Absolute>
            <NoteOn Channel="1" Note="48" Velocity="95"/>
        </Event>
        <Event>
            <Absolute>171720</Absolute>
            <NoteOff Channel="1" Note="48" Velocity="95"/>
        </Event>
        <Event>
            <Absolute>171840</Absolute>
            <NoteOn Channel="1" Note="50" Velocity="95"/>
        </Event>
        <Event>
            <Absolute>172320</Absolute>
            <NoteOff Channel="1" Note="50" Velocity="95"/>
        </Event>
        <Event>
            <Absolute>172440</Absolute>
            <NoteOn Channel="1" Note="50" Velocity="95"/>
        </Event>
        <Event>
            <Absolute>172680</Absolute>
            <NoteOff Channel="1" Note="50" Velocity="95"/>
        </Event>
        <Event>
            <Absolute>172800</Absolute>
            <NoteOn Channel="1" Note="48" Velocity="95"/>
        </Event>
        <Event>
            <Absolute>173280</Absolute>
            <NoteOff Channel="1" Note="48" Velocity="95"/>
        </Event>
        <Event>
            <Absolute>173400</Absolute>
            <NoteOn Channel="1" Note="48" Velocity="95"/>
        </Event>
        <Event>
            <Absolute>173640</Absolute>
            <NoteOff Channel="1" Note="48" Velocity="95"/>
        </Event>
        <Event>
            <Absolute>173760</Absolute>
            <NoteOn Channel="1" Note="50" Velocity="95"/>
        </Event>
        <Event>
            <Absolute>174240</Absolute>
            <NoteOff Channel="1" Note="50" Velocity="95"/>
        </Event>
        <Event>
            <Absolute>174360</Absolute>
            <NoteOn Channel="1" Note="50" Velocity="95"/>
        </Event>
        <Event>
            <Absolute>174600</Absolute>
            <NoteOff Channel="1" Note="50" Velocity="95"/>
        </Event>
        <Event>
            <Absolute>174720</Absolute>
            <NoteOn Channel="1" Note="48" Velocity="95"/>
        </Event>
        <Event>
            <Absolute>175200</Absolute>
            <NoteOff Channel="1" Note="48" Velocity="95"/>
        </Event>
        <Event>
            <Absolute>175320</Absolute>
            <NoteOn Channel="1" Note="48" Velocity="95"/>
        </Event>
        <Event>
            <Absolute>175560</Absolute>
            <NoteOff Channel="1" Note="48" Velocity="95"/>
        </Event>
        <Event>
            <Absolute>175680</Absolute>
            <NoteOn Channel="1" Note="50" Velocity="95"/>
        </Event>
        <Event>
            <Absolute>176160</Absolute>
            <NoteOff Channel="1" Note="50" Velocity="95"/>
        </Event>
        <Event>
            <Absolute>176280</Absolute>
            <NoteOn Channel="1" Note="50" Velocity="95"/>
        </Event>
        <Event>
            <Absolute>176520</Absolute>
            <NoteOff Channel="1" Note="50" Velocity="95"/>
        </Event>
        <Event>
            <Absolute>176640</Absolute>
            <NoteOn Channel="1" Note="48" Velocity="95"/>
        </Event>
        <Event>
            <Absolute>177120</Absolute>
            <NoteOff Channel="1" Note="48" Velocity="95"/>
        </Event>
        <Event>
            <Absolute>177240</Absolute>
            <NoteOn Channel="1" Note="48" Velocity="95"/>
        </Event>
        <Event>
            <Absolute>177480</Absolute>
            <NoteOff Channel="1" Note="48" Velocity="95"/>
        </Event>
        <Event>
            <Absolute>177600</Absolute>
            <NoteOn Channel="1" Note="50" Velocity="95"/>
        </Event>
        <Event>
            <Absolute>178080</Absolute>
            <NoteOff Channel="1" Note="50" Velocity="95"/>
        </Event>
        <Event>
            <Absolute>178200</Absolute>
            <NoteOn Channel="1" Note="50" Velocity="95"/>
        </Event>
        <Event>
            <Absolute>178440</Absolute>
            <NoteOff Channel="1" Note="50" Velocity="95"/>
        </Event>
        <Event>
            <Absolute>178560</Absolute>
            <NoteOn Channel="1" Note="48" Velocity="95"/>
        </Event>
        <Event>
            <Absolute>179040</Absolute>
            <NoteOff Channel="1" Note="48" Velocity="95"/>
        </Event>
        <Event>
            <Absolute>179160</Absolute>
            <NoteOn Channel="1" Note="48" Velocity="95"/>
        </Event>
        <Event>
            <Absolute>179400</Absolute>
            <NoteOff Channel="1" Note="48" Velocity="95"/>
        </Event>
        <Event>
            <Absolute>179520</Absolute>
            <NoteOn Channel="1" Note="50" Velocity="95"/>
        </Event>
        <Event>
            <Absolute>180000</Absolute>
            <NoteOff Channel="1" Note="50" Velocity="95"/>
        </Event>
        <Event>
            <Absolute>180120</Absolute>
            <NoteOn Channel="1" Note="50" Velocity="95"/>
        </Event>
        <Event>
            <Absolute>180360</Absolute>
            <NoteOff Channel="1" Note="50" Velocity="95"/>
        </Event>
        <Event>
            <Absolute>180480</Absolute>
            <NoteOn Channel="1" Note="48" Velocity="95"/>
        </Event>
        <Event>
            <Absolute>180960</Absolute>
            <NoteOff Channel="1" Note="48" Velocity="95"/>
        </Event>
        <Event>
            <Absolute>181080</Absolute>
            <NoteOn Channel="1" Note="48" Velocity="95"/>
        </Event>
        <Event>
            <Absolute>181320</Absolute>
            <NoteOff Channel="1" Note="48" Velocity="95"/>
        </Event>
        <Event>
            <Absolute>181440</Absolute>
            <NoteOn Channel="1" Note="50" Velocity="95"/>
        </Event>
        <Event>
            <Absolute>181920</Absolute>
            <NoteOff Channel="1" Note="50" Velocity="95"/>
        </Event>
        <Event>
            <Absolute>182040</Absolute>
            <NoteOn Channel="1" Note="50" Velocity="95"/>
        </Event>
        <Event>
            <Absolute>182280</Absolute>
            <NoteOff Channel="1" Note="50" Velocity="95"/>
        </Event>
        <Event>
            <Absolute>182400</Absolute>
            <NoteOn Channel="1" Note="48" Velocity="95"/>
        </Event>
        <Event>
            <Absolute>182880</Absolute>
            <NoteOff Channel="1" Note="48" Velocity="95"/>
        </Event>
        <Event>
            <Absolute>183000</Absolute>
            <NoteOn Channel="1" Note="48" Velocity="95"/>
        </Event>
        <Event>
            <Absolute>183240</Absolute>
            <NoteOff Channel="1" Note="48" Velocity="95"/>
        </Event>
        <Event>
            <Absolute>183360</Absolute>
            <NoteOn Channel="1" Note="50" Velocity="95"/>
        </Event>
        <Event>
            <Absolute>183840</Absolute>
            <NoteOff Channel="1" Note="50" Velocity="95"/>
        </Event>
        <Event>
            <Absolute>183960</Absolute>
            <NoteOn Channel="1" Note="50" Velocity="95"/>
        </Event>
        <Event>
            <Absolute>184200</Absolute>
            <NoteOff Channel="1" Note="50" Velocity="95"/>
        </Event>
        <Event>
            <Absolute>184320</Absolute>
            <NoteOn Channel="1" Note="48" Velocity="95"/>
        </Event>
        <Event>
            <Absolute>184320</Absolute>
            <NoteOn Channel="1" Note="50" Velocity="95"/>
        </Event>
        <Event>
            <Absolute>184800</Absolute>
            <NoteOff Channel="1" Note="48" Velocity="95"/>
        </Event>
        <Event>
            <Absolute>184800</Absolute>
            <NoteOff Channel="1" Note="50" Velocity="95"/>
        </Event>
        <Event>
            <Absolute>184920</Absolute>
            <NoteOn Channel="1" Note="48" Velocity="95"/>
        </Event>
        <Event>
            <Absolute>184920</Absolute>
            <NoteOn Channel="1" Note="50" Velocity="95"/>
        </Event>
        <Event>
            <Absolute>185160</Absolute>
            <NoteOff Channel="1" Note="48" Velocity="95"/>
        </Event>
        <Event>
            <Absolute>185160</Absolute>
            <NoteOff Channel="1" Note="50" Velocity="95"/>
        </Event>
        <Event>
            <Absolute>185280</Absolute>
            <NoteOn Channel="1" Note="50" Velocity="95"/>
        </Event>
        <Event>
            <Absolute>185280</Absolute>
            <NoteOn Channel="1" Note="48" Velocity="95"/>
        </Event>
        <Event>
            <Absolute>185760</Absolute>
            <NoteOff Channel="1" Note="50" Velocity="95"/>
        </Event>
        <Event>
            <Absolute>185760</Absolute>
            <NoteOff Channel="1" Note="48" Velocity="95"/>
        </Event>
        <Event>
            <Absolute>185880</Absolute>
            <NoteOn Channel="1" Note="50" Velocity="95"/>
        </Event>
        <Event>
            <Absolute>185880</Absolute>
            <NoteOn Channel="1" Note="48" Velocity="95"/>
        </Event>
        <Event>
            <Absolute>186120</Absolute>
            <NoteOff Channel="1" Note="50" Velocity="95"/>
        </Event>
        <Event>
            <Absolute>186120</Absolute>
            <NoteOff Channel="1" Note="48" Velocity="95"/>
        </Event>
        <Event>
            <Absolute>186240</Absolute>
            <NoteOn Channel="1" Note="48" Velocity="95"/>
        </Event>
        <Event>
            <Absolute>186240</Absolute>
            <NoteOn Channel="1" Note="50" Velocity="95"/>
        </Event>
        <Event>
            <Absolute>186720</Absolute>
            <NoteOff Channel="1" Note="48" Velocity="95"/>
        </Event>
        <Event>
            <Absolute>186720</Absolute>
            <NoteOff Channel="1" Note="50" Velocity="95"/>
        </Event>
        <Event>
            <Absolute>186840</Absolute>
            <NoteOn Channel="1" Note="48" Velocity="95"/>
        </Event>
        <Event>
            <Absolute>186840</Absolute>
            <NoteOn Channel="1" Note="50" Velocity="95"/>
        </Event>
        <Event>
            <Absolute>187080</Absolute>
            <NoteOff Channel="1" Note="48" Velocity="95"/>
        </Event>
        <Event>
            <Absolute>187080</Absolute>
            <NoteOff Channel="1" Note="50" Velocity="95"/>
        </Event>
        <Event>
            <Absolute>187200</Absolute>
            <NoteOn Channel="1" Note="50" Velocity="95"/>
        </Event>
        <Event>
            <Absolute>187200</Absolute>
            <NoteOn Channel="1" Note="48" Velocity="95"/>
        </Event>
        <Event>
            <Absolute>187680</Absolute>
            <NoteOff Channel="1" Note="50" Velocity="95"/>
        </Event>
        <Event>
            <Absolute>187680</Absolute>
            <NoteOff Channel="1" Note="48" Velocity="95"/>
        </Event>
        <Event>
            <Absolute>187800</Absolute>
            <NoteOn Channel="1" Note="50" Velocity="95"/>
        </Event>
        <Event>
            <Absolute>187800</Absolute>
            <NoteOn Channel="1" Note="48" Velocity="95"/>
        </Event>
        <Event>
            <Absolute>188040</Absolute>
            <NoteOff Channel="1" Note="50" Velocity="95"/>
        </Event>
        <Event>
            <Absolute>188040</Absolute>
            <NoteOff Channel="1" Note="48" Velocity="95"/>
        </Event>
        <Event>
            <Absolute>188160</Absolute>
            <NoteOn Channel="1" Note="48" Velocity="95"/>
        </Event>
        <Event>
            <Absolute>188160</Absolute>
            <NoteOn Channel="1" Note="50" Velocity="95"/>
        </Event>
        <Event>
            <Absolute>188640</Absolute>
            <NoteOff Channel="1" Note="48" Velocity="95"/>
        </Event>
        <Event>
            <Absolute>188640</Absolute>
            <NoteOff Channel="1" Note="50" Velocity="95"/>
        </Event>
        <Event>
            <Absolute>188760</Absolute>
            <NoteOn Channel="1" Note="48" Velocity="95"/>
        </Event>
        <Event>
            <Absolute>188760</Absolute>
            <NoteOn Channel="1" Note="50" Velocity="95"/>
        </Event>
        <Event>
            <Absolute>189000</Absolute>
            <NoteOff Channel="1" Note="48" Velocity="95"/>
        </Event>
        <Event>
            <Absolute>189000</Absolute>
            <NoteOff Channel="1" Note="50" Velocity="95"/>
        </Event>
        <Event>
            <Absolute>189120</Absolute>
            <NoteOn Channel="1" Note="50" Velocity="95"/>
        </Event>
        <Event>
            <Absolute>189120</Absolute>
            <NoteOn Channel="1" Note="48" Velocity="95"/>
        </Event>
        <Event>
            <Absolute>189600</Absolute>
            <NoteOff Channel="1" Note="50" Velocity="95"/>
        </Event>
        <Event>
            <Absolute>189600</Absolute>
            <NoteOff Channel="1" Note="48" Velocity="95"/>
        </Event>
        <Event>
            <Absolute>189720</Absolute>
            <NoteOn Channel="1" Note="50" Velocity="95"/>
        </Event>
        <Event>
            <Absolute>189720</Absolute>
            <NoteOn Channel="1" Note="48" Velocity="95"/>
        </Event>
        <Event>
            <Absolute>189960</Absolute>
            <NoteOff Channel="1" Note="50" Velocity="95"/>
        </Event>
        <Event>
            <Absolute>189960</Absolute>
            <NoteOff Channel="1" Note="48" Velocity="95"/>
        </Event>
        <Event>
            <Absolute>190080</Absolute>
            <NoteOn Channel="1" Note="48" Velocity="95"/>
        </Event>
        <Event>
            <Absolute>190080</Absolute>
            <NoteOn Channel="1" Note="50" Velocity="95"/>
        </Event>
        <Event>
            <Absolute>190560</Absolute>
            <NoteOff Channel="1" Note="48" Velocity="95"/>
        </Event>
        <Event>
            <Absolute>190560</Absolute>
            <NoteOff Channel="1" Note="50" Velocity="95"/>
        </Event>
        <Event>
            <Absolute>190680</Absolute>
            <NoteOn Channel="1" Note="48" Velocity="95"/>
        </Event>
        <Event>
            <Absolute>190680</Absolute>
            <NoteOn Channel="1" Note="50" Velocity="95"/>
        </Event>
        <Event>
            <Absolute>190920</Absolute>
            <NoteOff Channel="1" Note="48" Velocity="95"/>
        </Event>
        <Event>
            <Absolute>190920</Absolute>
            <NoteOff Channel="1" Note="50" Velocity="95"/>
        </Event>
        <Event>
            <Absolute>191040</Absolute>
            <NoteOn Channel="1" Note="50" Velocity="95"/>
        </Event>
        <Event>
            <Absolute>191040</Absolute>
            <NoteOn Channel="1" Note="48" Velocity="95"/>
        </Event>
        <Event>
            <Absolute>191520</Absolute>
            <NoteOff Channel="1" Note="50" Velocity="95"/>
        </Event>
        <Event>
            <Absolute>191520</Absolute>
            <NoteOff Channel="1" Note="48" Velocity="95"/>
        </Event>
        <Event>
            <Absolute>191640</Absolute>
            <NoteOn Channel="1" Note="50" Velocity="95"/>
        </Event>
        <Event>
            <Absolute>191640</Absolute>
            <NoteOn Channel="1" Note="48" Velocity="95"/>
        </Event>
        <Event>
            <Absolute>191880</Absolute>
            <NoteOff Channel="1" Note="50" Velocity="95"/>
        </Event>
        <Event>
            <Absolute>191880</Absolute>
            <NoteOff Channel="1" Note="48" Velocity="95"/>
        </Event>
        <Event>
            <Absolute>192000</Absolute>
            <NoteOn Channel="1" Note="48" Velocity="95"/>
        </Event>
        <Event>
            <Absolute>192480</Absolute>
            <NoteOff Channel="1" Note="48" Velocity="95"/>
        </Event>
        <Event>
            <Absolute>192600</Absolute>
            <NoteOn Channel="1" Note="48" Velocity="95"/>
        </Event>
        <Event>
            <Absolute>192840</Absolute>
            <NoteOff Channel="1" Note="48" Velocity="95"/>
        </Event>
        <Event>
            <Absolute>192960</Absolute>
            <NoteOn Channel="1" Note="50" Velocity="95"/>
        </Event>
        <Event>
            <Absolute>193440</Absolute>
            <NoteOff Channel="1" Note="50" Velocity="95"/>
        </Event>
        <Event>
            <Absolute>193560</Absolute>
            <NoteOn Channel="1" Note="50" Velocity="95"/>
        </Event>
        <Event>
            <Absolute>193800</Absolute>
            <NoteOff Channel="1" Note="50" Velocity="95"/>
        </Event>
        <Event>
            <Absolute>193920</Absolute>
            <NoteOn Channel="1" Note="48" Velocity="95"/>
        </Event>
        <Event>
            <Absolute>194400</Absolute>
            <NoteOff Channel="1" Note="48" Velocity="95"/>
        </Event>
        <Event>
            <Absolute>194520</Absolute>
            <NoteOn Channel="1" Note="48" Velocity="95"/>
        </Event>
        <Event>
            <Absolute>194760</Absolute>
            <NoteOff Channel="1" Note="48" Velocity="95"/>
        </Event>
        <Event>
            <Absolute>194880</Absolute>
            <NoteOn Channel="1" Note="50" Velocity="95"/>
        </Event>
        <Event>
            <Absolute>195360</Absolute>
            <NoteOff Channel="1" Note="50" Velocity="95"/>
        </Event>
        <Event>
            <Absolute>195480</Absolute>
            <NoteOn Channel="1" Note="50" Velocity="95"/>
        </Event>
        <Event>
            <Absolute>195720</Absolute>
            <NoteOff Channel="1" Note="50" Velocity="95"/>
        </Event>
        <Event>
            <Absolute>195840</Absolute>
            <NoteOn Channel="1" Note="48" Velocity="95"/>
        </Event>
        <Event>
            <Absolute>196320</Absolute>
            <NoteOff Channel="1" Note="48" Velocity="95"/>
        </Event>
        <Event>
            <Absolute>196440</Absolute>
            <NoteOn Channel="1" Note="48" Velocity="95"/>
        </Event>
        <Event>
            <Absolute>196680</Absolute>
            <NoteOff Channel="1" Note="48" Velocity="95"/>
        </Event>
        <Event>
            <Absolute>196800</Absolute>
            <NoteOn Channel="1" Note="50" Velocity="95"/>
        </Event>
        <Event>
            <Absolute>197280</Absolute>
            <NoteOff Channel="1" Note="50" Velocity="95"/>
        </Event>
        <Event>
            <Absolute>197400</Absolute>
            <NoteOn Channel="1" Note="50" Velocity="95"/>
        </Event>
        <Event>
            <Absolute>197640</Absolute>
            <NoteOff Channel="1" Note="50" Velocity="95"/>
        </Event>
        <Event>
            <Absolute>197760</Absolute>
            <NoteOn Channel="1" Note="48" Velocity="95"/>
        </Event>
        <Event>
            <Absolute>198240</Absolute>
            <NoteOff Channel="1" Note="48" Velocity="95"/>
        </Event>
        <Event>
            <Absolute>198360</Absolute>
            <NoteOn Channel="1" Note="48" Velocity="95"/>
        </Event>
        <Event>
            <Absolute>198600</Absolute>
            <NoteOff Channel="1" Note="48" Velocity="95"/>
        </Event>
        <Event>
            <Absolute>198720</Absolute>
            <NoteOn Channel="1" Note="50" Velocity="95"/>
        </Event>
        <Event>
            <Absolute>199200</Absolute>
            <NoteOff Channel="1" Note="50" Velocity="95"/>
        </Event>
        <Event>
            <Absolute>199320</Absolute>
            <NoteOn Channel="1" Note="50" Velocity="95"/>
        </Event>
        <Event>
            <Absolute>199560</Absolute>
            <NoteOff Channel="1" Note="50" Velocity="95"/>
        </Event>
        <Event>
            <Absolute>199680</Absolute>
            <NoteOn Channel="1" Note="48" Velocity="95"/>
        </Event>
        <Event>
            <Absolute>200160</Absolute>
            <NoteOff Channel="1" Note="48" Velocity="95"/>
        </Event>
        <Event>
            <Absolute>200280</Absolute>
            <NoteOn Channel="1" Note="48" Velocity="95"/>
        </Event>
        <Event>
            <Absolute>200520</Absolute>
            <NoteOff Channel="1" Note="48" Velocity="95"/>
        </Event>
        <Event>
            <Absolute>200640</Absolute>
            <NoteOn Channel="1" Note="50" Velocity="95"/>
        </Event>
        <Event>
            <Absolute>201120</Absolute>
            <NoteOff Channel="1" Note="50" Velocity="95"/>
        </Event>
        <Event>
            <Absolute>201240</Absolute>
            <NoteOn Channel="1" Note="50" Velocity="95"/>
        </Event>
        <Event>
            <Absolute>201480</Absolute>
            <NoteOff Channel="1" Note="50" Velocity="95"/>
        </Event>
        <Event>
            <Absolute>201600</Absolute>
            <NoteOn Channel="1" Note="48" Velocity="95"/>
        </Event>
        <Event>
            <Absolute>202080</Absolute>
            <NoteOff Channel="1" Note="48" Velocity="95"/>
        </Event>
        <Event>
            <Absolute>202200</Absolute>
            <NoteOn Channel="1" Note="48" Velocity="95"/>
        </Event>
        <Event>
            <Absolute>202440</Absolute>
            <NoteOff Channel="1" Note="48" Velocity="95"/>
        </Event>
        <Event>
            <Absolute>202560</Absolute>
            <NoteOn Channel="1" Note="50" Velocity="95"/>
        </Event>
        <Event>
            <Absolute>203040</Absolute>
            <NoteOff Channel="1" Note="50" Velocity="95"/>
        </Event>
        <Event>
            <Absolute>203160</Absolute>
            <NoteOn Channel="1" Note="50" Velocity="95"/>
        </Event>
        <Event>
            <Absolute>203400</Absolute>
            <NoteOff Channel="1" Note="50" Velocity="95"/>
        </Event>
        <Event>
            <Absolute>203520</Absolute>
            <NoteOn Channel="1" Note="48" Velocity="95"/>
        </Event>
        <Event>
            <Absolute>204000</Absolute>
            <NoteOff Channel="1" Note="48" Velocity="95"/>
        </Event>
        <Event>
            <Absolute>204120</Absolute>
            <NoteOn Channel="1" Note="48" Velocity="95"/>
        </Event>
        <Event>
            <Absolute>204360</Absolute>
            <NoteOff Channel="1" Note="48" Velocity="95"/>
        </Event>
        <Event>
            <Absolute>204480</Absolute>
            <NoteOn Channel="1" Note="50" Velocity="95"/>
        </Event>
        <Event>
            <Absolute>204960</Absolute>
            <NoteOff Channel="1" Note="50" Velocity="95"/>
        </Event>
        <Event>
            <Absolute>205080</Absolute>
            <NoteOn Channel="1" Note="50" Velocity="95"/>
        </Event>
        <Event>
            <Absolute>205320</Absolute>
            <NoteOff Channel="1" Note="50" Velocity="95"/>
        </Event>
        <Event>
            <Absolute>205440</Absolute>
            <NoteOn Channel="1" Note="48" Velocity="95"/>
        </Event>
        <Event>
            <Absolute>205920</Absolute>
            <NoteOff Channel="1" Note="48" Velocity="95"/>
        </Event>
        <Event>
            <Absolute>206040</Absolute>
            <NoteOn Channel="1" Note="48" Velocity="95"/>
        </Event>
        <Event>
            <Absolute>206280</Absolute>
            <NoteOff Channel="1" Note="48" Velocity="95"/>
        </Event>
        <Event>
            <Absolute>206400</Absolute>
            <NoteOn Channel="1" Note="50" Velocity="95"/>
        </Event>
        <Event>
            <Absolute>206880</Absolute>
            <NoteOff Channel="1" Note="50" Velocity="95"/>
        </Event>
        <Event>
            <Absolute>207000</Absolute>
            <NoteOn Channel="1" Note="50" Velocity="95"/>
        </Event>
        <Event>
            <Absolute>207240</Absolute>
            <NoteOff Channel="1" Note="50" Velocity="95"/>
        </Event>
        <Event>
            <Absolute>207360</Absolute>
            <NoteOn Channel="1" Note="48" Velocity="95"/>
        </Event>
        <Event>
            <Absolute>207840</Absolute>
            <NoteOff Channel="1" Note="48" Velocity="95"/>
        </Event>
        <Event>
            <Absolute>207960</Absolute>
            <NoteOn Channel="1" Note="48" Velocity="95"/>
        </Event>
        <Event>
            <Absolute>208200</Absolute>
            <NoteOff Channel="1" Note="48" Velocity="95"/>
        </Event>
        <Event>
            <Absolute>208320</Absolute>
            <NoteOn Channel="1" Note="50" Velocity="95"/>
        </Event>
        <Event>
            <Absolute>208800</Absolute>
            <NoteOff Channel="1" Note="50" Velocity="95"/>
        </Event>
        <Event>
            <Absolute>208920</Absolute>
            <NoteOn Channel="1" Note="50" Velocity="95"/>
        </Event>
        <Event>
            <Absolute>209160</Absolute>
            <NoteOff Channel="1" Note="50" Velocity="95"/>
        </Event>
        <Event>
            <Absolute>209280</Absolute>
            <NoteOn Channel="1" Note="48" Velocity="95"/>
        </Event>
        <Event>
            <Absolute>209760</Absolute>
            <NoteOff Channel="1" Note="48" Velocity="95"/>
        </Event>
        <Event>
            <Absolute>209880</Absolute>
            <NoteOn Channel="1" Note="48" Velocity="95"/>
        </Event>
        <Event>
            <Absolute>210120</Absolute>
            <NoteOff Channel="1" Note="48" Velocity="95"/>
        </Event>
        <Event>
            <Absolute>210240</Absolute>
            <NoteOn Channel="1" Note="50" Velocity="95"/>
        </Event>
        <Event>
            <Absolute>210720</Absolute>
            <NoteOff Channel="1" Note="50" Velocity="95"/>
        </Event>
        <Event>
            <Absolute>210840</Absolute>
            <NoteOn Channel="1" Note="50" Velocity="95"/>
        </Event>
        <Event>
            <Absolute>211080</Absolute>
            <NoteOff Channel="1" Note="50" Velocity="95"/>
        </Event>
        <Event>
            <Absolute>211200</Absolute>
            <NoteOn Channel="1" Note="48" Velocity="95"/>
        </Event>
        <Event>
            <Absolute>211680</Absolute>
            <NoteOff Channel="1" Note="48" Velocity="95"/>
        </Event>
        <Event>
            <Absolute>211800</Absolute>
            <NoteOn Channel="1" Note="48" Velocity="95"/>
        </Event>
        <Event>
            <Absolute>212040</Absolute>
            <NoteOff Channel="1" Note="48" Velocity="95"/>
        </Event>
        <Event>
            <Absolute>212160</Absolute>
            <NoteOn Channel="1" Note="50" Velocity="95"/>
        </Event>
        <Event>
            <Absolute>212640</Absolute>
            <NoteOff Channel="1" Note="50" Velocity="95"/>
        </Event>
        <Event>
            <Absolute>212760</Absolute>
            <NoteOn Channel="1" Note="50" Velocity="95"/>
        </Event>
        <Event>
            <Absolute>213000</Absolute>
            <NoteOff Channel="1" Note="50" Velocity="95"/>
        </Event>
        <Event>
            <Absolute>213120</Absolute>
            <NoteOn Channel="1" Note="48" Velocity="95"/>
        </Event>
        <Event>
            <Absolute>213600</Absolute>
            <NoteOff Channel="1" Note="48" Velocity="95"/>
        </Event>
        <Event>
            <Absolute>213720</Absolute>
            <NoteOn Channel="1" Note="48" Velocity="95"/>
        </Event>
        <Event>
            <Absolute>213960</Absolute>
            <NoteOff Channel="1" Note="48" Velocity="95"/>
        </Event>
        <Event>
            <Absolute>214080</Absolute>
            <NoteOn Channel="1" Note="50" Velocity="95"/>
        </Event>
        <Event>
            <Absolute>214560</Absolute>
            <NoteOff Channel="1" Note="50" Velocity="95"/>
        </Event>
        <Event>
            <Absolute>214680</Absolute>
            <NoteOn Channel="1" Note="50" Velocity="95"/>
        </Event>
        <Event>
            <Absolute>214920</Absolute>
            <NoteOff Channel="1" Note="50" Velocity="95"/>
        </Event>
        <Event>
            <Absolute>215040</Absolute>
            <NoteOn Channel="1" Note="48" Velocity="95"/>
        </Event>
        <Event>
            <Absolute>215520</Absolute>
            <NoteOff Channel="1" Note="48" Velocity="95"/>
        </Event>
        <Event>
            <Absolute>216000</Absolute>
            <NoteOn Channel="1" Note="50" Velocity="95"/>
        </Event>
        <Event>
            <Absolute>216480</Absolute>
            <NoteOff Channel="1" Note="50" Velocity="95"/>
        </Event>
        <Event>
            <Absolute>216600</Absolute>
            <NoteOn Channel="1" Note="50" Velocity="95"/>
        </Event>
        <Event>
            <Absolute>216720</Absolute>
            <NoteOff Channel="1" Note="50" Velocity="95"/>
        </Event>
        <Event>
            <Absolute>216960</Absolute>
            <NoteOn Channel="1" Note="48" Velocity="95"/>
        </Event>
        <Event>
            <Absolute>217440</Absolute>
            <NoteOff Channel="1" Note="48" Velocity="95"/>
        </Event>
        <Event>
            <Absolute>217920</Absolute>
            <NoteOn Channel="1" Note="50" Velocity="95"/>
        </Event>
        <Event>
            <Absolute>218400</Absolute>
            <NoteOff Channel="1" Note="50" Velocity="95"/>
        </Event>
        <Event>
            <Absolute>218640</Absolute>
            <NoteOn Channel="1" Note="48" Velocity="95"/>
        </Event>
        <Event>
            <Absolute>218880</Absolute>
            <NoteOff Channel="1" Note="48" Velocity="95"/>
        </Event>
        <Event>
            <Absolute>218880</Absolute>
            <NoteOn Channel="1" Note="48" Velocity="95"/>
        </Event>
        <Event>
            <Absolute>219360</Absolute>
            <NoteOff Channel="1" Note="48" Velocity="95"/>
        </Event>
        <Event>
            <Absolute>220800</Absolute>
            <NoteOn Channel="1" Note="50" Velocity="95"/>
        </Event>
        <Event>
            <Absolute>221280</Absolute>
            <NoteOff Channel="1" Note="50" Velocity="95"/>
        </Event>
        <Event>
            <Absolute>221280</Absolute>
            <EndOfTrack/>
        </Event>
    </Track>
</MIDIFile>